<svg class="mian__map map" version="1.1" id="Layer_1" xmlns="http://www.w3.org/2000/svg" xmlns:xlink="http://www.w3.org/1999/xlink" x="0px" y="0px" viewBox="0 0 554 502.5" enable-background="new 0 0 554 502.5" xml:space="preserve" width="554">
<g>
	<polygon fill="#CACAC9" points="423.1,456.4 420.5,462 425.7,475.9 425.9,484.5 433,500.4 442.4,502.5 453.5,494.2 460.6,482.1 
		461.7,463.7 441.1,465.6 	"/>
	<polygon fill="#CACAC9" points="333.4,38.7 336.4,42.1 338.1,48.5 330.4,46.4 330.4,42.5 	"/>
	<polygon fill="#CACAC9" points="236.1,0 231.6,8.3 239,9.3 246.7,11.1 252.9,2.4 251.2,0.1 241.4,2.5 	"/>
	<polygon fill="#CACAC9" points="219.4,61.9 231.9,61.6 225.6,49.8 248.8,17.4 272.6,15.8 271.3,5 307.5,16.8 323.3,12 325.4,17.5 
		333.8,17.5 330.1,25.4 311.9,56.2 351.7,85.5 347.9,228.9 228.1,228.9 	"/>
	<polygon fill="#CACAC9" points="60.3,374.5 60.3,366.9 67.2,360.7 62.4,338.9 43.5,300.3 19.6,265.5 26.9,256 12.3,226.7 
		11.7,200.3 15.3,204.8 23,194.2 44.3,171.5 106.7,145.1 121.9,121.1 117.4,106.3 126.5,94.1 141.1,105.9 139.2,89.4 155.3,89.4 
		151.9,75.1 181.3,47.8 197.2,54.7 214.7,61.3 227.9,315.5 189.7,327.8 171,337.9 160.7,354.1 115.4,363 91.8,381.4 	"/>
	<polygon fill="#CACAC9" points="366.6,396.3 362.7,373.4 351.9,372.7 352.7,356.4 339.3,362.3 347.3,333.7 316.3,358.7 
		301.9,337.6 287.1,318.9 259.7,311.1 232.5,314.6 228.3,233.5 388.5,233.5 379.1,409.3 	"/>
	<g class="map__region map__region--active map__region--melbourn">
	  <polygon fill="#4C6C9C" points="425.6,417.2 405.1,425.5 383.5,413.4 386.6,355.3 395.5,356.5 409.2,366.8 410.7,373.5 
	    425.8,387.3 464.7,390.7 467.1,402.6 478.6,411.5 481.3,412.2 458.7,418.4 441.1,429.7 	"/>
	    
	    <path fill="#DFE5EF" d="M432.8,412.5v-6l-6.5-3.1v-3.9l-3.6,2.1l-2.4,1.4v-3.6l-6.5,3.9v0.7c0,0-0.1,0-0.2,0h-3.3
	c-0.2,0-0.4,0.2-0.4,0.4v1.6h-0.2h-0.7v0.6c-1.1,0.4-1.9,1.5-1.9,2.7v3.1h-1v2.1h3.8h3.4h9.3h12v-2.1H432.8z M413.9,412.5h-0.5h-0.3
	v-3.1c0-1.3-0.8-2.3-1.9-2.7v-0.6h-0.4v-1.2h2.9c0.1,0,0.1,0,0.2,0V412.5z M419.4,412h-2.1v-2.1h2.1V412z M419.4,408.3h-2.1v-2.1
	h2.1V408.3z M422.8,412h-2.1v-2.1h2.1V412z M422.8,408.3h-2.1v-2.1h2.1V408.3z M425.8,412h-2.1v-2.1h2.1V412z M425.8,408.3h-2.1
	v-2.1h2.1V408.3z M428.9,412h-2.1v-2.1h2.1V412z"/>
<text transform="matrix(1 0 0 1 398.437 396.4962)" fill="#DFE5EF" font-family="'OpenSans'" font-size="8.1965">МЕЛЬБУРН</text>
	    
	</g>
	<polygon fill="#CACAC9" points="480.7,407.2 471.3,400 468.5,386.4 427.7,382.8 414.9,371.1 413.3,364.1 397.3,352.1 386.9,350.7 
		390.7,278.7 494.8,288.2 501,283.2 519,286.4 529.3,294.9 540.6,285 553.5,286.8 554,295 543.1,319.8 518.5,354 497.3,388.8 
		488.4,409.4 	"/>
	<polygon fill="#CACAC9" points="521,282 499.8,278.3 493.3,283.4 391,274.1 393.4,228.9 352.6,228.9 356.3,88.4 387.7,106.7 
		414,67.6 416.2,26.2 426.7,2.7 435.7,21.9 442.8,54.9 452,54.9 462.7,64.2 465.6,93.1 471.6,103.5 472.4,125.7 506.3,154.3 
		515.4,190.9 528,194.6 530.1,208.6 550.3,237.8 553.2,282.1 539.2,280.2 529.3,288.8 	"/>
</g>

</svg>
