
<svg version="1.1" id="Layer_1" xmlns="http://www.w3.org/2000/svg" xmlns:xlink="http://www.w3.org/1999/xlink" x="0px" y="0px"
	 viewBox="0 0 582.2 565.9" enable-background="new 0 0 582.2 565.9" xml:space="preserve">
<g>
	<polygon fill="#969696" points="32.7,469.2 36.4,458.7 42.2,455.5 44.8,439.2 49,438.2 58,419.7 67.5,416.6 66.9,404.5 41.7,393.4 
		45.3,376.6 62.7,373.9 122.7,402.9 139.1,417.1 158,424 158.5,429.7 163.3,426.1 177.5,433.4 173.8,443.4 144.8,445.5 123.3,466.6 
		130.6,479.8 111.2,491.9 98.5,495 91.2,504.5 60.1,494 44.3,500.3 	"/>
	<polygon fill="#969696" points="159.1,422.9 161.1,423 162.6,424.7 159.3,427.9 	"/>
	<polygon fill="#969696" points="126.9,402.4 141.2,416.3 157.7,422.1 161.7,421.3 164.3,424.7 175.9,430.8 176.7,420.3 
		191.2,415.3 214.3,426.6 225.4,420.7 224.7,419.6 227.9,417.7 228.8,418.7 230.4,417.9 223,406.3 227,386.3 227,377.4 219.1,380.8 
		224.1,370.8 235.4,361.3 244.9,341.3 229.6,334.5 224.9,330.5 197.5,302.9 187.8,304.7 183,312.9 166.4,320 153.5,310.8 
		152.2,327.9 122.2,316 118.5,323.1 136.7,343.1 144.8,364.2 	"/>
	<polygon fill="#969696" points="224.6,328.4 224.3,323.7 227.5,320.2 230.9,326.3 230.1,332.1 	"/>
	<polygon fill="#969696" points="237,360.8 247.2,338.9 231.2,332.6 233,326.3 230.1,320.5 231.7,318.9 230.9,306.8 235.1,303.4 
		234.6,298.7 239.6,296.5 243.8,287.9 242.2,286.8 244.3,285.8 247.5,273.1 253.6,270.8 257,274.4 260.7,255.2 269.1,257.3 
		283,270.2 299.1,262.6 307.3,275.8 308.3,283.4 304.1,286.8 313.1,316.3 310.7,317.9 307.5,314.2 305.7,313.9 304.1,318.4 
		287,325.5 284.9,324.5 300.2,348.9 290.2,358.1 291.2,364.7 275.1,366 268,364.7 265.4,367.4 253.8,357.9 	"/>
	<polygon fill="#969696" points="464.1,404.7 462.6,404.7 446.2,402.1 431,414.5 404.7,415.3 403.9,411.8 397.3,409.5 400.7,407.4 
		393.6,402.6 390.7,406.1 383.9,401.3 384.1,398.4 375.7,393.9 371.5,385.5 380.2,382.9 381.5,376.3 394.7,353.9 412,354.2 
		429.8,343.8 447,361.3 452.8,379.2 458.1,385.8 471,381.8 469.7,390 461.8,392.6 	"/>
	<polygon fill="#969696" points="387.8,337.4 377.3,332.1 364.1,337.1 358.1,333.1 350.7,335 345.4,327.3 340.2,327.6 331.7,320.5 
		331.2,326.3 327.8,327.6 326.2,324.7 328.6,321 312.8,311.8 305.9,287.3 309.9,283.7 308.3,275 310.2,271.8 322.8,267.6 
		324.9,260.5 339.4,258.4 344.9,263.6 381.8,262.6 392.8,282.9 387.3,290.8 398.6,315.2 387,331.3 	"/>
	<polygon fill="#969696" points="486.8,2.4 477,30.4 479.4,40.7 471.8,45.4 463.9,38.3 468.6,29.9 462.3,25.2 449.4,31.5 
		457.6,44.9 463.6,46.2 468.9,59.4 457.3,58.3 450.4,78.1 461.5,88.9 436.8,87.8 436.8,93.6 449.7,97.8 449.9,105.2 430.2,103.6 
		421,84.1 406.7,73.3 428.1,76.8 446.5,72 449.1,62 444.4,50.2 391.5,38.3 382.3,47 382.5,62.5 391,66 389.4,82.3 398.6,94.9 
		406.7,118.9 418.6,131 404.7,166.8 417.3,172.3 408.6,177 405.7,181.3 410.7,183.1 406.5,190.7 407.3,198.4 411.5,203.1 
		408.3,203.9 409.7,208.1 419.3,227 442.6,228.5 445,242.7 466.6,256.1 460,265.6 454.9,263.5 455,266.7 461,275.5 477.9,266.7 
		488,278.2 504,286.1 520.7,279.7 532.3,286.8 550.9,284.2 558,306.9 549,322.2 558,319.9 547.2,330.7 553.9,339.3 548.3,356.4 
		581.6,367.1 582.2,366.9 582.2,44.1 582.2,2.4 561.5,2.4 496.3,2.4 495.3,2.4 494.2,2.4 	"/>
	<polygon fill="#969696" points="464.7,7 467,17.3 469.9,17.8 473.4,13.1 473.9,6.7 	"/>
	<polygon fill="#969696" points="225.8,419.8 226.1,420.2 228.1,419.1 227.6,418.6 	"/>
	<polygon fill="#969696" points="258.6,367.6 258.4,369.7 260.6,371.2 259.3,367.7 	"/>
</g>
<g>
	<polygon fill="#CACAC9" points="7.4,464.2 20.6,442.6 12.7,436.3 41.7,393.4 65.9,404.2 65.4,412.6 55.9,416.8 45.9,434.2 
		42.2,435.2 39,452.1 35.3,454.2 30.1,467.9 	"/>
	<polygon fill="#4C6C9C" points="32.7,466.8 36.4,456.3 42.2,453.1 44.8,436.8 49,435.8 58,417.3 67.5,414.2 66.9,402.1 41.7,391 
		45.3,374.2 62.7,371.5 122.7,400.5 139.1,414.7 158,421.6 158.5,427.3 163.3,423.7 177.5,431 173.8,441 144.8,443.1 123.3,464.2 
		130.6,477.4 111.2,489.5 98.5,492.6 91.2,502.1 60.1,491.6 44.3,497.9 	"/>
	<polygon fill="#CACAC9" points="159.1,420.5 161.1,420.7 162.6,422.3 159.3,425.5 	"/>
	<polygon fill="#4C6C9C" points="126.9,400 141.2,413.9 157.7,419.7 161.7,418.9 164.3,422.3 175.9,428.4 176.7,417.9 191.2,412.9 
		214.3,424.2 225.4,418.3 224.7,417.2 227.9,415.3 228.8,416.3 230.4,415.5 223,403.9 227,383.9 227,375 219.1,378.4 224.1,368.4 
		235.4,358.9 244.9,338.9 229.6,332.1 224.9,328.1 197.5,300.5 187.8,302.3 183,310.5 166.4,317.6 153.5,308.4 152.2,325.5 
		122.2,313.6 118.5,320.7 136.7,340.7 144.8,361.8 	"/>
	<polygon fill="#CACAC9" points="118.8,291.3 121.2,291.3 133.3,291.5 138.8,296.8 147.5,291.8 179.6,298.1 191.7,292.6 
		180.9,288.4 197.5,276.5 192.2,267.3 183.5,268.9 186.7,248.6 179.9,237.3 177.2,218.9 169.3,216.5 185.9,198.9 170.4,191.2 
		183.5,180.2 167,176.5 158.3,186.5 149.6,201 154.6,216.8 147,226.8 162.7,231.5 159.1,239.9 162.2,245.2 157.2,253.6 141.7,254.4 
		144.1,264.1 132.5,267 153.3,279.7 	"/>
	<polygon fill="#CACAC9" points="145.1,230.2 134.1,235.7 131.2,228.6 123.8,228.1 121.7,224.4 134.8,216.5 141.4,218.6 	"/>
	<polygon fill="#CACAC9" points="132.7,237.6 129.6,229.9 121.7,229.9 119.6,223.9 133.3,215.5 126.9,212.8 118.8,217 118.8,221.2 
		113.3,222.6 106.2,218.3 99.8,229.1 105.4,237.6 88.8,247.8 96.4,258.6 124.3,259.9 	"/>
	<polygon fill="#CACAC9" points="224.6,326 224.3,321.3 227.5,317.8 230.9,323.9 230.1,329.7 	"/>
	<polygon fill="#CACAC9" points="198.8,299.2 223.3,324.4 222.5,320.2 227.2,316 230.4,316 229.1,310.5 224.6,308.4 227.2,304.2 
		217.2,297.3 212.2,299.2 206.4,296 	"/>
	<polygon fill="#CACAC9" points="227,307.8 230.1,309.2 229.3,304.4 232.8,301.3 232.8,294.9 238,293.4 242.5,286.3 239.9,284.4 
		243,282.6 245.4,274.7 239.9,270.7 228,273.6 230.1,280.2 223.8,287 225.9,279.7 223.3,273.4 220.1,282.6 209.3,294.4 212.2,296.8 
		218.3,295.5 229.3,302.8 	"/>
	<polygon fill="#CACAC9" points="222.2,374.7 225.1,368.7 235.1,360.2 247.8,359.2 253,357.6 257.5,361.5 257.2,368.1 265.9,373.1 
		263.6,381.5 255.7,377.9 249.9,387.6 243.6,376 238.6,385 229.9,383.1 228.8,372.9 	"/>
	<path fill="#CACAC9" d="M280.7,371.8l-12.6,1.8l-2.6,8.7l-8.7-2.1l-6.8,10l-6.1-10.8l-5.3,7.1l-9.5-2.4l-3.9,19l6.8,12.4l11.3-7.4
		l15.3,7.1l4.5,18.2l23.4,24.7l12.9,6.1l4.7,7.1l7.1,0.5l9.5,10.5l7.1,16.9l-5.8,11l3.2,4.7l8.4-9.2l1.3-7.1l4.5-3.4l-6.1-10
		l3.9-12.7l15,8.7l4.2-3.9l-32.4-21l2.9-4.2l-21.3-6.6l-7.6-18.7L283.8,415l-2.1-17.6l16.3-5.8l-0.5-12.4l-12.9-3.4L280.7,371.8z
		 M282.4,417.4l-0.8,2.8l-2,0.6l-0.4-2.8L282.4,417.4z M287,453.5l0.6,1.7l-2.5,0.4l0-1.2l0.8-0.9L287,453.5z"/>
	<polygon fill="#CACAC9" points="319.9,509.5 313.8,522.6 316.5,529.5 313.1,535.5 302.8,532.6 299.6,526.6 286.2,519.2 280.9,519 
		280.7,510.8 299.4,512.4 	"/>
	<polygon fill="#CACAC9" points="250.4,431 249.1,445 244.1,455.8 239.1,450.8 238,436.6 247.5,435 	"/>
	<polygon fill="#CACAC9" points="230.4,461.3 231.4,462.4 236.2,464.7 243.3,459.2 249.9,467.4 248,475.3 245.9,490.8 239.6,489.5 
		228.8,494.2 233,480.3 232,466.8 	"/>
	<polygon fill="#DA84B7" points="237,358.4 247.2,336.5 231.2,330.2 233,323.9 230.1,318.1 231.7,316.5 230.9,304.4 235.1,301 
		234.6,296.3 239.6,294.2 243.8,285.5 242.2,284.4 244.3,283.4 247.5,270.7 253.6,268.4 257,272 260.7,252.8 269.1,254.9 283,267.8 
		299.1,260.2 307.3,273.4 308.3,281 304.1,284.4 313.1,313.9 310.7,315.5 307.5,311.8 305.7,311.5 304.1,316 287,323.1 284.9,322.1 
		300.2,346.5 290.2,355.8 291.2,362.3 275.1,363.6 268,362.3 265.4,365 253.8,355.5 	"/>
	<polygon fill="#CACAC9" points="260.4,250.7 256.7,242.6 259.1,226.8 263.6,227.3 278.3,213.3 279.1,219.4 275.9,225.7 
		275.4,228.1 283.3,232.8 275.4,236.8 269.9,241.5 269.4,250.5 272.2,253.1 	"/>
	<polygon fill="#CACAC9" points="271.5,244.4 272.5,251.8 277.8,252.6 277.3,255.7 282.8,259.7 289.6,256 290.4,249.4 292.8,244.7 
		293.3,237 287,238.9 285.9,242.6 284.4,238.6 280.9,243.1 281.5,249.7 286.5,251.3 287.3,256.5 281.5,254.7 278.3,256 278.6,251.5 
		278.3,244.7 	"/>
	<polygon fill="#CACAC9" points="157.8,469.2 158.7,469.2 168.6,465.9 168.8,469.4 171.4,472.4 163.7,478.2 	"/>
	<polygon fill="#CACAC9" points="176.4,466.6 177.7,471.1 181.4,472.2 182,467.9 	"/>
	<polygon fill="#CACAC9" points="144,475.2 140.3,478.7 143.1,480.4 146.2,478 	"/>
	<polygon fill="#CACAC9" points="288,325 302,346.3 307.3,347.9 315.2,342.9 330.7,345.5 338.1,345.2 343.3,339.2 348.8,333.6 
		344.1,326.8 340.2,327.3 332.3,320.5 332.5,324.4 327.3,327.1 324.9,322.3 326.5,319.7 315.4,311.8 313.8,311.8 314.1,315.2 
		310.9,316.8 307,313.4 305.4,313.9 304.6,317.6 	"/>
	<polygon fill="#CACAC9" points="258.6,362.3 258.6,364 259.9,364.5 261.6,369.3 267,372.3 281.2,370.5 285.7,375 299.4,378.4 
		308.1,382.1 311.7,378.1 321.2,377.3 326.5,371.8 334.1,357.3 332.3,347.9 316.7,344.4 309.1,349.4 300.9,347.6 292,356.3 
		292.8,363.6 273.8,365.5 269.1,363.9 265.9,366.3 	"/>
	<polygon fill="#CACAC9" points="298.8,380.5 298.8,392.1 301.2,393.1 296.2,395 316.5,396 317.8,391 320.9,384.7 329.1,380 
		325.7,374.7 322,378.9 312.5,379.7 308.3,383.1 	"/>
	<polygon fill="#CACAC9" points="295.4,396.3 317.5,397.1 318.8,391.3 322.5,385.2 330.7,381 340.2,389.2 353.3,389.7 359.4,397.1 
		356.2,402.3 347,400 332.3,399.2 326.7,403.4 322.5,399.2 321.2,408.4 339.6,425.8 339.4,429.7 346,437.6 330.4,426.6 321.7,426.6 
		320.9,421 313.6,415 310.9,400.8 306.5,398.7 302,407.1 298.3,402.1 	"/>
	<polygon fill="#CACAC9" points="323.3,401.6 322.6,407.6 341,425.3 340.7,429.2 345.2,435 351.9,438.1 356.7,425.5 362.9,422.3 
		360.8,416.9 359.1,411 360.3,404 347.1,401.3 332.6,400.6 327,405 	"/>
	<polygon fill="#CACAC9" points="351.1,439.3 353.3,438.9 357.8,427.1 362.7,423.8 372.9,431.8 371.1,439.7 366.9,436.7 
		363.6,442.7 365.2,446.7 364,449.9 	"/>
	<polygon fill="#CACAC9" points="354.8,388.1 361,397.1 358.2,401.6 361.5,402.9 360.6,410.4 364.2,422 374,430.8 372.7,439.3 
		378.9,445.9 384.3,442.4 398.5,438.5 399.9,437 398.1,431.4 403.6,425.2 394.5,416.7 398.1,409.2 394.9,406.7 397.7,404.8 
		394.3,402.1 391.4,405.4 381.4,399.2 382.4,396.6 374.6,393.1 369.9,384.4 361.9,383.3 	"/>
	<polygon fill="#CACAC9" points="376.8,484.6 364.1,471.4 367.8,453.1 365.8,449.6 366.2,446.2 364.9,442.9 367.3,438.3 
		378.7,446.6 377.4,448.5 378.3,457.8 385.3,464.7 386,470.5 	"/>
	<polygon fill="#CACAC9" points="386.6,463.4 379.4,457.2 378.5,449.1 380.4,446.3 385,443.4 398.2,440.1 407.2,448.1 406.1,454.3 
		398.3,457.9 393.5,462.9 	"/>
	<polygon fill="#CACAC9" points="377.8,485.4 391.2,502.7 400.1,500.7 418,502.4 414.5,506.1 401.2,503.3 390.1,510 399,516.9 
		399.6,526.9 406.8,523.6 410.2,532.7 413.5,524.5 420.6,532 412.8,512.8 418,517.4 423.4,513.9 417.1,509.3 421.2,505 430.6,510 
		427.1,499.9 415.8,495.8 408.5,493.8 411.1,491.6 427.5,498.1 432.9,504.4 434.7,500.1 426.9,493.4 420.6,493.1 418,489.5 
		410.2,487.8 411.5,484.9 415.2,487.5 416.3,485.2 404.8,473 405,467 408.7,463.8 411.3,470.2 419.7,475.2 414.3,470 416.7,468.9 
		422.5,473.9 418.2,467.4 421.3,466.6 427.7,470 422.5,465 416.9,461.2 424.9,459.7 425.1,456.9 428.2,456 444.2,455.1 448.5,448.6 
		447.6,440.6 442.6,441.3 445,446.2 426.2,450.4 423.4,447.3 408.1,453.6 407.4,455.3 399.6,459 394.5,464 386.9,464.8 387.3,470.9 
			"/>
	<polygon fill="#CACAC9" points="545.9,526.2 546.8,525.4 549.8,521.7 552.9,521.7 552,517.6 563.5,513.5 570.4,506.8 566.5,515.2 
		569.7,521.3 563.9,521.9 557.6,530.1 548.7,531.8 	"/>
	<polygon fill="#CACAC9" points="427.9,543.5 430.3,543.5 440.7,545.7 457.4,542.8 460.6,545.7 464.3,543.1 465.1,547.8 
		457.3,548.7 446.5,554.1 442.7,548.5 429.3,548.9 	"/>
	<polygon fill="#CACAC9" points="327.3,373.7 331.3,379.5 341,387.3 353.3,388.1 360.4,381.5 369.4,382.3 374.4,380.5 378.6,379.7 
		379.9,373.1 392.5,352.6 383.1,347.9 368.3,346.8 361.5,352.6 350.2,355.5 351.2,359.7 340.4,360.8 336.2,358.4 	"/>
	<polygon fill="#CACAC9" points="334.4,347.3 335.9,356.3 341.5,358.6 349.2,358 348.6,353.9 359.9,351.3 367.5,345.2 384.4,346 
		387,336.8 377,331.5 364.1,336.8 358.3,332.9 350.2,334.6 339.9,346.5 	"/>
	<polygon fill="#CACAC9" points="447.6,438.9 439.9,439.5 442.6,445.5 426.8,448.7 423.6,445.2 408.9,452.1 408.6,447.4 
		400.7,439.5 402.5,438.1 400.2,432.1 405.7,426 396.5,416.6 399.1,410.5 402.3,411 402.3,414.5 431,413.7 446.8,402.1 463.4,404.4 
		464.1,410.2 457.3,414.5 456.2,426.3 463.9,432.1 	"/>
	<polygon fill="#4C6C9C" points="464.1,402.3 462.6,402.3 446.2,399.7 431,412.1 404.7,412.9 403.9,409.4 397.3,407.1 400.7,405 
		393.6,400.2 390.7,403.7 383.9,398.9 384.1,396 375.7,391.5 371.5,383.1 380.2,380.5 381.5,373.9 394.7,351.5 412,351.8 
		429.8,341.4 447,358.9 452.8,376.8 458.1,383.4 471,379.4 469.7,387.6 461.8,390.2 	"/>
	<polygon fill="#CACAC9" points="464.4,433.7 462.6,433.7 449.1,440 450.2,448.9 445.7,455.8 446.5,458.4 453.9,456 448.6,465 
		460.5,455.5 461.8,447.6 478.1,445.8 479.1,440.8 468.1,440 	"/>
	<polygon fill="#4C6C9C" points="387.8,335 377.3,329.7 364.1,334.7 358.1,330.7 350.7,332.6 345.4,325 340.2,325.2 331.7,318.1 
		331.2,323.9 327.8,325.2 326.2,322.3 328.6,318.6 312.8,309.4 305.9,284.9 309.9,281.3 308.3,272.6 310.2,269.4 322.8,265.2 
		324.9,258.1 339.4,256 344.9,261.3 381.8,260.2 392.8,280.5 387.3,288.4 398.6,312.8 387,328.9 	"/>
	<polygon fill="#CACAC9" points="352.3,259.9 377.6,259.2 376.5,249.5 362.3,245.6 363.8,252.1 353.9,252.6 353.5,255.6 358.2,257 	
		"/>
	<polygon fill="#CACAC9" points="363.1,243.1 364.2,243.3 378.3,248.5 379.3,258.9 383.9,259.5 386.7,263.4 397,264.1 402.7,255.4 
		402,248.7 408.5,236.8 396.6,229.3 367.9,230.2 361.4,235.5 	"/>
	<polygon fill="#CACAC9" points="360.7,234 362.5,233 367.7,228.4 396.8,227.6 408.1,234.3 417.6,226.5 409.4,208.5 387.1,204 
		383,206 384.7,217 379.5,219.8 369.8,210.5 361.2,220.2 	"/>
	<polygon fill="#CACAC9" points="285.4,198.3 296.7,232.3 297.3,248.9 306.2,249.7 309.1,238.1 323.3,234.1 327.3,203.6 
		342.8,185.7 327.3,171 330.7,140.2 350.7,120.2 349.1,106.5 362.3,97.3 354.9,69.4 338.3,54.9 335.9,65.7 328.1,67.5 310.4,99.4 
		306.2,117 309.1,127 298.8,129.9 295.4,159.1 298,168.6 294.6,185.4 	"/>
	<polygon fill="#CACAC9" points="285.9,195.2 287.3,194.7 293.3,184.4 295.9,169.6 293,157 296.7,128.1 306.7,125.7 304.1,117.8 
		309.4,97.5 326.2,66.7 335.4,64.6 337.3,52.8 343.8,51.5 353.8,59.4 361.2,58 364.1,42 372.8,37 381.2,42.5 386.2,38.6 379.9,33.6 
		383.6,30.4 368.1,23.8 358.1,36.5 351.7,32.2 337.5,43 328.3,45.4 323.8,58.8 315.2,57.3 304.6,67 313.1,69.1 298.6,98.3 
		288.8,118.3 248.8,149.9 245.9,193.1 258,207.3 274.9,196.8 281.5,183.6 	"/>
	<polygon fill="#CACAC9" points="364.4,97 356,68.3 339.9,54.4 344.4,53 354.4,60.7 362.8,59.1 365.2,43.3 373.6,38.8 380.7,44.6 
		381,61.2 389.4,64.9 388.1,79.9 397.5,94.9 406.2,118.1 416.5,128.6 401.2,166.2 368.3,180.2 357.3,171.5 355.2,156 351,141.7 
		372.3,108.3 369.4,98.6 	"/>
	<polygon fill="#CACAC9" points="431.8,340.2 442.2,336.5 455.2,342.1 458.6,349.2 469.4,355.9 467.1,363 455.6,377.5 448.9,358.1 	
		"/>
	<polygon fill="#CACAC9" points="470.9,377.5 458.6,381.6 457.1,377.8 468.2,364.1 471.6,354.8 459.7,347.7 456,340.2 442.9,334.3 
		429.2,339.5 412,349.6 393,349.9 386.4,346.9 389.3,336.5 389.3,329.5 400.1,313.1 393,297.1 404.6,291.5 456,288.1 460.4,275.1 
		477.6,266.2 486.5,277.3 503.2,285.9 521.1,279.6 531.2,286.3 550.1,284 555.7,305.6 546.4,320.5 536.4,331.3 518.9,349.6 
		529.3,360.3 545.3,352.5 542,358.9 530.4,365.2 515.9,379 510.3,366.7 497.7,369.3 507.7,355.5 493.6,358.9 485.7,353.6 477.2,354 
			"/>
	<polygon fill="#CACAC9" points="459.5,272.3 455,286.3 404.2,289.1 392.9,295.2 389,288.5 394.4,280.7 386,264.9 398.3,265.4 
		404.4,256.5 403.8,249 411.1,235.1 419.9,226.3 441.6,228.6 443.3,240.7 464.2,253.7 459.3,261.1 452.1,258 453.4,263.9 	"/>
	<polygon fill="#CACAC9" points="408.2,207 387,202.2 382.9,204.5 382.9,199.9 379.1,200.6 373.1,189.7 388.7,180.7 408.5,180.8 
		404.7,186.5 400.8,188.1 407.2,200.1 	"/>
	<polygon fill="#CACAC9" points="340.7,210.7 338.6,211 335.7,217.3 337.3,226.2 341.7,218.6 	"/>
	<polygon fill="#CACAC9" points="364.4,202.6 366.2,208.9 374.1,199.4 370.7,197.8 	"/>
	<g>
		<polygon fill="#CACAC9" points="367.3,193.1 367.5,196.5 370.4,195.7 371.5,192.6 		"/>
		<polygon fill="#4C6C9C" points="486.8,0 477,28 479.4,38.3 471.8,43 463.9,35.9 468.6,27.5 462.3,22.8 449.4,29.1 457.6,42.5 
			463.6,43.8 468.9,57 457.3,55.9 450.4,75.7 461.5,86.5 436.8,85.4 436.8,91.2 449.7,95.4 449.9,102.8 430.2,101.2 421,81.7 
			406.7,71 428.1,74.4 446.5,69.6 449.1,59.6 444.4,47.8 391.5,35.9 382.3,44.6 382.5,60.1 391,63.6 389.4,79.9 398.6,92.5 
			406.7,116.5 418.6,128.6 404.7,164.4 417.3,169.9 408.6,174.6 405.7,178.9 410.7,180.7 406.5,188.4 407.3,196 411.5,200.7 
			408.3,201.5 409.7,205.7 419.3,224.6 442.6,226.2 445,240.3 466.6,253.7 460,263.2 454.9,261.1 455,264.3 461,273.1 477.9,264.3 
			488,275.9 504,283.7 520.7,277.3 532.3,284.4 550.9,281.8 558,304.5 549,319.8 558,317.5 547.2,328.3 553.9,336.9 548.3,354 
			581.6,364.7 582.2,364.6 582.2,41.7 582.2,0 561.5,0 496.3,0 495.3,0 494.2,0 		"/>
		<polygon fill="#4C6C9C" points="464.7,4.6 467,14.9 469.9,15.4 473.4,10.7 473.9,4.3 		"/>
		<polygon fill="#CACAC9" points="537.9,411 523.9,414.7 505.7,432.3 500.7,438.4 480.2,440.8 479.1,445.8 490.2,447.1 478.9,451 
			480.7,454.5 460.2,457.6 449.4,466.3 448.1,477.1 458.9,473.9 460.7,491.8 468.1,500.3 488.6,513.4 508.9,520 517.1,512.9 
			517.1,504.2 536.8,503.7 540,509.2 559.4,505.8 568.4,487.9 578.4,490.5 582.2,481.5 582.2,411 		"/>
	</g>
	<polygon fill="#CACAC9" points="285.8,454.9 285.8,454.6 286.1,454.1 286.6,454.1 286.8,454.8 	"/>
	<polygon fill="#CACAC9" points="280,418.5 280.3,419.7 281.3,419.4 281.5,418.2 	"/>
	<polygon fill="#CACAC9" points="225.8,417.4 226.1,417.8 228.1,416.7 227.6,416.2 	"/>
	<polygon fill="#CACAC9" points="258.6,365.2 258.4,367.3 260.6,368.8 259.3,365.3 	"/>
	<polygon fill="#CACAC9" points="300.4,555.7 302,555.2 303.9,556.1 306,556.6 308.2,558.9 307,560 304.4,558.1 304.2,556.5 
		303.3,555.9 302.2,556.7 	"/>
</g>
<text transform="matrix(1 0 0 1 251.2986 298.1055)" fill="#FFFFFF" font-family="'OpenSans'" font-size="8.1965">Германия</text>
<text transform="matrix(1 0 0 1 340.8533 310.2149)" fill="#FFFFFF" font-family="'OpenSans'" font-size="8.1965">польша</text>
<text transform="matrix(1 0 0 1 396.6541 365.1631)" fill="#FFFFFF" font-family="'OpenSans'" font-size="8.1965">румыния</text>
<text transform="matrix(1 0 0 1 68.7361 440.5674)" fill="#FFFFFF" font-family="'OpenSans'" font-size="8.1965">Испания</text>
<text transform="matrix(1 0 0 1 167.4578 371.5469)" fill="#FFFFFF" font-family="'OpenSans'" font-size="8.1965">Франция</text>
<path fill="#DFE5EF" d="M448.9,379.4v-6l-6.5-3.1v-3.9l-3.6,2.1l-2.4,1.4v-3.6l-6.5,3.9v0.7c0,0-0.1,0-0.2,0h-3.3
	c-0.2,0-0.4,0.2-0.4,0.4v1.6H426h-0.7v0.6c-1.1,0.4-1.9,1.5-1.9,2.7v3.1h-1v2.1h3.8h3.4h9.3h12v-2.1H448.9z M430,379.4h-0.5h-0.3
	v-3.1c0-1.3-0.8-2.3-1.9-2.7V373H427v-1.2h2.9c0.1,0,0.1,0,0.2,0V379.4z M435.5,378.8h-2.1v-2.1h2.1V378.8z M435.5,375.2h-2.1v-2.1
	h2.1V375.2z M438.9,378.8h-2.1v-2.1h2.1V378.8z M438.9,375.2h-2.1v-2.1h2.1V375.2z M441.9,378.8h-2.1v-2.1h2.1V378.8z M441.9,375.2
	h-2.1v-2.1h2.1V375.2z M445,378.8h-2.1v-2.1h2.1V378.8z"/>
<path fill="#DFE5EF" d="M440.4,398.4v-6l-6.5-3.1v-3.9l-3.6,2.1l-2.4,1.4v-3.6l-6.5,3.9v0.7c0,0-0.1,0-0.2,0h-3.3
	c-0.2,0-0.4,0.2-0.4,0.4v1.6h-0.2h-0.7v0.6c-1.1,0.4-1.9,1.5-1.9,2.7v3.1h-1v2.1h3.8h3.4h9.3h12v-2.1H440.4z M421.5,398.4h-0.5h-0.3
	v-3.1c0-1.3-0.8-2.3-1.9-2.7v-0.6h-0.4v-1.2h2.9c0.1,0,0.1,0,0.2,0V398.4z M427,397.8h-2.1v-2.1h2.1V397.8z M427,394.2h-2.1v-2.1
	h2.1V394.2z M430.4,397.8h-2.1v-2.1h2.1V397.8z M430.4,394.2h-2.1v-2.1h2.1V394.2z M433.5,397.8h-2.1v-2.1h2.1V397.8z M433.5,394.2
	h-2.1v-2.1h2.1V394.2z M436.5,397.8h-2.1v-2.1h2.1V397.8z"/>
<path fill="#DFE5EF" d="M415.9,386.5v-6l-6.5-3.1v-3.9l-3.6,2.1l-2.4,1.4v-3.6l-6.5,3.9v0.7c0,0-0.1,0-0.2,0h-3.3
	c-0.2,0-0.4,0.2-0.4,0.4v1.6H393h-0.7v0.6c-1.1,0.4-1.9,1.5-1.9,2.7v3.1h-1v2.1h3.8h3.4h9.3h12v-2.1H415.9z M397,386.5h-0.5h-0.3
	v-3.1c0-1.3-0.8-2.3-1.9-2.7V380H394v-1.2h2.9c0.1,0,0.1,0,0.2,0V386.5z M402.5,385.9h-2.1v-2.1h2.1V385.9z M402.5,382.3h-2.1v-2.1
	h2.1V382.3z M405.9,385.9h-2.1v-2.1h2.1V385.9z M405.9,382.3h-2.1v-2.1h2.1V382.3z M408.9,385.9h-2.1v-2.1h2.1V385.9z M408.9,382.3
	h-2.1v-2.1h2.1V382.3z M412,385.9h-2.1v-2.1h2.1V385.9z"/>
<path fill="#DFE5EF" d="M381.7,283.8v-6l-6.5-3.1v-3.9l-3.6,2.1l-2.4,1.4v-3.6l-6.5,3.9v0.7c0,0-0.1,0-0.2,0h-3.3
	c-0.2,0-0.4,0.2-0.4,0.4v1.6h-0.2h-0.7v0.6c-1.1,0.4-1.9,1.5-1.9,2.7v3.1h-1v2.1h3.8h3.4h9.3h12v-2.1H381.7z M362.8,283.8h-0.5h-0.3
	v-3.1c0-1.3-0.8-2.3-1.9-2.7v-0.6h-0.4v-1.2h2.9c0.1,0,0.1,0,0.2,0V283.8z M368.3,283.2h-2.1v-2.1h2.1V283.2z M368.3,279.6h-2.1
	v-2.1h2.1V279.6z M371.7,283.2h-2.1v-2.1h2.1V283.2z M371.7,279.6h-2.1v-2.1h2.1V279.6z M374.7,283.2h-2.1v-2.1h2.1V283.2z
	 M374.7,279.6h-2.1v-2.1h2.1V279.6z M377.7,283.2h-2.1v-2.1h2.1V283.2z"/>
<path fill="#DFE5EF" d="M346.4,291.3v-6l-6.5-3.1v-3.9l-3.6,2.1l-2.4,1.4v-3.6l-6.5,3.9v0.7c0,0-0.1,0-0.2,0h-3.3
	c-0.2,0-0.4,0.2-0.4,0.4v1.6h-0.2h-0.7v0.6c-1.1,0.4-1.9,1.5-1.9,2.7v3.1h-1v2.1h3.8h3.4h9.3h12v-2.1H346.4z M327.5,291.3h-0.5h-0.3
	v-3.1c0-1.3-0.8-2.3-1.9-2.7v-0.6h-0.4v-1.2h2.9c0.1,0,0.1,0,0.2,0V291.3z M333,290.8h-2.1v-2.1h2.1V290.8z M333,287.1h-2.1v-2.1
	h2.1V287.1z M336.4,290.8h-2.1v-2.1h2.1V290.8z M336.4,287.1h-2.1v-2.1h2.1V287.1z M339.4,290.8h-2.1v-2.1h2.1V290.8z M339.4,287.1
	h-2.1v-2.1h2.1V287.1z M342.5,290.8h-2.1v-2.1h2.1V290.8z"/>
<path fill="#DFE5EF" d="M291,339.2v-6l-6.5-3.1v-3.9l-3.6,2.1l-2.4,1.4v-3.6l-6.5,3.9v0.7c0,0-0.1,0-0.2,0h-3.3
	c-0.2,0-0.4,0.2-0.4,0.4v1.6h-0.2h-0.7v0.6c-1.1,0.4-1.9,1.5-1.9,2.7v3.1h-1v2.1h3.8h3.4h9.3h12v-2.1H291z M272.1,339.2h-0.5h-0.3
	v-3.1c0-1.3-0.8-2.3-1.9-2.7v-0.6h-0.4v-1.2h2.9c0.1,0,0.1,0,0.2,0V339.2z M277.6,338.6h-2.1v-2.1h2.1V338.6z M277.6,335h-2.1v-2.1
	h2.1V335z M280.9,338.6h-2.1v-2.1h2.1V338.6z M280.9,335h-2.1v-2.1h2.1V335z M284,338.6h-2.1v-2.1h2.1V338.6z M284,335h-2.1v-2.1
	h2.1V335z M287,338.6h-2.1v-2.1h2.1V338.6z"/>
<path fill="#DFE5EF" d="M269.6,352.3v-6l-6.5-3.1v-3.9l-3.6,2.1l-2.4,1.4v-3.6l-6.5,3.9v0.7c0,0-0.1,0-0.2,0h-3.3
	c-0.2,0-0.4,0.2-0.4,0.4v1.6h-0.2H246v0.6c-1.1,0.4-1.9,1.5-1.9,2.7v3.1h-1v2.1h3.8h3.4h9.3h12v-2.1H269.6z M250.8,352.3h-0.5H250
	v-3.1c0-1.3-0.8-2.3-1.9-2.7v-0.6h-0.4v-1.2h2.9c0.1,0,0.1,0,0.2,0V352.3z M256.2,351.7h-2.1v-2.1h2.1V351.7z M256.2,348.1h-2.1V346
	h2.1V348.1z M259.6,351.7h-2.1v-2.1h2.1V351.7z M259.6,348.1h-2.1V346h2.1V348.1z M262.7,351.7h-2.1v-2.1h2.1V351.7z M262.7,348.1
	h-2.1V346h2.1V348.1z M265.7,351.7h-2.1v-2.1h2.1V351.7z"/>
<path fill="#DFE5EF" d="M220.2,344.7v-6l-6.5-3.1v-3.9l-3.6,2.1l-2.4,1.4v-3.6l-6.5,3.9v0.7c0,0-0.1,0-0.2,0h-3.3
	c-0.2,0-0.4,0.2-0.4,0.4v1.6h-0.2h-0.7v0.6c-1.1,0.4-1.9,1.5-1.9,2.7v3.1h-1v2.1h3.8h3.4h9.3h12v-2.1H220.2z M201.3,344.7h-0.5h-0.3
	v-3.1c0-1.3-0.8-2.3-1.9-2.7v-0.6h-0.4V337h2.9c0.1,0,0.1,0,0.2,0V344.7z M206.8,344.1h-2.1v-2.1h2.1V344.1z M206.8,340.5h-2.1v-2.1
	h2.1V340.5z M210.2,344.1h-2.1v-2.1h2.1V344.1z M210.2,340.5h-2.1v-2.1h2.1V340.5z M213.2,344.1h-2.1v-2.1h2.1V344.1z M213.2,340.5
	h-2.1v-2.1h2.1V340.5z M216.3,344.1h-2.1v-2.1h2.1V344.1z"/>
<path fill="#DFE5EF" d="M145.6,433.4v-6l-6.5-3.1v-3.9l-3.6,2.1l-2.4,1.4v-3.6l-6.5,3.9v0.7c0,0-0.1,0-0.2,0h-3.3
	c-0.2,0-0.4,0.2-0.4,0.4v1.6h-0.2H122v0.6c-1.1,0.4-1.9,1.5-1.9,2.7v3.1h-1v2.1h3.8h3.4h9.3h12v-2.1H145.6z M126.7,433.4h-0.5H126
	v-3.1c0-1.3-0.8-2.3-1.9-2.7v-0.6h-0.4v-1.2h2.9c0.1,0,0.1,0,0.2,0V433.4z M132.2,432.8h-2.1v-2.1h2.1V432.8z M132.2,429.1h-2.1
	v-2.1h2.1V429.1z M135.5,432.8h-2.1v-2.1h2.1V432.8z M135.5,429.1h-2.1v-2.1h2.1V429.1z M138.6,432.8h-2.1v-2.1h2.1V432.8z
	 M138.6,429.1h-2.1v-2.1h2.1V429.1z M141.6,432.8h-2.1v-2.1h2.1V432.8z"/>
<g>
	<path fill="#DFE5EF" d="M259.8,317.2v2.5h2.1v-2.5h0.2c0,0,0,0,0,0v-0.8c0,0,0,0,0,0h-2.4c0,0-0.1,0-0.1,0v0.8
		C259.6,317.2,259.6,317.2,259.8,317.2L259.8,317.2z"/>
	<path fill="#DFE5EF" d="M265.5,319.8v-2.5h0.2c0,0,0,0,0,0v-0.8c0,0,0,0,0,0h-2.4c0,0-0.1,0-0.1,0v0.8c0,0,0.1,0,0.1,0h0.1v2.5
		H265.5z"/>
	<path fill="#DFE5EF" d="M254,320.2v-5.4h-9.7V330h8.1h1.6h13.5v-9.7H254z M248.5,326.4v1.3v1.7h-1.9v-1.7v-1.3v-0.7h1.9V326.4z
		 M248.5,324.9h-1.9v-1.9h1.9V324.9z M248.5,322.1h-1.9v-1.9h1.9V322.1z M248.5,319h-1.9v-1.9h1.9V319z M251.7,326.4v1.3v1.7h-1.9
		v-1.7v-1.3v-0.7h1.9V326.4z M251.7,324.9h-1.9v-1.9h1.9V324.9z M251.7,322.1h-1.9v-1.9h1.9V322.1z M251.7,319h-1.9v-1.9h1.9V319z
		 M256.5,327.6h-1.9v-1.9h1.9V327.6z M256.5,324.4h-1.9v-1.9h1.9V324.4z M259.6,327.6h-1.9v-1.9h1.9V327.6z M259.6,324.4h-1.9v-1.9
		h1.9V324.4z M262.4,327.6h-1.9v-1.9h1.9V327.6z M262.4,324.4h-1.9v-1.9h1.9V324.4z M265.2,327.6h-1.9v-1.9h1.9V327.6z M265.2,324.4
		h-1.9v-1.9h1.9V324.4z"/>
	<path fill="#DFE5EF" d="M260.3,315.6c0.1-1.6,2.8-1.9,2.8-1.9c4.2-0.3,2.8-3.2,2.8-3.2c-0.7,2.4-2.8,1.5-2.8,1.5
		c-2.9-0.3-2.8,1.8-2.8,1.8V315.6z"/>
</g>
<polygon fill="#4C6C9C" points="486.8,0 477,28 479.4,38.3 471.8,43 463.9,35.9 468.6,27.5 462.3,22.8 449.4,29.1 457.6,42.5 
	463.6,43.8 468.9,57 457.3,55.9 450.4,75.7 461.5,86.5 436.8,85.4 436.8,91.2 449.7,95.4 449.9,102.8 430.2,101.2 421,81.7 
	406.7,71 428.1,74.4 446.5,69.6 449.1,59.6 444.4,47.8 391.5,35.9 382.3,44.6 382.5,60.1 391,63.6 389.4,79.9 398.6,92.5 
	406.7,116.5 418.6,128.6 404.7,164.4 417.3,169.9 408.6,174.6 405.7,178.9 410.7,180.7 406.5,188.4 407.3,196 411.5,200.7 
	408.3,201.5 409.7,205.7 419.3,224.6 442.6,226.2 445,240.3 466.6,253.7 460,263.2 454.9,261.1 455,264.3 461,273.1 477.9,264.3 
	488,275.9 504,283.7 520.7,277.3 532.3,284.4 550.9,281.8 558,304.5 549,319.8 558,317.5 547.2,328.3 553.9,336.9 548.3,354 
	581.6,364.7 582.2,364.6 582.2,41.7 582.2,0 561.5,0 496.3,0 495.3,0 494.2,0 "/>
<text transform="matrix(1 0 0 1 454.9002 176.4942)" fill="#FFFFFF" font-family="'OpenSans'" font-size="12">россия</text>
<path fill="#DFE5EF" d="M524.7,258.3v-8.7l-9.4-4.5v-5.6l-5.1,3.1l-3.4,2.1v-5.1l-9.4,5.6v1c-0.1,0-0.1,0-0.2,0h-4.7
	c-0.3,0-0.6,0.3-0.6,0.6v2.4h-0.2h-1v0.8c-1.6,0.6-2.8,2.1-2.8,4v4.5h-1.5v3h5.5h4.9h13.5h17.3v-3H524.7z M497.4,258.3h-0.7h-0.4
	v-4.5c0-1.8-1.2-3.4-2.8-4v-0.8H493v-1.8h4.2c0.1,0,0.2,0,0.2,0V258.3z M505.3,257.4h-3v-3h3V257.4z M505.3,252.2h-3v-3h3V252.2z
	 M510.2,257.4h-3v-3h3V257.4z M510.2,252.2h-3v-3h3V252.2z M514.6,257.4h-3v-3h3V257.4z M514.6,252.2h-3v-3h3V252.2z M519,257.4h-3
	v-3h3V257.4z"/>
<path fill="#DFE5EF" d="M504.1,220.7V212l-9.4-4.5v-5.6l-5.1,3.1l-3.4,2.1v-5.1l-9.4,5.6v1c-0.1,0-0.1,0-0.2,0h-4.7
	c-0.3,0-0.6,0.3-0.6,0.6v2.4H471h-1v0.8c-1.6,0.6-2.8,2.1-2.8,4v4.5h-1.5v3h5.5h4.9h13.5h17.3v-3H504.1z M476.8,220.7h-0.7h-0.4
	v-4.5c0-1.8-1.2-3.4-2.8-4v-0.8h-0.5v-1.8h4.2c0.1,0,0.2,0,0.2,0V220.7z M484.7,219.9h-3v-3h3V219.9z M484.7,214.7h-3v-3h3V214.7z
	 M489.6,219.9h-3v-3h3V219.9z M489.6,214.7h-3v-3h3V214.7z M494,219.9h-3v-3h3V219.9z M494,214.7h-3v-3h3V214.7z M498.4,219.9h-3v-3
	h3V219.9z"/>
</svg>
