<?xml version="1.0" encoding="utf-8"?>
<!-- Generator: Adobe Illustrator 17.1.0, SVG Export Plug-In . SVG Version: 6.00 Build 0)  -->
<!DOCTYPE svg PUBLIC "-//W3C//DTD SVG 1.1//EN" "http://www.w3.org/Graphics/SVG/1.1/DTD/svg11.dtd">

<svg version="1.1" id="Layer_1" xmlns="http://www.w3.org/2000/svg" xmlns:xlink="http://www.w3.org/1999/xlink" x="0px" y="0px"
	 viewBox="0 0 576.9 568.7" enable-background="new 0 0 576.9 568.7" xml:space="preserve">
<g>
	<polygon fill="#CACAC9" points="2.1,467.9 15.3,446.4 7.4,440 36.4,397.1 60.6,407.9 60.1,416.3 50.6,420.6 40.6,437.9 36.9,439 
		33.7,455.8 30,457.9 24.8,471.6 	"/>
	<polygon id="spain" fill="#4C6C9C" points="27.4,470.6 31.1,460 36.9,456.9 39.5,440.6 43.7,439.5 52.7,421.1 62.2,417.9 61.6,405.8 
		36.4,394.8 40,377.9 57.4,375.3 117.4,404.2 133.8,418.4 152.7,425.3 153.2,431.1 158,427.4 172.2,434.8 168.5,444.8 139.5,446.9 
		118,467.9 125.3,481.1 105.9,493.2 93.2,496.4 85.8,505.8 54.8,495.3 39,501.6 	"/>
	<polygon fill="#CACAC9" points="153.8,424.2 155.8,424.4 157.3,426.1 154,429.2 	"/>
	<polygon fill="#4C6C9C" points="121.6,403.7 135.9,417.7 152.4,423.4 156.4,422.7 159,426.1 170.6,432.1 171.4,421.6 185.9,416.6 
		209,427.9 220.1,422 219.4,421 222.6,419.1 223.5,420 225.1,419.2 217.7,407.7 221.7,387.7 221.7,378.7 213.8,382.1 218.8,372.1 
		230.1,362.6 239.6,342.6 224.3,335.8 219.6,331.8 192.2,304.2 182.5,306.1 177.7,314.2 161.1,321.3 148.2,312.1 146.9,329.2 
		116.9,317.4 113.2,324.5 131.4,344.5 139.5,365.5 	"/>
	<polygon fill="#CACAC9" points="113.5,295 115.9,295 128,295.3 133.5,300.5 142.2,295.5 174.3,301.8 186.4,296.3 175.6,292.1 
		192.2,280.3 186.9,271 178.2,272.6 181.4,252.4 174.6,241 171.9,222.6 164,220.2 180.6,202.6 165.1,195 178.2,183.9 161.7,180.2 
		153,190.2 144.3,204.7 149.3,220.5 141.7,230.5 157.4,235.2 153.8,243.7 156.9,248.9 151.9,257.4 136.4,258.1 138.8,267.9 
		127.2,270.8 148,283.4 	"/>
	<polygon fill="#CACAC9" points="139.8,233.9 128.8,239.5 125.9,232.3 118.5,231.8 116.4,228.1 129.5,220.2 136.1,222.3 	"/>
	<polygon fill="#CACAC9" points="127.4,241.3 124.3,233.7 116.4,233.7 114.3,227.6 128,219.2 121.6,216.6 113.5,220.8 113.5,225 
		108,226.3 100.9,222.1 94.5,232.9 100.1,241.3 83.5,251.6 91.1,262.4 119,263.7 	"/>
	<polygon fill="#CACAC9" points="219.3,329.7 219,325 222.2,321.6 225.6,327.6 224.8,333.4 	"/>
	<polygon fill="#CACAC9" points="193.5,302.9 218,328.2 217.2,324 221.9,319.7 225.1,319.7 223.8,314.2 219.3,312.1 221.9,307.9 
		211.9,301 206.9,302.9 201.1,299.7 	"/>
	<polygon fill="#CACAC9" points="221.7,311.6 224.8,312.9 224,308.2 227.5,305 227.5,298.7 232.7,297.1 237.2,290 234.6,288.2 
		237.7,286.3 240.1,278.4 234.6,274.5 222.7,277.4 224.8,283.9 218.5,290.8 220.6,283.4 218,277.1 214.8,286.3 204,298.2 
		206.9,300.5 213,299.2 224,306.6 	"/>
	<polygon fill="#CACAC9" points="216.9,378.4 219.8,372.4 229.8,364 242.5,362.9 247.7,361.3 252.2,365.3 251.9,371.9 260.6,376.9 
		258.3,385.3 250.4,381.6 244.6,391.3 238.3,379.8 233.3,388.7 224.6,386.9 223.5,376.6 	"/>
	<path fill="#CACAC9" d="M275.4,375.6l-12.6,1.8l-2.6,8.7l-8.7-2.1l-6.8,10l-6.1-10.8l-5.3,7.1l-9.5-2.4l-3.9,19l6.8,12.4l11.3-7.4
		l15.3,7.1l4.5,18.2l23.4,24.7l12.9,6.1l4.7,7.1l7.1,0.5l9.5,10.5l7.1,16.9l-5.8,11l3.2,4.7l8.4-9.2l1.3-7.1l4.5-3.4l-6.1-10
		l3.9-12.7l15,8.7l4.2-3.9l-32.4-21l2.9-4.2l-21.3-6.6l-7.6-18.7l-14.2-11.9l-2.1-17.6l16.3-5.8l-0.5-12.4l-12.9-3.4L275.4,375.6z
		 M277.1,421.1l-0.8,2.8l-2,0.6l-0.4-2.8L277.1,421.1z M281.7,457.2l0.6,1.7l-2.5,0.4l0-1.2l0.8-0.9L281.7,457.2z"/>
	<polygon fill="#CACAC9" points="314.6,513.2 308.5,526.4 311.2,533.2 307.7,539.3 297.5,536.4 294.3,530.3 280.9,523 275.6,522.7 
		275.4,514.5 294.1,516.1 	"/>
	<polygon fill="#CACAC9" points="245.1,434.8 243.8,448.7 238.8,459.5 233.8,454.5 232.7,440.3 242.2,438.7 	"/>
	<polygon fill="#CACAC9" points="225.1,465 226.1,466.1 230.9,468.5 238,462.9 244.6,471.1 242.7,479 240.6,494.5 234.3,493.2 
		223.5,497.9 227.7,484 226.7,470.6 	"/>
	<polygon fill="#DA84B7" points="231.7,362.1 241.9,340.3 225.9,334 227.7,327.6 224.8,321.8 226.4,320.3 225.6,308.2 229.8,304.7 
		229.3,300 234.3,297.9 238.5,289.2 236.9,288.2 239,287.1 242.2,274.5 248.3,272.1 251.7,275.8 255.4,256.6 263.8,258.7 
		277.7,271.6 293.8,263.9 302,277.1 303,284.7 298.8,288.2 307.7,317.6 305.4,319.2 302.2,315.5 300.4,315.3 298.8,319.7 
		281.7,326.8 279.6,325.8 294.9,350.3 284.8,359.5 285.9,366.1 269.8,367.4 262.7,366.1 260.1,368.7 248.5,359.2 	"/>
	<polygon fill="#CACAC9" points="255.1,254.5 251.4,246.3 253.8,230.5 258.3,231 273,217.1 273.8,223.1 270.6,229.5 270.1,231.8 
		278,236.6 270.1,240.5 264.6,245.2 264.1,254.2 266.9,256.8 	"/>
	<polygon fill="#CACAC9" points="266.2,248.1 267.2,255.5 272.5,256.3 271.9,259.5 277.5,263.4 284.3,259.7 285.1,253.1 
		287.5,248.4 288,240.8 281.7,242.6 280.6,246.3 279.1,242.4 275.6,246.8 276.2,253.4 281.2,255 282,260.3 276.2,258.4 273,259.7 
		273.3,255.3 273,248.4 	"/>
	<polygon fill="#CACAC9" points="152.5,473 153.4,473 163.3,469.6 163.5,473.2 166.1,476.1 158.4,481.9 	"/>
	<polygon fill="#CACAC9" points="171.1,470.4 172.4,474.8 176.1,475.9 176.7,471.7 	"/>
	<polygon fill="#CACAC9" points="138.7,478.9 135,482.5 137.8,484.1 140.9,481.7 	"/>
	<polygon fill="#CACAC9" points="282.7,328.7 296.7,350 302,351.6 309.9,346.6 325.4,349.2 332.8,349 338,342.9 343.5,337.4 
		338.8,330.5 334.9,331.1 327,324.2 327.2,328.2 322,330.8 319.6,326.1 321.2,323.4 310.1,315.5 308.5,315.5 308.8,318.9 
		305.6,320.5 301.7,317.1 300.1,317.6 299.3,321.3 	"/>
	<polygon fill="#CACAC9" points="253.3,366.1 253.3,367.8 254.6,368.3 256.3,373 261.7,376.1 275.9,374.2 280.4,378.7 294.1,382.1 
		302.7,385.8 306.4,381.9 315.9,381.1 321.2,375.5 328.8,361.1 327,351.6 311.4,348.2 303.8,353.2 295.6,351.3 286.7,360 
		287.5,367.4 268.5,369.2 263.8,367.6 260.6,370 	"/>
	<polygon fill="#CACAC9" points="293.5,384.2 293.5,395.8 295.9,396.9 290.9,398.7 311.2,399.8 312.5,394.8 315.6,388.4 
		323.8,383.7 320.4,378.4 316.7,382.7 307.2,383.4 303,386.9 	"/>
	<polygon fill="#CACAC9" points="290.1,400 312.2,400.8 313.5,395 317.2,389 325.4,384.8 334.9,392.9 348,393.4 354.1,400.8 
		350.9,406.1 341.7,403.7 327,402.9 321.4,407.1 317.2,402.9 315.9,412.1 334.3,429.5 334.1,433.5 340.7,441.4 325.1,430.3 
		316.4,430.3 315.6,424.8 308.3,418.7 305.6,404.5 301.2,402.4 296.7,410.8 293,405.8 	"/>
	<polygon fill="#CACAC9" points="317.9,405.3 317.3,411.4 335.7,429 335.4,433 339.9,438.7 346.6,441.8 351.4,429.2 357.6,426.1 
		355.5,420.7 353.8,414.7 355,407.7 341.8,405 327.3,404.3 321.7,408.8 	"/>
	<polygon fill="#CACAC9" points="345.8,443.1 348,442.7 352.5,430.8 357.4,427.5 367.6,435.6 365.8,443.5 361.6,440.4 358.3,446.5 
		359.9,450.4 358.7,453.6 	"/>
	<polygon fill="#CACAC9" points="349.5,391.9 355.7,400.8 352.9,405.3 356.2,406.6 355.3,414.1 358.9,425.7 368.7,434.5 
		367.4,443.1 373.6,449.6 379,446.1 393.2,442.3 394.6,440.7 392.8,435.2 398.3,429 389.2,420.4 392.8,412.9 389.6,410.4 
		392.4,408.6 389,405.8 386.1,409.1 376.1,402.9 377.1,400.3 369.3,396.9 364.6,388.2 356.6,387 	"/>
	<polygon fill="#CACAC9" points="371.4,488.3 358.8,475.2 362.5,456.9 360.5,453.3 360.9,449.9 359.6,446.6 362,442 373.4,450.3 
		372.1,452.3 373,461.5 380,468.5 380.7,474.3 	"/>
	<polygon fill="#CACAC9" points="381.3,467.1 374.1,461 373.2,452.8 375.1,450 379.7,447.1 392.9,443.9 401.9,451.9 400.8,458.1 
		393,461.6 388.2,466.6 	"/>
	<polygon fill="#CACAC9" points="372.5,489.2 385.9,506.5 394.8,504.4 412.7,506.1 409.2,509.8 395.9,507 384.8,513.7 393.7,520.6 
		394.3,530.7 401.5,527.3 404.9,536.4 408.2,528.2 415.3,535.7 407.5,516.5 412.7,521.2 418.1,517.6 411.8,513 415.9,508.7 
		425.3,513.7 421.8,503.7 410.5,499.6 403.2,497.5 405.8,495.3 422.2,501.8 427.6,508.1 429.4,503.9 421.6,497.2 415.3,496.8 
		412.7,493.3 404.9,491.6 406.2,488.6 409.9,491.2 411,489 399.5,476.7 399.7,470.7 403.4,467.6 406,473.9 414.4,478.9 409,473.7 
		411.4,472.6 417.2,477.6 412.9,471.1 416,470.4 422.4,473.7 417.2,468.7 411.6,465 419.6,463.5 419.8,460.7 422.9,459.8 
		438.9,458.8 443.2,452.3 442.3,444.3 437.3,445 439.7,449.9 420.9,454.2 418.1,451 402.8,457.3 402.1,459 394.3,462.7 389.2,467.8 
		381.6,468.5 382,474.6 	"/>
	<polygon fill="#CACAC9" points="540.6,529.9 541.5,529.2 544.5,525.5 547.6,525.5 546.7,521.4 558.2,517.3 565.1,510.6 
		561.2,518.9 564.4,525.1 558.6,525.6 552.3,533.8 543.4,535.5 	"/>
	<polygon fill="#CACAC9" points="422.6,547.2 425,547.2 435.4,549.5 452.1,546.5 455.3,549.5 459,546.9 459.8,551.5 452,552.4 
		441.2,557.8 437.4,552.3 424,552.6 	"/>
	<polygon fill="#CACAC9" points="322,377.4 326,383.3 335.6,391.1 348,391.9 355.1,385.3 364.1,386.1 369.1,384.2 373.3,383.4 
		374.6,376.9 387.2,356.3 377.8,351.6 363,350.5 356.2,356.3 344.9,359.2 345.9,363.4 335.1,364.5 330.9,362.1 	"/>
	<polygon fill="#CACAC9" points="329.1,351.1 330.6,360 336.2,362.4 343.9,361.7 343.3,357.6 354.6,355 362.2,349 379.1,349.7 
		381.7,340.5 371.7,335.3 358.8,340.5 353,336.6 344.9,338.3 334.6,350.3 	"/>
	<polygon fill="#CACAC9" points="442.3,442.7 434.6,443.2 437.3,449.2 421.5,452.4 418.3,449 403.6,455.8 403.3,451.1 395.4,443.2 
		397.2,441.9 394.9,435.8 400.4,429.8 391.2,420.3 393.8,414.2 397,414.8 397,418.2 425.7,417.4 441.5,405.8 458.1,408.2 458.8,414 
		452,418.2 450.9,430 458.6,435.8 	"/>
	<polygon fill="#4C6C9C" points="458.8,406.1 457.3,406.1 440.9,403.4 425.7,415.8 399.4,416.6 398.6,413.2 392,410.8 395.4,408.7 
		388.3,404 385.4,407.4 378.6,402.7 378.8,399.8 370.4,395.3 366.2,386.9 374.9,384.2 376.2,377.6 389.3,355.3 406.7,355.5 
		424.5,345.1 441.7,362.6 447.5,380.5 452.8,387.1 465.7,383.2 464.4,391.3 456.5,394 	"/>
	<polygon fill="#CACAC9" points="459.1,437.4 457.3,437.4 443.8,443.7 444.9,452.7 440.4,459.5 441.2,462.1 448.6,459.8 
		443.3,468.7 455.2,459.2 456.5,451.4 472.8,449.5 473.8,444.5 462.8,443.7 	"/>
	<polygon fill="#4C6C9C" points="382.5,338.7 372,333.4 358.8,338.4 352.8,334.5 345.4,336.3 340.1,328.7 334.9,329 326.4,321.8 
		325.9,327.6 322.5,329 320.9,326.1 323.3,322.4 307.5,313.2 300.6,288.7 304.6,285 303,276.3 304.9,273.1 317.5,268.9 319.6,261.8 
		334.1,259.7 339.6,265 376.4,263.9 387.5,284.2 382,292.1 393.3,316.6 381.7,332.6 	"/>
	<polygon fill="#CACAC9" points="347,263.7 372.3,262.9 371.2,253.2 357,249.3 358.5,255.8 348.6,256.3 348.2,259.4 352.9,260.7 	
		"/>
	<polygon fill="#CACAC9" points="357.8,246.8 358.9,247 373,252.2 374,262.6 378.6,263.2 381.4,267.1 391.7,267.9 397.4,259.1 
		396.7,252.4 403.2,240.5 391.3,233 362.6,234 356.1,239.2 	"/>
	<polygon fill="#CACAC9" points="355.4,237.7 357.2,236.8 362.4,232.1 391.5,231.4 402.8,238.1 412.3,230.3 404.1,212.2 
		381.8,207.7 377.7,209.8 379.4,220.8 374.2,223.6 364.5,214.2 355.9,223.9 	"/>
	<polygon fill="#CACAC9" points="280.1,202.1 291.4,236 292,252.6 300.9,253.4 303.8,241.8 318,237.9 322,207.3 337.5,189.4 
		322,174.7 325.4,143.9 345.4,123.9 343.8,110.2 357,101 349.6,73.1 333,58.6 330.6,69.4 322.8,71.3 305.1,103.1 300.9,120.7 
		303.8,130.7 293.5,133.6 290.1,162.9 292.7,172.3 289.3,189.2 	"/>
	<polygon fill="#CACAC9" points="280.6,198.9 282,198.4 288,188.1 290.6,173.4 287.7,160.8 291.4,131.8 301.4,129.4 298.8,121.5 
		304.1,101.3 320.9,70.5 330.1,68.4 332,56.5 338.5,55.2 348.5,63.1 355.9,61.8 358.8,45.7 367.5,40.7 375.9,46.2 380.9,42.3 
		374.6,37.3 378.3,34.1 362.8,27.6 352.8,40.2 346.4,36 332.2,46.8 323,49.1 318.5,62.6 309.9,61 299.3,70.7 307.7,72.8 
		293.3,102.1 283.5,122.1 243.5,153.6 240.6,196.8 252.7,211 269.6,200.5 276.2,187.3 	"/>
	<polygon fill="#CACAC9" points="359.1,100.7 350.7,72 334.6,58.1 339.1,56.8 349.1,64.4 357.5,62.8 359.9,47 368.3,42.6 
		375.4,48.4 375.7,64.9 384.1,68.6 382.8,83.6 392.2,98.6 400.9,121.8 411.2,132.3 395.9,170 363,183.9 352,175.2 349.9,159.7 
		345.7,145.5 367,112.1 364.1,102.3 	"/>
	<polygon fill="#CACAC9" points="426.5,344 436.9,340.3 449.9,345.8 453.3,352.9 464.1,359.6 461.8,366.7 450.3,381.2 443.6,361.8 	
		"/>
	<polygon fill="#CACAC9" points="465.6,381.2 453.3,385.3 451.8,381.6 462.9,367.8 466.3,358.5 454.4,351.4 450.7,344 437.6,338 
		423.9,343.2 406.7,353.3 387.7,353.7 381,350.7 384,340.3 384,333.2 394.8,316.8 387.7,300.8 399.3,295.2 450.7,291.9 455.1,278.8 
		472.3,269.9 481.2,281.1 497.9,289.6 515.8,283.3 525.9,290 544.8,287.8 550.4,309.4 541.1,324.2 531.1,335 513.6,353.3 524,364.1 
		540,356.3 536.7,362.6 525.1,368.9 510.6,382.7 505,370.4 492.4,373 502.4,359.2 488.3,362.6 480.4,357.4 471.9,357.8 	"/>
	<polygon fill="#CACAC9" points="454.2,276 449.7,290 398.9,292.8 387.6,298.9 383.7,292.2 389.1,284.4 380.7,268.6 393,269.2 
		399.1,260.2 398.5,252.8 405.8,238.8 414.6,230.1 436.3,232.3 438,244.4 458.8,257.4 454,264.9 446.8,261.7 448.1,267.7 	"/>
	<polygon fill="#CACAC9" points="402.9,210.8 381.7,205.9 377.6,208.3 377.6,203.7 373.8,204.3 367.8,193.4 383.4,184.4 
		403.2,184.6 399.4,190.2 395.5,191.8 401.9,203.8 	"/>
	<polygon fill="#CACAC9" points="335.4,214.4 333.3,214.7 330.4,221 332,230 336.4,222.3 	"/>
	<polygon fill="#CACAC9" points="359.1,206.3 360.9,212.6 368.8,203.1 365.4,201.6 	"/>
	<g>
		<polygon fill="#CACAC9" points="362,196.8 362.2,200.2 365.1,199.4 366.2,196.3 		"/>
		<polygon fill="#4C6C9C" points="481.5,3.7 471.7,31.8 474.1,42 466.5,46.8 458.6,39.7 463.3,31.2 457,26.5 444.1,32.8 452.3,46.2 
			458.3,47.6 463.6,60.7 452,59.7 445.1,79.4 456.2,90.2 431.5,89.1 431.5,95 444.4,99.1 444.6,106.5 424.9,105 415.7,85.5 
			401.4,74.7 422.8,78.1 441.2,73.3 443.8,63.4 439.1,51.5 386.2,39.7 377,48.4 377.2,63.9 385.7,67.3 384.1,83.6 393.3,96.3 
			401.4,120.2 413.3,132.3 399.4,168.1 412,173.7 403.3,178.4 400.4,182.6 405.4,184.4 401.2,192.1 402,199.7 406.2,204.5 
			403,205.2 404.4,209.5 414,228.4 437.3,229.9 439.7,244 461.3,257.4 454.7,266.9 449.6,264.9 449.7,268 455.7,276.8 472.6,268 
			482.7,279.6 498.7,287.4 515.4,281.1 527,288.1 545.6,285.5 552.7,308.2 543.7,323.5 552.7,321.3 541.9,332.1 548.6,340.6 
			543,357.8 576.3,368.4 576.9,368.3 576.9,45.4 576.9,3.7 556.1,3.7 491,3.7 490,3.7 488.9,3.7 		"/>
		<polygon fill="#4C6C9C" points="459.4,8.3 461.7,18.6 464.6,19.1 468.1,14.4 468.6,8.1 		"/>
		<polygon fill="#CACAC9" points="532.6,414.8 518.6,418.5 500.4,436.1 495.4,442.1 474.9,444.5 473.8,449.5 484.9,450.8 
			473.6,454.8 475.4,458.2 454.9,461.3 444.1,470.1 442.8,480.8 453.6,477.7 455.4,495.6 462.8,504 483.3,517.2 503.6,523.7 
			511.8,516.6 511.8,507.9 531.5,507.4 534.7,512.9 554.1,509.5 563.1,491.6 573.1,494.3 576.9,485.3 576.9,414.8 		"/>
	</g>
	<polygon fill="#CACAC9" points="280.5,458.7 280.5,458.3 280.8,457.9 281.3,457.9 281.5,458.5 	"/>
	<polygon fill="#CACAC9" points="274.7,422.2 275,423.5 276,423.2 276.2,421.9 	"/>
	<polygon fill="#CACAC9" points="220.5,421.1 220.8,421.5 222.8,420.4 222.3,420 	"/>
	<polygon fill="#CACAC9" points="253.3,368.9 253.1,371 255.3,372.6 254,369 	"/>
	<polygon fill="#CACAC9" points="295.1,559.4 296.7,558.9 298.6,559.8 300.7,560.3 302.9,562.6 301.7,563.7 299.1,561.9 
		298.9,560.3 298,559.6 296.9,560.4 	"/>
</g>
<text transform="matrix(1 0 0 1 245.9966 301.8404)" fill="#FFFFFF" font-family="'OpenSans'" font-size="8.1965">Германия</text>
<text transform="matrix(1 0 0 1 335.5513 313.9498)" fill="#FFFFFF" font-family="'OpenSans'" font-size="8.1965">польша</text>
<text transform="matrix(1 0 0 1 391.3521 368.8981)" fill="#FFFFFF" font-family="'OpenSans'" font-size="8.1965">румыния</text>
<text transform="matrix(1 0 0 1 63.4341 444.3024)" fill="#FFFFFF" font-family="'OpenSans'" font-size="8.1965">Испания</text>
<text transform="matrix(1 0 0 1 162.1558 375.2819)" fill="#FFFFFF" font-family="'OpenSans'" font-size="8.1965">Франция</text>
<path fill="#DFE5EF" d="M443.6,383.1v-6l-6.5-3.1v-3.9l-3.6,2.1l-2.4,1.4v-3.6l-6.5,3.9v0.7c0,0-0.1,0-0.2,0h-3.3
	c-0.2,0-0.4,0.2-0.4,0.4v1.6h-0.2H420v0.6c-1.1,0.4-1.9,1.5-1.9,2.7v3.1h-1v2.1h3.8h3.4h9.3h12v-2.1H443.6z M424.7,383.1h-0.5H424
	V380c0-1.3-0.8-2.3-1.9-2.7v-0.6h-0.4v-1.2h2.9c0.1,0,0.1,0,0.2,0V383.1z M430.2,382.6h-2.1v-2.1h2.1V382.6z M430.2,378.9h-2.1v-2.1
	h2.1V378.9z M433.6,382.6h-2.1v-2.1h2.1V382.6z M433.6,378.9h-2.1v-2.1h2.1V378.9z M436.6,382.6h-2.1v-2.1h2.1V382.6z M436.6,378.9
	h-2.1v-2.1h2.1V378.9z M439.7,382.6h-2.1v-2.1h2.1V382.6z"/>
<path fill="#DFE5EF" d="M435.1,402.1v-6l-6.5-3.1v-3.9l-3.6,2.1l-2.4,1.4v-3.6l-6.5,3.9v0.7c0,0-0.1,0-0.2,0h-3.3
	c-0.2,0-0.4,0.2-0.4,0.4v1.6h-0.2h-0.7v0.6c-1.1,0.4-1.9,1.5-1.9,2.7v3.1h-1v2.1h3.8h3.4h9.3h12v-2.1H435.1z M416.2,402.1h-0.5h-0.3
	V399c0-1.3-0.8-2.3-1.9-2.7v-0.6h-0.4v-1.2h2.9c0.1,0,0.1,0,0.2,0V402.1z M421.7,401.6h-2.1v-2.1h2.1V401.6z M421.7,397.9h-2.1v-2.1
	h2.1V397.9z M425.1,401.6H423v-2.1h2.1V401.6z M425.1,397.9H423v-2.1h2.1V397.9z M428.1,401.6h-2.1v-2.1h2.1V401.6z M428.1,397.9
	h-2.1v-2.1h2.1V397.9z M431.2,401.6h-2.1v-2.1h2.1V401.6z"/>
<path fill="#DFE5EF" d="M410.6,390.2v-6l-6.5-3.1v-3.9l-3.6,2.1l-2.4,1.4v-3.6l-6.5,3.9v0.7c0,0-0.1,0-0.2,0h-3.3
	c-0.2,0-0.4,0.2-0.4,0.4v1.6h-0.2H387v0.6c-1.1,0.4-1.9,1.5-1.9,2.7v3.1h-1v2.1h3.8h3.4h9.3h12v-2.1H410.6z M391.7,390.2h-0.5H391
	v-3.1c0-1.3-0.8-2.3-1.9-2.7v-0.6h-0.4v-1.2h2.9c0.1,0,0.1,0,0.2,0V390.2z M397.2,389.7h-2.1v-2.1h2.1V389.7z M397.2,386h-2.1V384
	h2.1V386z M400.6,389.7h-2.1v-2.1h2.1V389.7z M400.6,386h-2.1V384h2.1V386z M403.6,389.7h-2.1v-2.1h2.1V389.7z M403.6,386h-2.1V384
	h2.1V386z M406.7,389.7h-2.1v-2.1h2.1V389.7z"/>
<path fill="#DFE5EF" d="M376.4,287.5v-6l-6.5-3.1v-3.9l-3.6,2.1L364,278v-3.6l-6.5,3.9v0.7c0,0-0.1,0-0.2,0h-3.3
	c-0.2,0-0.4,0.2-0.4,0.4v1.6h-0.2h-0.7v0.6c-1.1,0.4-1.9,1.5-1.9,2.7v3.1h-1v2.1h3.8h3.4h9.3h12v-2.1H376.4z M357.5,287.5H357h-0.3
	v-3.1c0-1.3-0.8-2.3-1.9-2.7V281h-0.4v-1.2h2.9c0.1,0,0.1,0,0.2,0V287.5z M363,286.9h-2.1v-2.1h2.1V286.9z M363,283.3h-2.1v-2.1h2.1
	V283.3z M366.4,286.9h-2.1v-2.1h2.1V286.9z M366.4,283.3h-2.1v-2.1h2.1V283.3z M369.4,286.9h-2.1v-2.1h2.1V286.9z M369.4,283.3h-2.1
	v-2.1h2.1V283.3z M372.4,286.9h-2.1v-2.1h2.1V286.9z"/>
<path fill="#DFE5EF" d="M341.1,295.1v-6l-6.5-3.1V282l-3.6,2.1l-2.4,1.4V282l-6.5,3.9v0.7c0,0-0.1,0-0.2,0h-3.3
	c-0.2,0-0.4,0.2-0.4,0.4v1.6h-0.2h-0.7v0.6c-1.1,0.4-1.9,1.5-1.9,2.7v3.1h-1v2.1h3.8h3.4h9.3h12v-2.1H341.1z M322.2,295.1h-0.5h-0.3
	v-3.1c0-1.3-0.8-2.3-1.9-2.7v-0.6h-0.4v-1.2h2.9c0.1,0,0.1,0,0.2,0V295.1z M327.7,294.5h-2.1v-2.1h2.1V294.5z M327.7,290.9h-2.1
	v-2.1h2.1V290.9z M331.1,294.5H329v-2.1h2.1V294.5z M331.1,290.9H329v-2.1h2.1V290.9z M334.1,294.5H332v-2.1h2.1V294.5z
	 M334.1,290.9H332v-2.1h2.1V290.9z M337.2,294.5h-2.1v-2.1h2.1V294.5z"/>
<path fill="#DFE5EF" d="M285.7,342.9v-6l-6.5-3.1v-3.9l-3.6,2.1l-2.4,1.4v-3.6l-6.5,3.9v0.7c0,0-0.1,0-0.2,0h-3.3
	c-0.2,0-0.4,0.2-0.4,0.4v1.6h-0.2h-0.7v0.6c-1.1,0.4-1.9,1.5-1.9,2.7v3.1h-1v2.1h3.8h3.4h9.3h12v-2.1H285.7z M266.8,342.9h-0.5h-0.3
	v-3.1c0-1.3-0.8-2.3-1.9-2.7v-0.6h-0.4v-1.2h2.9c0.1,0,0.1,0,0.2,0V342.9z M272.3,342.4h-2.1v-2.1h2.1V342.4z M272.3,338.7h-2.1
	v-2.1h2.1V338.7z M275.6,342.4h-2.1v-2.1h2.1V342.4z M275.6,338.7h-2.1v-2.1h2.1V338.7z M278.7,342.4h-2.1v-2.1h2.1V342.4z
	 M278.7,338.7h-2.1v-2.1h2.1V338.7z M281.7,342.4h-2.1v-2.1h2.1V342.4z"/>
<path fill="#DFE5EF" d="M264.3,356v-6l-6.5-3.1V343l-3.6,2.1l-2.4,1.4V343l-6.5,3.9v0.7c0,0-0.1,0-0.2,0H242c-0.2,0-0.4,0.2-0.4,0.4
	v1.6h-0.2h-0.7v0.6c-1.1,0.4-1.9,1.5-1.9,2.7v3.1h-1v2.1h3.8h3.4h9.3h12V356H264.3z M245.5,356H245h-0.3v-3.1c0-1.3-0.8-2.3-1.9-2.7
	v-0.6h-0.4v-1.2h2.9c0.1,0,0.1,0,0.2,0V356z M250.9,355.4h-2.1v-2.1h2.1V355.4z M250.9,351.8h-2.1v-2.1h2.1V351.8z M254.3,355.4
	h-2.1v-2.1h2.1V355.4z M254.3,351.8h-2.1v-2.1h2.1V351.8z M257.4,355.4h-2.1v-2.1h2.1V355.4z M257.4,351.8h-2.1v-2.1h2.1V351.8z
	 M260.4,355.4h-2.1v-2.1h2.1V355.4z"/>
<path fill="#DFE5EF" d="M214.9,348.4v-6l-6.5-3.1v-3.9l-3.6,2.1l-2.4,1.4v-3.6l-6.5,3.9v0.7c0,0-0.1,0-0.2,0h-3.3
	c-0.2,0-0.4,0.2-0.4,0.4v1.6H192h-0.7v0.6c-1.1,0.4-1.9,1.5-1.9,2.7v3.1h-1v2.1h3.8h3.4h9.3h12v-2.1H214.9z M196,348.4h-0.5h-0.3
	v-3.1c0-1.3-0.8-2.3-1.9-2.7V342H193v-1.2h2.9c0.1,0,0.1,0,0.2,0V348.4z M201.5,347.9h-2.1v-2.1h2.1V347.9z M201.5,344.2h-2.1v-2.1
	h2.1V344.2z M204.9,347.9h-2.1v-2.1h2.1V347.9z M204.9,344.2h-2.1v-2.1h2.1V344.2z M207.9,347.9h-2.1v-2.1h2.1V347.9z M207.9,344.2
	h-2.1v-2.1h2.1V344.2z M211,347.9h-2.1v-2.1h2.1V347.9z"/>
<path fill="#DFE5EF" d="M140.3,437.1v-6l-6.5-3.1v-3.9l-3.6,2.1l-2.4,1.4v-3.6l-6.5,3.9v0.7c0,0-0.1,0-0.2,0h-3.3
	c-0.2,0-0.4,0.2-0.4,0.4v1.6h-0.2h-0.7v0.6c-1.1,0.4-1.9,1.5-1.9,2.7v3.1h-1v2.1h3.8h3.4h9.3h12v-2.1H140.3z M121.4,437.1h-0.5h-0.3
	v-3.1c0-1.3-0.8-2.3-1.9-2.7v-0.6h-0.4v-1.2h2.9c0.1,0,0.1,0,0.2,0V437.1z M126.9,436.5h-2.1v-2.1h2.1V436.5z M126.9,432.9h-2.1
	v-2.1h2.1V432.9z M130.2,436.5h-2.1v-2.1h2.1V436.5z M130.2,432.9h-2.1v-2.1h2.1V432.9z M133.3,436.5h-2.1v-2.1h2.1V436.5z
	 M133.3,432.9h-2.1v-2.1h2.1V432.9z M136.3,436.5h-2.1v-2.1h2.1V436.5z"/>
<g>
	<path fill="#DFE5EF" d="M254.5,321v2.5h2.1V321h0.2c0,0,0,0,0,0v-0.8c0,0,0,0,0,0h-2.4c0,0-0.1,0-0.1,0v0.8
		C254.3,321,254.3,321,254.5,321L254.5,321z"/>
	<path fill="#DFE5EF" d="M260.2,323.5V321h0.2c0,0,0,0,0,0v-0.8c0,0,0,0,0,0H258c0,0-0.1,0-0.1,0v0.8c0,0,0.1,0,0.1,0h0.1v2.5H260.2
		z"/>
	<path fill="#DFE5EF" d="M248.7,324v-5.4h-9.7v15.2h8.1h1.6h13.5V324H248.7z M243.2,330.1v1.3v1.7h-1.9v-1.7v-1.3v-0.7h1.9V330.1z
		 M243.2,328.6h-1.9v-1.9h1.9V328.6z M243.2,325.8h-1.9v-1.9h1.9V325.8z M243.2,322.7h-1.9v-1.9h1.9V322.7z M246.4,330.1v1.3v1.7
		h-1.9v-1.7v-1.3v-0.7h1.9V330.1z M246.4,328.6h-1.9v-1.9h1.9V328.6z M246.4,325.8h-1.9v-1.9h1.9V325.8z M246.4,322.7h-1.9v-1.9h1.9
		V322.7z M251.2,331.3h-1.9v-1.9h1.9V331.3z M251.2,328.1h-1.9v-1.9h1.9V328.1z M254.3,331.3h-1.9v-1.9h1.9V331.3z M254.3,328.1
		h-1.9v-1.9h1.9V328.1z M257.1,331.3h-1.9v-1.9h1.9V331.3z M257.1,328.1h-1.9v-1.9h1.9V328.1z M259.8,331.3h-1.9v-1.9h1.9V331.3z
		 M259.8,328.1h-1.9v-1.9h1.9V328.1z"/>
	<path fill="#DFE5EF" d="M255,319.4c0.1-1.6,2.8-1.9,2.8-1.9c4.2-0.3,2.8-3.2,2.8-3.2c-0.7,2.4-2.8,1.5-2.8,1.5
		c-2.9-0.3-2.8,1.8-2.8,1.8V319.4z"/>
</g>
<text transform="matrix(1 0 0 1 449.5981 180.2291)" fill="#FFFFFF" font-family="'OpenSans'" font-size="12">россия</text>
<path fill="#DFE5EF" d="M519.4,262v-8.7l-9.4-4.5v-5.6l-5.1,3.1l-3.4,2.1v-5.1l-9.4,5.6v1c-0.1,0-0.1,0-0.2,0h-4.7
	c-0.3,0-0.6,0.3-0.6,0.6v2.4h-0.2h-1v0.8c-1.6,0.6-2.8,2.1-2.8,4v4.5H481v3h5.5h4.9h13.5h17.3v-3H519.4z M492.1,262h-0.7H491v-4.5
	c0-1.8-1.2-3.4-2.8-4v-0.8h-0.5v-1.8h4.2c0.1,0,0.2,0,0.2,0V262z M500,261.2h-3v-3h3V261.2z M500,255.9h-3v-3h3V255.9z M504.9,261.2
	h-3v-3h3V261.2z M504.9,255.9h-3v-3h3V255.9z M509.3,261.2h-3v-3h3V261.2z M509.3,255.9h-3v-3h3V255.9z M513.7,261.2h-3v-3h3V261.2z
	"/>
<path fill="#DFE5EF" d="M498.8,224.5v-8.7l-9.4-4.5v-5.6l-5.1,3.1l-3.4,2.1v-5.1l-9.4,5.6v1c-0.1,0-0.1,0-0.2,0h-4.7
	c-0.3,0-0.6,0.3-0.6,0.6v2.4h-0.2h-1v0.8c-1.6,0.6-2.8,2.1-2.8,4v4.5h-1.5v3h5.5h4.9h13.5h17.3v-3H498.8z M471.5,224.5h-0.7h-0.4
	v-4.5c0-1.8-1.2-3.4-2.8-4v-0.8h-0.5v-1.8h4.2c0.1,0,0.2,0,0.2,0V224.5z M479.4,223.6h-3v-3h3V223.6z M479.4,218.4h-3v-3h3V218.4z
	 M484.3,223.6h-3v-3h3V223.6z M484.3,218.4h-3v-3h3V218.4z M488.7,223.6h-3v-3h3V223.6z M488.7,218.4h-3v-3h3V218.4z M493.1,223.6
	h-3v-3h3V223.6z"/>
</svg>
