<?xml version="1.0" encoding="utf-8"?>
<!-- Generator: Adobe Illustrator 17.1.0, SVG Export Plug-In . SVG Version: 6.00 Build 0)  -->
<!DOCTYPE svg PUBLIC "-//W3C//DTD SVG 1.1//EN" "http://www.w3.org/Graphics/SVG/1.1/DTD/svg11.dtd">
<svg version="1.1" id="Layer_1" xmlns="http://www.w3.org/2000/svg" xmlns:xlink="http://www.w3.org/1999/xlink" x="0px" y="0px"
	 viewBox="0 0 41 26" enable-background="new 0 0 41 26" xml:space="preserve">
<g>
	<rect x="-67.1" y="107.2" width="40.8" height="9"/>
	<rect x="-67.1" y="116.2" fill="#EA2027" width="40.8" height="9"/>
	<rect x="-67.1" y="125.2" fill="#F8EB23" width="40.8" height="8"/>
</g>
<g>
	<rect x="-305.1" y="-14.8" fill="#2D307A" width="40.7" height="25.9"/>
	<path fill-rule="evenodd" clip-rule="evenodd" fill="#FBFCFF" d="M-291.8,5.4C-291.8,5.4-291.9,5.5-291.8,5.4c-0.3,0-0.5,0-0.7,0.1
		c-0.2,0-0.4,0-0.6,0.1c-0.2,0-0.3,0-0.5,0c0,0-0.1,0-0.1,0c0,0,0,0,0,0c0,0.1,0,0.2,0.1,0.4c0,0.2,0,0.3,0.1,0.5
		c0,0.2,0.1,0.4,0.1,0.6c0,0.1,0,0.2,0,0.3c0,0,0,0,0,0c0,0-0.1-0.1-0.1-0.1c0,0-0.1-0.1-0.1-0.1c0,0-0.1-0.1-0.1-0.1
		c0,0-0.1-0.1-0.1-0.1c0,0-0.1-0.1-0.1-0.1c0,0-0.1-0.1-0.1-0.1c0,0-0.1-0.1-0.1-0.1c0,0-0.1-0.1-0.1-0.1c0,0-0.1-0.1-0.1-0.1
		c0,0-0.1-0.1-0.1-0.1c0,0-0.1-0.1-0.1-0.1c0,0-0.1-0.1-0.1-0.1c0,0-0.1-0.1-0.1-0.1c0,0-0.1-0.1-0.1-0.1c0,0-0.1-0.1-0.1-0.1
		c0,0-0.1-0.1-0.1-0.1c-0.1,0-0.1,0.1-0.1,0.1c0,0-0.1,0.1-0.1,0.1c0,0-0.1,0.1-0.1,0.1c0,0-0.1,0.1-0.1,0.1c0,0-0.1,0.1-0.1,0.1
		c0,0-0.1,0.1-0.1,0.1c0,0-0.1,0.1-0.1,0.1c0,0-0.1,0.1-0.1,0.1c0,0-0.1,0.1-0.1,0.1c0,0-0.1,0.1-0.1,0.1c0,0,0,0,0-0.1
		c0-0.3,0.1-0.7,0.1-1c0-0.2,0.1-0.5,0.1-0.7c0,0,0,0,0,0c0-0.1,0-0.1-0.1-0.1c-0.1,0-0.2,0-0.2,0c-0.3,0-0.6,0-0.9-0.1
		c-0.2,0-0.5,0-0.7-0.1c0,0-0.1,0-0.1,0c0,0,0,0,0.1,0c0.3-0.2,0.7-0.4,1-0.6c0.2-0.1,0.4-0.2,0.6-0.3c0,0,0,0,0.1,0c0,0,0,0,0-0.1
		c-0.3-0.4-0.6-0.8-0.9-1.3c-0.1-0.1-0.1-0.1-0.2-0.2c0,0,0,0,0,0c0,0,0.1,0,0.1,0c0.5,0.2,1,0.3,1.4,0.5c0.1,0,0.2,0.1,0.3,0.1
		c0,0,0,0,0,0c0-0.1,0.1-0.2,0.1-0.3c0.2-0.5,0.3-0.9,0.5-1.4c0,0,0-0.1,0-0.1c0.2,0.6,0.4,1.2,0.6,1.8c0,0,0.1,0,0.1,0
		c0.6-0.2,1.1-0.4,1.7-0.6c0,0,0.1,0,0.1,0c-0.1,0.1-0.1,0.2-0.2,0.3c-0.1,0.1-0.1,0.2-0.2,0.3c-0.1,0.1-0.1,0.2-0.2,0.3
		c-0.1,0.1-0.1,0.2-0.2,0.3c-0.1,0.1-0.1,0.2-0.2,0.3c-0.1,0.1-0.1,0.2-0.2,0.3c0.1,0.1,0.2,0.1,0.3,0.2c0.1,0.1,0.2,0.1,0.3,0.2
		c0.1,0.1,0.2,0.1,0.3,0.2c0.1,0.1,0.2,0.1,0.3,0.2c0.1,0.1,0.2,0.1,0.3,0.2C-292,5.3-291.9,5.4-291.8,5.4
		C-291.8,5.4-291.8,5.4-291.8,5.4z"/>
	<path fill-rule="evenodd" clip-rule="evenodd" fill="#F9FAFC" d="M-274.9-11c0-0.1,0.1-0.2,0.1-0.3c0-0.1,0.1-0.2,0.1-0.3
		c0-0.1,0.1-0.2,0.1-0.3c0,0,0,0.1,0,0.1c0.1,0.2,0.2,0.5,0.2,0.7c0,0,0,0,0,0c0,0,0,0,0,0c0,0,0,0,0.1,0c0.2-0.1,0.5-0.2,0.7-0.3
		c0,0,0,0,0.1,0c0,0,0,0.1-0.1,0.1c-0.1,0.2-0.3,0.4-0.4,0.6c0,0,0,0,0,0.1c0,0,0,0,0,0c0,0,0,0,0.1,0c0.2,0.1,0.5,0.3,0.7,0.4
		c0,0,0,0,0.1,0c0,0,0,0-0.1,0c-0.1,0-0.3,0-0.4,0c-0.1,0-0.3,0-0.4,0c0,0,0,0,0,0.1c0,0,0,0.1,0,0.1c0,0.2,0.1,0.4,0.1,0.6
		c0,0,0,0.1,0,0.1c0,0,0,0,0,0c0,0,0,0,0,0c0,0,0,0,0,0c0,0,0,0,0,0c-0.2-0.2-0.4-0.4-0.6-0.6c0,0,0,0,0,0c0,0,0,0,0,0
		c0,0,0,0-0.1,0.1c-0.2,0.2-0.4,0.4-0.6,0.6c0,0,0,0,0,0c0,0,0,0,0,0c0-0.1,0-0.3,0.1-0.4c0-0.1,0-0.3,0.1-0.4c0,0,0,0,0,0
		c0,0,0,0,0,0c0,0,0,0,0,0c-0.3,0-0.5,0-0.8-0.1c0,0-0.1,0-0.1,0c0.1-0.1,0.1-0.1,0.2-0.1c0.1,0,0.1-0.1,0.2-0.1
		c0.1,0,0.1-0.1,0.2-0.1c0.1,0,0.1-0.1,0.2-0.1c0,0-0.1-0.1-0.1-0.1c0,0-0.1-0.1-0.1-0.1c0,0-0.1-0.1-0.1-0.1c0,0,0-0.1-0.1-0.1
		c0,0-0.1-0.1-0.1-0.1c0,0-0.1-0.1-0.1-0.1c0,0,0-0.1-0.1-0.1c0,0,0.1,0,0.1,0C-275.5-11.2-275.2-11.1-274.9-11
		C-275-11-274.9-11-274.9-11z"/>
	<path fill-rule="evenodd" clip-rule="evenodd" fill="#F9FAFC" d="M-276.1,7.2c0.3-0.2,0.5-0.3,0.8-0.5c0-0.1-0.1-0.1-0.1-0.2
		c0-0.1-0.1-0.1-0.1-0.2c0-0.1-0.1-0.1-0.1-0.2c0-0.1-0.1-0.1-0.1-0.2c0,0,0.1,0,0.1,0c0.2,0.1,0.5,0.2,0.7,0.3
		c0.1,0,0.1,0.1,0.1-0.1c0.1-0.2,0.2-0.5,0.3-0.7c0,0,0,0,0,0c0,0.1,0.1,0.2,0.1,0.3c0.1,0.2,0.1,0.4,0.2,0.5c0,0,0,0,0,0.1
		c0,0,0,0,0,0c0,0,0.1,0,0.1,0c0.2-0.1,0.5-0.2,0.7-0.3c0,0,0,0,0.1,0c0,0,0,0,0,0.1c-0.1,0.2-0.3,0.4-0.4,0.6c0,0.1-0.1,0.1,0,0.1
		c0.2,0.1,0.5,0.3,0.7,0.4c0,0,0,0,0.1,0c0,0-0.1,0-0.1,0c-0.2,0-0.4,0-0.7,0.1c-0.1,0-0.1,0-0.2,0c0,0,0,0,0,0c0,0.1,0,0.2,0,0.3
		c0,0.2,0.1,0.4,0.1,0.5c0,0,0,0.1,0,0.1c0,0,0,0,0,0c-0.2-0.2-0.4-0.4-0.6-0.6c0,0,0,0-0.1-0.1c-0.1,0.1-0.1,0.1-0.2,0.2
		c-0.1,0.1-0.1,0.1-0.2,0.2c-0.1,0.1-0.1,0.1-0.2,0.2c-0.1,0.1-0.1,0.1-0.2,0.2c0,0,0,0,0,0c0-0.1,0-0.3,0.1-0.4
		c0-0.1,0-0.3,0.1-0.4c0,0,0,0,0,0c0,0,0,0,0,0c-0.1,0-0.1,0-0.2,0C-275.6,7.3-275.8,7.2-276.1,7.2C-276,7.2-276.1,7.2-276.1,7.2
		C-276.1,7.2-276.1,7.2-276.1,7.2z"/>
	<path fill-rule="evenodd" clip-rule="evenodd" fill="#F9F9FB" d="M-269.5-4.7c0,0.3,0.1,0.6,0.1,0.9c0,0,0,0,0,0
		c-0.2-0.2-0.4-0.4-0.6-0.6c0,0,0,0-0.1-0.1c0,0,0,0-0.1,0.1c-0.2,0.2-0.4,0.4-0.5,0.6c0,0,0,0-0.1,0.1c0-0.1,0-0.2,0-0.3
		c0-0.2,0.1-0.4,0.1-0.6c0,0,0,0,0,0c0,0,0,0,0,0c-0.1,0-0.2,0-0.3,0c-0.2,0-0.4,0-0.6-0.1c0,0,0,0,0,0c0.1,0,0.1-0.1,0.2-0.1
		c0.1,0,0.1-0.1,0.2-0.1c0.1,0,0.1-0.1,0.2-0.1c0.1,0,0.1-0.1,0.2-0.1c0,0,0,0,0-0.1c-0.1-0.2-0.3-0.4-0.4-0.6c0,0,0,0,0-0.1
		c0.1,0,0.2,0.1,0.3,0.1c0.1,0,0.2,0.1,0.3,0.1c0.1,0,0.2,0.1,0.3,0.1c0-0.1,0.1-0.2,0.1-0.3c0-0.1,0.1-0.2,0.1-0.3
		c0-0.1,0.1-0.2,0.1-0.3c0,0,0,0,0,0c0.1,0.3,0.2,0.5,0.3,0.8c0,0,0,0,0,0.1c0,0,0,0,0,0c0,0,0,0,0.1,0c0.3-0.1,0.5-0.2,0.8-0.3
		c0,0,0,0,0.1,0c0,0.1-0.1,0.1-0.1,0.2c0,0.1-0.1,0.1-0.1,0.2c0,0.1-0.1,0.1-0.1,0.2c0,0.1-0.1,0.1-0.1,0.2c0,0,0,0,0.1,0
		c0.2,0.1,0.5,0.3,0.7,0.4c0,0,0,0,0,0c0,0,0,0,0,0c0,0,0,0,0,0c0,0,0,0,0,0c-0.1,0-0.3,0-0.4,0C-269.2-4.7-269.3-4.7-269.5-4.7
		C-269.5-4.7-269.5-4.7-269.5-4.7z"/>
	<path fill-rule="evenodd" clip-rule="evenodd" fill="#F9F9FB" d="M-280.9-4.3c0.2,0.1,0.4,0.1,0.6,0.2c0.1,0,0.2,0.1,0.3,0.1
		c0,0,0,0,0,0c0-0.1,0.1-0.2,0.1-0.3c0.1-0.2,0.1-0.3,0.2-0.5c0,0,0,0,0,0c0,0,0,0,0,0c0.1,0.3,0.2,0.5,0.3,0.8c0,0,0,0,0,0.1
		c0.2,0,0.3-0.1,0.5-0.2c0.1-0.1,0.3-0.1,0.4-0.2c0,0,0,0,0,0.1c-0.2,0.2-0.3,0.4-0.5,0.7c0,0,0,0,0,0.1c0.1,0.1,0.2,0.1,0.3,0.2
		c0.1,0.1,0.2,0.1,0.3,0.2c0.1,0.1,0.2,0.1,0.3,0.2c0,0,0,0,0,0c-0.2,0-0.4,0-0.7,0.1c-0.1,0-0.2,0-0.2,0c0,0,0,0,0,0
		c0,0.1,0,0.2,0,0.3c0,0.2,0.1,0.4,0.1,0.6c0,0,0,0-0.1,0c-0.2-0.2-0.4-0.4-0.6-0.6c0,0,0,0-0.1-0.1c-0.1,0.1-0.1,0.1-0.2,0.2
		c-0.1,0.1-0.1,0.2-0.2,0.2c-0.1,0.1-0.1,0.1-0.2,0.2c0,0,0,0,0,0c0-0.3,0.1-0.5,0.1-0.8c0-0.1,0-0.1-0.1-0.1c-0.2,0-0.4,0-0.6-0.1
		c-0.1,0-0.1,0-0.2,0c0,0,0,0,0,0c0,0,0,0,0,0c0,0,0,0,0.1,0c0.2-0.1,0.5-0.3,0.7-0.4c0,0,0,0,0.1,0c0,0,0,0,0-0.1
		C-280.5-3.8-280.7-4-280.9-4.3C-280.8-4.2-280.9-4.3-280.9-4.3C-280.9-4.3-280.9-4.3-280.9-4.3z"/>
	<path fill-rule="evenodd" clip-rule="evenodd" fill="#F6F8FB" d="M-272,0C-272.1,0-272.1,0-272,0c-0.2-0.1-0.3-0.2-0.5-0.3
		c0,0,0,0,0,0c0,0,0,0,0,0c0,0,0,0,0,0c-0.1,0.1-0.3,0.2-0.4,0.2c0,0,0,0-0.1,0c0,0,0,0,0,0c0-0.1,0.1-0.3,0.1-0.4c0,0,0,0,0-0.1
		c0,0,0,0,0,0c0,0,0,0,0,0c-0.1-0.1-0.2-0.2-0.3-0.3c0,0,0,0,0,0c0.1,0,0.1,0,0.2,0c0.1,0,0.3,0,0.4,0c0.1,0,0.1,0,0.1-0.1
		c0.1-0.1,0.1-0.3,0.2-0.4c0,0,0-0.1,0-0.1c0,0,0,0,0,0.1c0.1,0.1,0.1,0.3,0.2,0.4c0,0.1,0,0.1,0.1,0.1c0.1,0,0.2,0,0.4,0
		c0.1,0,0.1,0,0.2,0c0,0,0,0,0,0c-0.1,0.1-0.2,0.2-0.4,0.3c0,0,0,0,0,0c0,0,0,0,0,0c0,0,0,0,0,0.1C-272.1-0.3-272.1-0.2-272,0
		C-272,0-272,0-272,0z"/>
	<path fill-rule="evenodd" clip-rule="evenodd" fill="#9AB0D4" d="M-280.9-4.3C-280.9-4.3-280.9-4.3-280.9-4.3
		C-280.9-4.3-280.9-4.3-280.9-4.3C-280.9-4.3-280.9-4.3-280.9-4.3z"/>
	<path fill-rule="evenodd" clip-rule="evenodd" fill="#FFFFFF" d="M-298.4-10.4C-298.3-10.4-298.4-10.5-298.4-10.4
		c-0.3-0.2-0.5-0.4-0.8-0.5c-2-1.3-4-2.6-5.9-3.8c0.8,0,1.5,0,2.3,0c2.1,1.3,4.1,2.7,6.2,4c0-1.3,0-2.7,0-4c0.2,0,0.4,0,0.7,0
		c0,1.7,0,3.5,0,5.2c-3,0-6.1,0-9.1,0c0-0.3,0-0.6,0-0.9c1.5,0,3,0,4.5,0c0,0-0.1-0.1-0.1-0.1c-1.5-0.9-2.9-1.9-4.4-2.8
		c0-0.2,0-0.3,0-0.5c1.8,1.1,3.5,2.3,5.3,3.4C-299.3-10.4-298.8-10.4-298.4-10.4z"/>
	<path fill-rule="evenodd" clip-rule="evenodd" fill="#CCB5C1" d="M-295.9-14.8C-295.9-14.8-295.9-14.8-295.9-14.8
		c0,1.7,0,3.5,0,5.2c-3,0-6.1,0-9.1,0c0,0,0,0,0,0c3,0,6.1,0,9.1,0C-295.9-11.3-295.9-13.1-295.9-14.8z"/>
	<path fill-rule="evenodd" clip-rule="evenodd" fill="#C9202D" d="M-295.9-14.8c0.7,0,1.3,0,2,0c0,1.7,0,3.5,0,5.2c3,0,6.1,0,9.2,0
		c0,0.9,0,1.7,0,2.6c-3.1,0-6.1,0-9.2,0c0,1.8,0,3.6,0,5.3c-0.7,0-1.3,0-2,0c0-1.8,0-3.5,0-5.3c-3,0-6.1,0-9.2,0c0-0.9,0-1.7,0-2.6
		c3,0,6.1,0,9.1,0C-295.9-11.3-295.9-13.1-295.9-14.8z"/>
	<path fill-rule="evenodd" clip-rule="evenodd" fill="#C9202D" d="M-305.1-14.8c0.1,0.1,0.3,0.2,0.4,0.3c1,0.6,2,1.3,3,1.9
		c1.1,0.7,2.2,1.4,3.3,2.1c0,0,0.1,0,0.1,0.1c0,0,0,0,0,0c-0.3,0-0.7,0-1.1,0c-0.1,0-0.3,0-0.4,0c0,0-0.1-0.1-0.2-0.1
		c-1.7-1.1-3.4-2.2-5.1-3.3C-305.1-14.1-305.1-14.5-305.1-14.8z"/>
	<path fill-rule="evenodd" clip-rule="evenodd" fill="#D65D55" d="M-291.6-10.4c-0.5,0-0.9,0-1.4,0C-292.5-10.4-292-10.4-291.6-10.4
		z"/>
	<path fill-rule="evenodd" clip-rule="evenodd" fill="#2B3277" d="M-284.8-9.6C-284.8-9.6-284.8-9.6-284.8-9.6c0,0.9,0,1.8,0,2.6
		c0,0,0,0,0,0c0,0,0,0,0,0C-284.8-7.8-284.8-8.7-284.8-9.6C-284.8-9.6-284.8-9.6-284.8-9.6z"/>
	<path fill-rule="evenodd" clip-rule="evenodd" fill="#D65D55" d="M-305.1-7C-305.1-7-305.1-7-305.1-7c3,0,6.1,0,9.2,0
		c0,1.8,0,3.5,0,5.3c0,0,0,0,0,0c0-1.8,0-3.5,0-5.3C-299-7-302-6.9-305.1-7z"/>
	<path fill-rule="evenodd" clip-rule="evenodd" fill="#C9202D" d="M-305.1-1.7c1.1-0.7,2.3-1.4,3.4-2.2c0.3-0.2,0.6-0.4,0.9-0.5
		c0.8-0.5,1.5-1,2.3-1.5c0.1,0,0.2-0.1,0.2-0.1c0.1,0,0.2,0,0.4,0c0.4,0,0.8,0,1.1,0c0,0,0,0,0,0c-0.5,0.4-1.1,0.7-1.7,1.1
		c-1.7,1.1-3.5,2.2-5.2,3.3C-304.2-1.6-304.6-1.6-305.1-1.7C-305.1-1.7-305.1-1.7-305.1-1.7z"/>
	<path fill-rule="evenodd" clip-rule="evenodd" fill="#C9202D" d="M-284.8-1.7c-2.3-1.4-4.5-2.9-6.8-4.3c0.3,0,0.7,0,1.1,0
		c0.1,0,0.3,0,0.4,0c0,0,0.1,0.1,0.2,0.1c1.7,1.1,3.4,2.2,5.1,3.3C-284.8-2.4-284.8-2-284.8-1.7z"/>
	<path fill-rule="evenodd" clip-rule="evenodd" fill="#2B3277" d="M-284.8-2.7C-284.8-2.7-284.8-2.7-284.8-2.7c0,0.3,0,0.7,0,1
		c0,0,0,0,0,0c0,0,0,0,0,0C-284.8-2-284.8-2.4-284.8-2.7C-284.8-2.7-284.8-2.7-284.8-2.7z"/>
	<path fill-rule="evenodd" clip-rule="evenodd" fill="#2B3277" d="M-305.1-1.6C-305.1-1.6-305.1-1.6-305.1-1.6c0.5,0,0.9,0,1.4,0
		c0,0,0,0,0,0c0,0,0,0,0,0C-304.1-1.6-304.6-1.6-305.1-1.6z"/>
	<path fill-rule="evenodd" clip-rule="evenodd" fill="#2B3277" d="M-295.9-1.6C-295.9-1.6-295.9-1.6-295.9-1.6
		C-295.9-1.6-295.9-1.6-295.9-1.6c0.7,0,1.4,0,2,0c0,0,0,0,0,0c0,0,0,0,0,0C-294.6-1.6-295.3-1.6-295.9-1.6z"/>
	<path fill-rule="evenodd" clip-rule="evenodd" fill="#D65D55" d="M-305.1-14.8C-305.1-14.8-305.1-14.8-305.1-14.8
		c2,1.3,4,2.5,5.9,3.8c0.3,0.2,0.6,0.3,0.8,0.5c0,0,0,0,0,0c0,0-0.1-0.1-0.1-0.1c-1.1-0.7-2.2-1.4-3.3-2.1c-1-0.6-2-1.3-3-1.9
		C-304.8-14.6-304.9-14.7-305.1-14.8z"/>
	<path fill-rule="evenodd" clip-rule="evenodd" fill="#CCB5C1" d="M-302.8-14.8C-302.8-14.8-302.8-14.8-302.8-14.8
		C-302.8-14.8-302.8-14.8-302.8-14.8c0.1,0,0.1,0.1,0.1,0.1c0.1,0.1,0.2,0.2,0.3,0.2c0,0,0,0,0.1,0c0,0,0,0,0,0c0,0,0,0,0.1,0
		c0.1,0.1,0.2,0.1,0.2,0.2c0,0,0,0,0.1,0c0,0,0,0,0,0c0,0,0,0,0.1,0c0.1,0.1,0.2,0.2,0.3,0.2c0,0,0,0,0.1,0c0.1,0.1,0.2,0.2,0.3,0.2
		c0,0,0,0,0.1,0c0.1,0.1,0.2,0.2,0.3,0.2c0,0,0,0,0.1,0c0.1,0.1,0.2,0.2,0.3,0.2c0,0,0,0,0.1,0c0.1,0.1,0.2,0.2,0.3,0.2
		c0,0,0,0,0.1,0c0,0,0,0,0,0c0,0,0,0,0.1,0c0.1,0.1,0.2,0.1,0.2,0.2c0,0,0,0,0.1,0c0,0,0,0,0,0c0,0,0,0,0.1,0
		c0.1,0.1,0.2,0.2,0.3,0.2c0,0,0,0,0.1,0c0.1,0.1,0.2,0.2,0.3,0.2c0,0,0,0,0.1,0c0.1,0.1,0.2,0.2,0.3,0.2c0,0,0,0,0.1,0
		c0.1,0.1,0.2,0.2,0.3,0.2c0,0,0,0,0.1,0c0.1,0.1,0.2,0.2,0.3,0.2c0,0,0,0,0.1,0c0,0,0,0,0,0c0,0,0,0,0.1,0c0.1,0.1,0.2,0.1,0.2,0.2
		c0,0,0,0,0.1,0c0,0,0,0,0,0c0,0,0,0,0.1,0c0,0,0.1,0,0.1,0.1c0-1.3,0-2.7,0-4c0,0,0,0,0,0c0,1.3,0,2.7,0,4
		C-298.7-12.1-300.8-13.5-302.8-14.8z"/>
	<path fill-rule="evenodd" clip-rule="evenodd" fill="#CCB5C1" d="M-305.1-13.3c1.5,0.9,2.9,1.9,4.4,2.8c0,0,0.1,0.1,0.1,0.1
		c-1.5,0-3,0-4.5,0c0,0,0,0,0,0c1.5,0,3,0,4.5,0c-0.4-0.3-0.7-0.5-1.1-0.7C-302.8-11.9-304-12.6-305.1-13.3
		C-305.1-13.3-305.1-13.3-305.1-13.3z"/>
	<path fill-rule="evenodd" clip-rule="evenodd" fill="#CCB5C1" d="M-305.1-13.8C-305.1-13.8-305.1-13.8-305.1-13.8
		c1.8,1.1,3.5,2.3,5.3,3.4C-301.6-11.5-303.3-12.7-305.1-13.8z"/>
	<path fill-rule="evenodd" clip-rule="evenodd" fill="#CCB5C1" d="M-305.1-14.8c1.9,1.3,4,2.5,5.9,3.8c0.2,0.2,0.5,0.3,0.7,0.5
		c0,0,0.1,0.1,0,0.1c0,0,0,0,0,0c0,0,0,0,0,0c0,0,0,0,0,0c-0.3-0.2-0.6-0.4-0.8-0.5C-301.1-12.2-303.1-13.5-305.1-14.8
		C-305.1-14.8-305.1-14.8-305.1-14.8z"/>
	<path fill-rule="evenodd" clip-rule="evenodd" fill="#293474" d="M-296.7-10.9C-296.7-10.9-296.8-10.9-296.7-10.9
		C-296.8-10.9-296.7-10.9-296.7-10.9z"/>
	<path fill-rule="evenodd" clip-rule="evenodd" fill="#293474" d="M-296.8-10.9C-296.8-11-296.9-11-296.8-10.9
		C-296.9-11-296.8-11-296.8-10.9z"/>
	<path fill-rule="evenodd" clip-rule="evenodd" fill="#293474" d="M-297.1-11.1C-297.2-11.2-297.2-11.2-297.1-11.1
		C-297.2-11.2-297.1-11.2-297.1-11.1z"/>
	<path fill-rule="evenodd" clip-rule="evenodd" fill="#293474" d="M-297.2-11.2C-297.2-11.2-297.3-11.2-297.2-11.2
		C-297.3-11.2-297.2-11.2-297.2-11.2z"/>
	<path fill-rule="evenodd" clip-rule="evenodd" fill="#293474" d="M-297.6-11.5C-297.7-11.5-297.7-11.5-297.6-11.5
		C-297.7-11.5-297.6-11.5-297.6-11.5z"/>
	<path fill-rule="evenodd" clip-rule="evenodd" fill="#293474" d="M-298-11.7C-298.1-11.7-298.1-11.7-298-11.7
		C-298.1-11.8-298.1-11.7-298-11.7z"/>
	<path fill-rule="evenodd" clip-rule="evenodd" fill="#293474" d="M-298.4-12C-298.5-12-298.5-12-298.4-12
		C-298.5-12-298.5-12-298.4-12z"/>
	<path fill-rule="evenodd" clip-rule="evenodd" fill="#293474" d="M-298.9-12.3C-298.9-12.3-298.9-12.3-298.9-12.3
		C-298.9-12.3-298.9-12.3-298.9-12.3z"/>
	<path fill-rule="evenodd" clip-rule="evenodd" fill="#293474" d="M-299.3-12.5C-299.3-12.5-299.3-12.5-299.3-12.5
		C-299.3-12.5-299.3-12.5-299.3-12.5z"/>
	<path fill-rule="evenodd" clip-rule="evenodd" fill="#293474" d="M-299.4-12.6C-299.4-12.6-299.4-12.6-299.4-12.6
		C-299.4-12.6-299.4-12.6-299.4-12.6z"/>
	<path fill-rule="evenodd" clip-rule="evenodd" fill="#293474" d="M-299.7-12.8C-299.7-12.8-299.7-12.8-299.7-12.8
		C-299.7-12.8-299.7-12.8-299.7-12.8z"/>
	<path fill-rule="evenodd" clip-rule="evenodd" fill="#293474" d="M-299.8-12.8C-299.8-12.8-299.8-12.9-299.8-12.8
		C-299.8-12.9-299.8-12.9-299.8-12.8z"/>
	<path fill-rule="evenodd" clip-rule="evenodd" fill="#293474" d="M-300.2-13.1C-300.2-13.1-300.2-13.1-300.2-13.1
		C-300.2-13.1-300.2-13.1-300.2-13.1z"/>
	<path fill-rule="evenodd" clip-rule="evenodd" fill="#293474" d="M-300.6-13.4C-300.6-13.4-300.6-13.4-300.6-13.4
		C-300.6-13.4-300.6-13.4-300.6-13.4z"/>
	<path fill-rule="evenodd" clip-rule="evenodd" fill="#293474" d="M-301-13.6C-301-13.6-301-13.6-301-13.6
		C-301-13.7-301-13.6-301-13.6z"/>
	<path fill-rule="evenodd" clip-rule="evenodd" fill="#293474" d="M-301.4-13.9C-301.4-13.9-301.4-13.9-301.4-13.9
		C-301.4-13.9-301.4-13.9-301.4-13.9z"/>
	<path fill-rule="evenodd" clip-rule="evenodd" fill="#293474" d="M-301.8-14.1C-301.8-14.2-301.8-14.2-301.8-14.1
		C-301.8-14.2-301.8-14.2-301.8-14.1z"/>
	<path fill-rule="evenodd" clip-rule="evenodd" fill="#293474" d="M-301.9-14.2C-301.9-14.2-301.9-14.2-301.9-14.2
		C-301.9-14.2-301.9-14.2-301.9-14.2z"/>
	<path fill-rule="evenodd" clip-rule="evenodd" fill="#293474" d="M-302.2-14.4C-302.2-14.4-302.3-14.4-302.2-14.4
		C-302.3-14.4-302.2-14.4-302.2-14.4z"/>
	<path fill-rule="evenodd" clip-rule="evenodd" fill="#293474" d="M-302.3-14.5C-302.3-14.5-302.3-14.5-302.3-14.5
		C-302.3-14.5-302.3-14.5-302.3-14.5z"/>
	<path fill-rule="evenodd" clip-rule="evenodd" fill="#293474" d="M-302.7-14.7C-302.7-14.7-302.8-14.8-302.7-14.7
		C-302.7-14.8-302.7-14.8-302.7-14.7z"/>
	<path fill-rule="evenodd" clip-rule="evenodd" fill="#D65D55" d="M-295.9-14.8C-295.9-14.8-295.9-14.8-295.9-14.8
		c0,1.7,0,3.5,0,5.2c-3,0-6.1,0-9.1,0c0,0,0,0,0,0c3,0,6.1,0,9.1,0C-295.9-11.3-295.9-13.1-295.9-14.8z"/>
	<path fill-rule="evenodd" clip-rule="evenodd" fill="#D65D55" d="M-293.9-14.8C-293.9-14.8-293.9-14.8-293.9-14.8
		c0,1.7,0,3.4,0,5.1c0,0.1,0,0.2,0,0.2c0,0,0.2,0,0.3,0c2.9,0,5.9,0,8.9,0c0,0,0,0,0,0c-3.1,0-6.1,0-9.2,0
		C-293.9-11.3-293.9-13.1-293.9-14.8z"/>
	<path fill-rule="evenodd" clip-rule="evenodd" fill="#D65D55" d="M-293.9-1.6c0-1.8,0-3.6,0-5.3c3,0,6.1,0,9.2,0c0,0,0,0,0,0
		c-3,0-6.1,0-9.2,0C-293.9-5.2-293.9-3.4-293.9-1.6C-293.9-1.6-293.9-1.6-293.9-1.6z"/>
	<path fill-rule="evenodd" clip-rule="evenodd" fill="#CCB5C1" d="M-293.2-14.8C-293.2-14.8-293.2-14.8-293.2-14.8c0,1.3,0,2.7,0,4
		c2.1-1.3,4.1-2.6,6.2-4c0,0,0,0,0,0c-1.9,1.2-3.9,2.5-5.8,3.7c-0.1,0-0.1,0.1-0.2,0.1c-0.1,0-0.1,0.1-0.2,0.1
		C-293.2-12.1-293.2-13.5-293.2-14.8z"/>
	<path fill-rule="evenodd" clip-rule="evenodd" fill="#FFFFFF" d="M-287-14.8c0.2,0,0.5,0,0.7,0c-2.2,1.4-4.5,2.9-6.7,4.3
		c0,0,0,0,0,0c0,0,0,0,0,0c0,0,0,0,0,0c0,0,0,0,0.1,0c0.5,0,0.9,0,1.4,0c0,0,0,0,0,0c0,0,0,0,0,0c2.3-1.4,4.5-2.9,6.8-4.4
		c0,0.5,0,1,0,1.4c-1.1,0.7-2.3,1.4-3.4,2.2c-0.2,0.1-0.4,0.2-0.6,0.4c-0.2,0.1-0.4,0.2-0.6,0.4c1.5,0,3,0,4.5,0c0,0.3,0,0.6,0,0.9
		c-3,0-6.1,0-9.1,0c0-1.7,0-3.5,0-5.2c0.2,0,0.4,0,0.7,0c0,1.3,0,2.7,0,4c0.1,0,0.1-0.1,0.2-0.1c0.1,0,0.1-0.1,0.2-0.1
		C-290.9-12.3-289-13.6-287-14.8z"/>
	<path fill-rule="evenodd" clip-rule="evenodd" fill="#CCB5C1" d="M-293-10.4C-293-10.4-293-10.4-293-10.4
		C-293.1-10.5-293-10.5-293-10.4C-293-10.5-293-10.4-293-10.4C-293-10.4-293-10.4-293-10.4z"/>
	<path fill-rule="evenodd" clip-rule="evenodd" fill="#CCB5C1" d="M-291.5-10.4c2.3-1.5,4.5-2.9,6.8-4.4c0,0,0,0,0,0
		c0,0.4,0,1,0,1.4c0,0,0,0,0,0.1c0,0-0.1,0.1-0.1,0.1c-1.4,0.9-2.8,1.8-4.2,2.7c0,0,0,0-0.1,0c0,0-0.1,0,0,0c1.5,0,3,0,4.5,0
		c0,0,0,0,0,0c0,0.3,0,0.6,0,0.9c0,0,0,0,0,0c-2.9,0-5.9,0-8.9,0c-0.1,0-0.3,0-0.3,0c0,0,0-0.1,0-0.2c0-1.7,0-3.4,0-5.1c0,0,0,0,0,0
		c0,1.7,0,3.5,0,5.2c3,0,6.1,0,9.1,0c0-0.3,0-0.6,0-0.9c-1.5,0-3,0-4.5,0c0.2-0.1,0.4-0.2,0.6-0.4c0.2-0.1,0.4-0.2,0.6-0.4
		c1.1-0.7,2.3-1.4,3.4-2.2c0-0.5,0-1,0-1.4C-287-13.4-289.3-11.9-291.5-10.4z"/>
	<path fill-rule="evenodd" clip-rule="evenodd" fill="#D65D55" d="M-291.5-10.4c2.3-1.4,4.5-2.9,6.8-4.4c0,0,0,0,0,0
		C-287-13.3-289.3-11.9-291.5-10.4C-291.5-10.4-291.5-10.4-291.5-10.4z"/>
	<path fill-rule="evenodd" clip-rule="evenodd" fill="#D65D55" d="M-293-10.4C-293-10.4-293-10.4-293-10.4
		C-293-10.4-293-10.5-293-10.4c2.2-1.5,4.5-2.9,6.7-4.4c0,0,0,0,0,0c-0.1,0.1-0.3,0.2-0.4,0.3C-288.8-13.2-290.9-11.8-293-10.4
		C-293-10.4-293-10.4-293-10.4C-293-10.4-293-10.4-293-10.4z"/>
	<path fill-rule="evenodd" clip-rule="evenodd" fill="#CCB5C1" d="M-295.9-1.6c-0.2,0-0.5,0-0.7,0c0-1.4,0-2.7,0-4.1c0,0,0,0,0,0
		c-1.1,0.7-2.3,1.5-3.4,2.2c-0.9,0.6-1.8,1.2-2.7,1.8c-0.1,0-0.1,0.1-0.2,0.1c-0.2,0-0.5,0-0.7,0c0,0,0,0,0,0c0,0,0,0,0,0
		c0.1,0,0.2,0,0.4,0c0.1,0,0.3,0,0.4,0c0,0,0.1-0.1,0.2-0.1c0.5-0.3,0.9-0.6,1.4-0.9c1.3-0.8,2.6-1.7,4-2.6c0.3-0.2,0.5-0.3,0.8-0.5
		c0,1.4,0,2.7,0,4.1C-296.4-1.6-296.2-1.6-295.9-1.6c0-1.8,0-3.5,0-5.3c-3,0-6.1,0-9.1,0c0,0,0,0,0,0c3,0,6.1,0,9.1,0
		C-295.9-5.2-295.9-3.4-295.9-1.6C-295.9-1.6-295.9-1.6-295.9-1.6z"/>
	<path fill-rule="evenodd" clip-rule="evenodd" fill="#CCB5C1" d="M-291.5-6.1C-291.5-6.1-291.5-6.1-291.5-6.1
		C-291.5-6.1-291.5-6.1-291.5-6.1c0.4,0,0.7,0,1.1,0c0.1,0,0.3,0,0.4,0c0,0,0.1,0.1,0.2,0.1c1.7,1.1,3.4,2.2,5.1,3.3
		c0-0.1,0-0.1,0-0.2c0-0.1,0-0.2,0-0.2c0-0.1-0.2-0.2-0.3-0.2c-1.2-0.8-2.4-1.6-3.7-2.4c-0.1-0.1-0.3-0.2-0.4-0.3
		c0,0-0.1-0.1-0.1-0.1c1.5,0,3,0,4.5,0c0-0.3,0-0.6,0-0.9c-3,0-6.1,0-9.1,0c0,1.8,0,3.5,0,5.3c0.2,0,0.4,0,0.7,0c0-1.3,0-2.7,0-4.1
		c0.8,0.5,1.6,1,2.4,1.5c1.2,0.8,2.5,1.6,3.8,2.4c0.1,0,0.2,0.1,0.2,0.1c0.1,0,0.2,0,0.3,0c0.6,0,1.3,0,1.9,0c0-0.1-0.1-0.1-0.1-0.1
		c-0.3-0.2-0.5-0.3-0.8-0.5c-0.1-0.1-0.2-0.1-0.3-0.2c0.4,0.3,0.8,0.5,1.3,0.8c0,0,0,0,0,0c0,0,0,0,0,0.1c0,0,0,0,0,0
		c-0.5,0-1.1,0-1.6,0c-0.2,0-0.4,0-0.5,0c-0.1,0-0.1-0.1-0.2-0.1c-0.5-0.3-0.9-0.6-1.4-0.9c-1.6-1-3.1-2-4.7-3c0,0,0,0-0.1,0
		c0,0,0,0,0,0c0,0,0,0.2,0,0.3c0,1.3,0,2.5,0,3.8c-0.2,0-0.4,0-0.7,0c0,0,0,0,0,0c0-1.8,0-3.6,0-5.3c3,0,6.1,0,9.2,0c0,0,0,0,0,0
		c0,0.3,0,0.6,0,0.9c0,0,0,0,0,0c-1.5,0-3,0-4.5,0c0,0,0.1,0.1,0.1,0.1c1.4,0.9,2.9,1.9,4.3,2.8c0,0.1,0,0.3,0,0.5c0,0,0,0,0,0
		c-1.8-1.1-3.5-2.3-5.3-3.4C-290.5-6.1-291-6.1-291.5-6.1C-291.5-6.1-291.5-6.1-291.5-6.1z"/>
	<path fill-rule="evenodd" clip-rule="evenodd" fill="#D65D55" d="M-299.8-10.4c-1.8-1.1-3.5-2.3-5.3-3.4c0,0,0,0,0,0
		c1.7,1.1,3.4,2.2,5.1,3.3C-299.9-10.5-299.8-10.4-299.8-10.4c0.1,0,0.3,0,0.4,0c0.4,0,0.7,0,1.1,0c0,0,0,0,0,0
		C-298.8-10.4-299.3-10.4-299.8-10.4z"/>
	<path fill-rule="evenodd" clip-rule="evenodd" fill="#FFFFFF" d="M-303.7-1.6c0.9-0.6,1.8-1.2,2.7-1.7c1.2-0.8,2.4-1.6,3.7-2.4
		c0.2-0.1,0.4-0.2,0.5-0.3c-0.4,0-0.8,0-1.1,0c-0.1,0-0.3,0-0.4,0c-0.1,0-0.1,0.1-0.2,0.1c-2.2,1.4-4.4,2.8-6.6,4.2c0-0.5,0-1,0-1.5
		c1.5-1,3-1.9,4.5-2.9c-1.5,0-3,0-4.5,0c0-0.3,0-0.6,0-0.9c3,0,6.1,0,9.1,0c0,1.8,0,3.5,0,5.3c-0.2,0-0.5,0-0.7,0c0-1.4,0-2.7,0-4.1
		c-0.3,0.1-0.5,0.3-0.8,0.5c-1.3,0.8-2.6,1.7-4,2.6c-0.5,0.3-0.9,0.6-1.4,0.9c-0.1,0-0.2,0.1-0.2,0.1c-0.1,0-0.2,0-0.4,0
		C-303.5-1.6-303.6-1.6-303.7-1.6z"/>
	<path fill-rule="evenodd" clip-rule="evenodd" fill="#CCB5C1" d="M-301-3.4c1.4-0.9,2.8-1.8,4.2-2.7c-0.5,0-1,0-1.5,0
		c-2.3,1.5-4.5,2.9-6.8,4.4c0,0,0,0,0,0c2.2-1.4,4.4-2.8,6.6-4.2c0.1,0,0.2-0.1,0.2-0.1c0.1,0,0.3,0,0.4,0c0.4,0,0.8,0,1.1,0
		c-0.2,0.1-0.3,0.2-0.5,0.3C-298.5-4.9-299.8-4.2-301-3.4z"/>
	<path fill-rule="evenodd" clip-rule="evenodd" fill="#CCB5C1" d="M-305.1-3.2c1.5-1,3-1.9,4.5-2.9c-1.5,0-3,0-4.5,0c0,0,0,0,0,0
		c1.5,0,3,0,4.5,0C-302.1-5.1-303.6-4.1-305.1-3.2C-305.1-3.2-305.1-3.2-305.1-3.2z"/>
	<path fill-rule="evenodd" clip-rule="evenodd" fill="#FFFFFF" d="M-291.5-6.1C-291.5-6.1-291.5-6.1-291.5-6.1
		c1.8,1.2,3.7,2.4,5.5,3.5c0.1,0.1,0.2,0.1,0.3,0.2c0.3,0.2,0.5,0.3,0.8,0.5c0,0,0.1,0.1,0.1,0.1c-0.6,0-1.2,0-1.9,0
		c-0.1,0-0.2,0-0.3,0c0,0-0.1-0.1-0.2-0.1c-1.3-0.8-2.5-1.6-3.8-2.4c-0.8-0.5-1.6-1-2.4-1.5c0,1.3,0,2.7,0,4.1c-0.2,0-0.4,0-0.7,0
		c0-1.8,0-3.5,0-5.3c3,0,6.1,0,9.1,0c0,0.3,0,0.6,0,0.9c-1.5,0-3,0-4.5,0c0,0,0.1,0.1,0.1,0.1c0.1,0.1,0.3,0.2,0.4,0.3
		c1.2,0.8,2.4,1.6,3.7,2.4c0.1,0,0.3,0.1,0.3,0.2c0,0.1,0,0.2,0,0.2c0,0.1,0,0.2,0,0.2c-1.7-1.1-3.4-2.2-5.1-3.3
		c-0.1,0-0.1-0.1-0.2-0.1c-0.1,0-0.3,0-0.4,0C-290.8-6.1-291.1-6.1-291.5-6.1C-291.5-6.1-291.5-6.1-291.5-6.1
		C-291.5-6.1-291.5-6.1-291.5-6.1z"/>
	<path fill-rule="evenodd" clip-rule="evenodd" fill="#D65D55" d="M-291.5-6.1C-291.5-6.1-291.5-6.1-291.5-6.1c0.5,0,1,0,1.5,0
		c1.8,1.1,3.5,2.3,5.3,3.4c0,0,0,0,0,0c-1.7-1.1-3.4-2.2-5.1-3.3c-0.1,0-0.1-0.1-0.2-0.1c-0.1,0-0.2,0-0.4,0
		C-290.8-6.1-291.2-6.1-291.5-6.1c2.3,1.4,4.5,2.9,6.8,4.3c0,0,0,0,0,0c-0.4-0.3-0.8-0.5-1.3-0.8C-287.8-3.7-289.7-4.9-291.5-6.1
		C-291.5-6.1-291.5-6.1-291.5-6.1z"/>
	<path fill-rule="evenodd" clip-rule="evenodd" fill="#D65D55" d="M-305.1-1.7c2.3-1.5,4.5-2.9,6.8-4.4c0.5,0,1,0,1.5,0
		c-1.4,0.9-2.8,1.8-4.2,2.7c-0.9,0.6-1.8,1.2-2.7,1.7c0,0,0,0,0,0c0,0,0,0,0,0c1.7-1.1,3.4-2.2,5.2-3.3c0.6-0.4,1.1-0.7,1.7-1.1
		c0,0,0,0,0,0c-0.3,0-0.7,0-1.1,0c-0.1,0-0.3,0-0.4,0c0,0-0.1,0.1-0.2,0.1c-0.8,0.5-1.5,1-2.3,1.5c-0.3,0.2-0.6,0.4-0.9,0.5
		C-302.8-3.2-304-2.5-305.1-1.7C-305.1-1.7-305.1-1.7-305.1-1.7z"/>
	<path fill-rule="evenodd" clip-rule="evenodd" fill="#C9202D" d="M-293-10.4C-293-10.4-293-10.4-293-10.4
		C-293-10.4-293-10.4-293-10.4c2-1.4,4.2-2.7,6.3-4.1c0.1-0.1,0.3-0.2,0.4-0.3c0.5,0,1,0,1.5,0c-2.3,1.5-4.5,2.9-6.8,4.4
		c0,0,0,0,0,0C-292-10.4-292.5-10.4-293-10.4z"/>
</g>
<g>
	<polygon fill-rule="evenodd" clip-rule="evenodd" fill="#212963" points="-110.1,-22.2 -93.7,-22.2 -93.7,-36.2 -110.1,-36.2 
		-110.1,-22.2 	"/>
	<polygon fill-rule="evenodd" clip-rule="evenodd" fill="#FFFFFF" points="-69.1,-34.2 -93.7,-34.2 -93.7,-32.2 -69.1,-32.2 
		-69.1,-34.2 	"/>
	<polygon fill-rule="evenodd" clip-rule="evenodd" fill="#FFFFFF" points="-69.1,-30.2 -93.7,-30.2 -93.7,-28.2 -69.1,-28.2 
		-69.1,-30.2 	"/>
	<polygon fill-rule="evenodd" clip-rule="evenodd" fill="#FFFFFF" points="-69.1,-26.2 -93.7,-26.2 -93.7,-24.2 -69.1,-24.2 
		-69.1,-26.2 	"/>
	<polygon fill-rule="evenodd" clip-rule="evenodd" fill="#FFFFFF" points="-69.1,-22.2 -110.1,-22.2 -110.1,-20.2 -69.1,-20.2 
		-69.1,-22.2 	"/>
	<polygon fill-rule="evenodd" clip-rule="evenodd" fill="#FFFFFF" points="-69.1,-18.2 -110.1,-18.2 -110.1,-16.2 -69.1,-16.2 
		-69.1,-18.2 	"/>
	<polygon fill-rule="evenodd" clip-rule="evenodd" fill="#FFFFFF" points="-69.1,-14.2 -110.1,-14.2 -110.1,-12.2 -69.1,-12.2 
		-69.1,-14.2 	"/>
	<path fill-rule="evenodd" clip-rule="evenodd" fill="#D91F26" d="M-69.1-12.2h-41v2h41V-12.2L-69.1-12.2z M-69.1-16.2h-41v2h41
		V-16.2L-69.1-16.2z M-69.1-20.2h-41v2h41V-20.2L-69.1-20.2z M-69.1-24.2h-24.6v2h24.6V-24.2L-69.1-24.2z M-69.1-28.2h-24.6v2h24.6
		V-28.2L-69.1-28.2z M-69.1-32.2h-24.6v2h24.6V-32.2L-69.1-32.2z M-69.1-36.2h-24.6v2h24.6V-36.2L-69.1-36.2z"/>
	<polygon fill-rule="evenodd" clip-rule="evenodd" fill="#FFFFFF" points="-108.9,-35.7 -108.7,-35.2 -108.2,-35.2 -108.6,-34.9 
		-108.5,-34.4 -108.9,-34.7 -109.3,-34.4 -109.1,-34.9 -109.5,-35.2 -109,-35.2 -108.9,-35.7 	"/>
	<polygon fill-rule="evenodd" clip-rule="evenodd" fill="#FFFFFF" points="-103.4,-35.7 -103.2,-35.2 -102.7,-35.2 -103.2,-34.9 
		-103,-34.4 -103.4,-34.7 -103.8,-34.4 -103.7,-34.9 -104.1,-35.2 -103.6,-35.2 -103.4,-35.7 	"/>
	<polygon fill-rule="evenodd" clip-rule="evenodd" fill="#FFFFFF" points="-97.9,-35.7 -97.8,-35.2 -97.3,-35.2 -97.7,-34.9 
		-97.5,-34.4 -97.9,-34.7 -98.4,-34.4 -98.2,-34.9 -98.6,-35.2 -98.1,-35.2 -97.9,-35.7 	"/>
	<polygon fill-rule="evenodd" clip-rule="evenodd" fill="#FFFFFF" points="-106.1,-35.7 -106,-35.2 -105.5,-35.2 -105.9,-34.9 
		-105.7,-34.4 -106.1,-34.7 -106.6,-34.4 -106.4,-34.9 -106.8,-35.2 -106.3,-35.2 -106.1,-35.7 	"/>
	<polygon fill-rule="evenodd" clip-rule="evenodd" fill="#FFFFFF" points="-100.7,-35.7 -100.5,-35.2 -100,-35.2 -100.4,-34.9 
		-100.3,-34.4 -100.7,-34.7 -101.1,-34.4 -100.9,-34.9 -101.4,-35.2 -100.8,-35.2 -100.7,-35.7 	"/>
	<polygon fill-rule="evenodd" clip-rule="evenodd" fill="#FFFFFF" points="-95.2,-35.7 -95.1,-35.2 -94.5,-35.2 -95,-34.9 
		-94.8,-34.4 -95.2,-34.7 -95.6,-34.4 -95.5,-34.9 -95.9,-35.2 -95.4,-35.2 -95.2,-35.7 	"/>
	<polygon fill-rule="evenodd" clip-rule="evenodd" fill="#FFFFFF" points="-107.5,-34.3 -107.3,-33.8 -106.8,-33.8 -107.2,-33.5 
		-107.1,-33 -107.5,-33.3 -107.9,-33 -107.8,-33.5 -108.2,-33.8 -107.7,-33.8 -107.5,-34.3 	"/>
	<polygon fill-rule="evenodd" clip-rule="evenodd" fill="#FFFFFF" points="-102,-34.3 -101.9,-33.8 -101.4,-33.8 -101.8,-33.5 
		-101.6,-33 -102,-33.3 -102.5,-33 -102.3,-33.5 -102.7,-33.8 -102.2,-33.8 -102,-34.3 	"/>
	<polygon fill-rule="evenodd" clip-rule="evenodd" fill="#FFFFFF" points="-96.6,-34.3 -96.4,-33.8 -95.9,-33.8 -96.3,-33.5 
		-96.2,-33 -96.6,-33.3 -97,-33 -96.8,-33.5 -97.3,-33.8 -96.7,-33.8 -96.6,-34.3 	"/>
	<polygon fill-rule="evenodd" clip-rule="evenodd" fill="#FFFFFF" points="-104.8,-34.3 -104.6,-33.8 -104.1,-33.8 -104.5,-33.5 
		-104.4,-33 -104.8,-33.3 -105.2,-33 -105,-33.5 -105.4,-33.8 -104.9,-33.8 -104.8,-34.3 	"/>
	<polygon fill-rule="evenodd" clip-rule="evenodd" fill="#FFFFFF" points="-99.3,-34.3 -99.2,-33.8 -98.6,-33.8 -99.1,-33.5 
		-98.9,-33 -99.3,-33.3 -99.7,-33 -99.6,-33.5 -100,-33.8 -99.5,-33.8 -99.3,-34.3 	"/>
	<polygon fill-rule="evenodd" clip-rule="evenodd" fill="#FFFFFF" points="-108.9,-32.9 -108.7,-32.4 -108.2,-32.4 -108.6,-32.1 
		-108.5,-31.6 -108.9,-31.9 -109.3,-31.6 -109.1,-32.1 -109.5,-32.4 -109,-32.4 -108.9,-32.9 	"/>
	<polygon fill-rule="evenodd" clip-rule="evenodd" fill="#FFFFFF" points="-103.4,-32.9 -103.2,-32.4 -102.7,-32.4 -103.2,-32.1 
		-103,-31.6 -103.4,-31.9 -103.8,-31.6 -103.7,-32.1 -104.1,-32.4 -103.6,-32.4 -103.4,-32.9 	"/>
	<polygon fill-rule="evenodd" clip-rule="evenodd" fill="#FFFFFF" points="-97.9,-32.9 -97.8,-32.4 -97.3,-32.4 -97.7,-32.1 
		-97.5,-31.6 -97.9,-31.9 -98.4,-31.6 -98.2,-32.1 -98.6,-32.4 -98.1,-32.4 -97.9,-32.9 	"/>
	<polygon fill-rule="evenodd" clip-rule="evenodd" fill="#FFFFFF" points="-106.1,-32.9 -106,-32.4 -105.5,-32.4 -105.9,-32.1 
		-105.7,-31.6 -106.1,-31.9 -106.6,-31.6 -106.4,-32.1 -106.8,-32.4 -106.3,-32.4 -106.1,-32.9 	"/>
	<polygon fill-rule="evenodd" clip-rule="evenodd" fill="#FFFFFF" points="-100.7,-32.9 -100.5,-32.4 -100,-32.4 -100.4,-32.1 
		-100.3,-31.6 -100.7,-31.9 -101.1,-31.6 -100.9,-32.1 -101.4,-32.4 -100.8,-32.4 -100.7,-32.9 	"/>
	<polygon fill-rule="evenodd" clip-rule="evenodd" fill="#FFFFFF" points="-95.2,-32.9 -95.1,-32.4 -94.5,-32.4 -95,-32.1 
		-94.8,-31.6 -95.2,-31.9 -95.6,-31.6 -95.5,-32.1 -95.9,-32.4 -95.4,-32.4 -95.2,-32.9 	"/>
	<polygon fill-rule="evenodd" clip-rule="evenodd" fill="#FFFFFF" points="-107.5,-31.5 -107.3,-31 -106.8,-31 -107.2,-30.7 
		-107.1,-30.2 -107.5,-30.5 -107.9,-30.2 -107.8,-30.7 -108.2,-31 -107.7,-31 -107.5,-31.5 	"/>
	<polygon fill-rule="evenodd" clip-rule="evenodd" fill="#FFFFFF" points="-102,-31.5 -101.9,-31 -101.4,-31 -101.8,-30.7 
		-101.6,-30.2 -102,-30.5 -102.5,-30.2 -102.3,-30.7 -102.7,-31 -102.2,-31 -102,-31.5 	"/>
	<polygon fill-rule="evenodd" clip-rule="evenodd" fill="#FFFFFF" points="-96.6,-31.5 -96.4,-31 -95.9,-31 -96.3,-30.7 
		-96.2,-30.2 -96.6,-30.5 -97,-30.2 -96.8,-30.7 -97.3,-31 -96.7,-31 -96.6,-31.5 	"/>
	<polygon fill-rule="evenodd" clip-rule="evenodd" fill="#FFFFFF" points="-104.8,-31.5 -104.6,-31 -104.1,-31 -104.5,-30.7 
		-104.4,-30.2 -104.8,-30.5 -105.2,-30.2 -105,-30.7 -105.4,-31 -104.9,-31 -104.8,-31.5 	"/>
	<polygon fill-rule="evenodd" clip-rule="evenodd" fill="#FFFFFF" points="-99.3,-31.5 -99.2,-31 -98.6,-31 -99.1,-30.7 
		-98.9,-30.2 -99.3,-30.5 -99.7,-30.2 -99.6,-30.7 -100,-31 -99.5,-31 -99.3,-31.5 	"/>
	<polygon fill-rule="evenodd" clip-rule="evenodd" fill="#FFFFFF" points="-108.9,-30.1 -108.7,-29.6 -108.2,-29.6 -108.6,-29.3 
		-108.5,-28.8 -108.9,-29.1 -109.3,-28.8 -109.1,-29.3 -109.5,-29.6 -109,-29.6 -108.9,-30.1 	"/>
	<polygon fill-rule="evenodd" clip-rule="evenodd" fill="#FFFFFF" points="-103.4,-30.1 -103.2,-29.6 -102.7,-29.6 -103.2,-29.3 
		-103,-28.8 -103.4,-29.1 -103.8,-28.8 -103.7,-29.3 -104.1,-29.6 -103.6,-29.6 -103.4,-30.1 	"/>
	<polygon fill-rule="evenodd" clip-rule="evenodd" fill="#FFFFFF" points="-97.9,-30.1 -97.8,-29.6 -97.3,-29.6 -97.7,-29.3 
		-97.5,-28.8 -97.9,-29.1 -98.4,-28.8 -98.2,-29.3 -98.6,-29.6 -98.1,-29.6 -97.9,-30.1 	"/>
	<polygon fill-rule="evenodd" clip-rule="evenodd" fill="#FFFFFF" points="-106.1,-30.1 -106,-29.6 -105.5,-29.6 -105.9,-29.3 
		-105.7,-28.8 -106.1,-29.1 -106.6,-28.8 -106.4,-29.3 -106.8,-29.6 -106.3,-29.6 -106.1,-30.1 	"/>
	<polygon fill-rule="evenodd" clip-rule="evenodd" fill="#FFFFFF" points="-100.7,-30.1 -100.5,-29.6 -100,-29.6 -100.4,-29.3 
		-100.3,-28.8 -100.7,-29.1 -101.1,-28.8 -100.9,-29.3 -101.4,-29.6 -100.8,-29.6 -100.7,-30.1 	"/>
	<polygon fill-rule="evenodd" clip-rule="evenodd" fill="#FFFFFF" points="-95.2,-30.1 -95.1,-29.6 -94.5,-29.6 -95,-29.3 
		-94.8,-28.8 -95.2,-29.1 -95.6,-28.8 -95.5,-29.3 -95.9,-29.6 -95.4,-29.6 -95.2,-30.1 	"/>
	<polygon fill-rule="evenodd" clip-rule="evenodd" fill="#FFFFFF" points="-107.5,-28.7 -107.3,-28.2 -106.8,-28.2 -107.2,-27.9 
		-107.1,-27.4 -107.5,-27.7 -107.9,-27.4 -107.8,-27.9 -108.2,-28.2 -107.7,-28.2 -107.5,-28.7 	"/>
	<polygon fill-rule="evenodd" clip-rule="evenodd" fill="#FFFFFF" points="-102,-28.7 -101.9,-28.2 -101.4,-28.2 -101.8,-27.9 
		-101.6,-27.4 -102,-27.7 -102.5,-27.4 -102.3,-27.9 -102.7,-28.2 -102.2,-28.2 -102,-28.7 	"/>
	<polygon fill-rule="evenodd" clip-rule="evenodd" fill="#FFFFFF" points="-96.6,-28.7 -96.4,-28.2 -95.9,-28.2 -96.3,-27.9 
		-96.2,-27.4 -96.6,-27.7 -97,-27.4 -96.8,-27.9 -97.3,-28.2 -96.7,-28.2 -96.6,-28.7 	"/>
	<polygon fill-rule="evenodd" clip-rule="evenodd" fill="#FFFFFF" points="-104.8,-28.7 -104.6,-28.2 -104.1,-28.2 -104.5,-27.9 
		-104.4,-27.4 -104.8,-27.7 -105.2,-27.4 -105,-27.9 -105.4,-28.2 -104.9,-28.2 -104.8,-28.7 	"/>
	<polygon fill-rule="evenodd" clip-rule="evenodd" fill="#FFFFFF" points="-99.3,-28.7 -99.2,-28.2 -98.6,-28.2 -99.1,-27.9 
		-98.9,-27.4 -99.3,-27.7 -99.7,-27.4 -99.6,-27.9 -100,-28.2 -99.5,-28.2 -99.3,-28.7 	"/>
	<polygon fill-rule="evenodd" clip-rule="evenodd" fill="#FFFFFF" points="-108.9,-27.3 -108.7,-26.8 -108.2,-26.8 -108.6,-26.5 
		-108.5,-26 -108.9,-26.3 -109.3,-26 -109.1,-26.5 -109.5,-26.8 -109,-26.8 -108.9,-27.3 	"/>
	<polygon fill-rule="evenodd" clip-rule="evenodd" fill="#FFFFFF" points="-103.4,-27.3 -103.2,-26.8 -102.7,-26.8 -103.2,-26.5 
		-103,-26 -103.4,-26.3 -103.8,-26 -103.7,-26.5 -104.1,-26.8 -103.6,-26.8 -103.4,-27.3 	"/>
	<polygon fill-rule="evenodd" clip-rule="evenodd" fill="#FFFFFF" points="-97.9,-27.3 -97.8,-26.8 -97.3,-26.8 -97.7,-26.5 
		-97.5,-26 -97.9,-26.3 -98.4,-26 -98.2,-26.5 -98.6,-26.8 -98.1,-26.8 -97.9,-27.3 	"/>
	<polygon fill-rule="evenodd" clip-rule="evenodd" fill="#FFFFFF" points="-106.1,-27.3 -106,-26.8 -105.5,-26.8 -105.9,-26.5 
		-105.7,-26 -106.1,-26.3 -106.6,-26 -106.4,-26.5 -106.8,-26.8 -106.3,-26.8 -106.1,-27.3 	"/>
	<polygon fill-rule="evenodd" clip-rule="evenodd" fill="#FFFFFF" points="-100.7,-27.3 -100.5,-26.8 -100,-26.8 -100.4,-26.5 
		-100.3,-26 -100.7,-26.3 -101.1,-26 -100.9,-26.5 -101.4,-26.8 -100.8,-26.8 -100.7,-27.3 	"/>
	<polygon fill-rule="evenodd" clip-rule="evenodd" fill="#FFFFFF" points="-95.2,-27.3 -95.1,-26.8 -94.5,-26.8 -95,-26.5 
		-94.8,-26 -95.2,-26.3 -95.6,-26 -95.5,-26.5 -95.9,-26.8 -95.4,-26.8 -95.2,-27.3 	"/>
	<polygon fill-rule="evenodd" clip-rule="evenodd" fill="#FFFFFF" points="-107.5,-25.9 -107.3,-25.4 -106.8,-25.4 -107.2,-25.1 
		-107.1,-24.6 -107.5,-24.9 -107.9,-24.6 -107.8,-25.1 -108.2,-25.4 -107.7,-25.4 -107.5,-25.9 	"/>
	<polygon fill-rule="evenodd" clip-rule="evenodd" fill="#FFFFFF" points="-102,-25.9 -101.9,-25.4 -101.4,-25.4 -101.8,-25.1 
		-101.6,-24.6 -102,-24.9 -102.5,-24.6 -102.3,-25.1 -102.7,-25.4 -102.2,-25.4 -102,-25.9 	"/>
	<polygon fill-rule="evenodd" clip-rule="evenodd" fill="#FFFFFF" points="-96.6,-25.9 -96.4,-25.4 -95.9,-25.4 -96.3,-25.1 
		-96.2,-24.6 -96.6,-24.9 -97,-24.6 -96.8,-25.1 -97.3,-25.4 -96.7,-25.4 -96.6,-25.9 	"/>
	<polygon fill-rule="evenodd" clip-rule="evenodd" fill="#FFFFFF" points="-104.8,-25.9 -104.6,-25.4 -104.1,-25.4 -104.5,-25.1 
		-104.4,-24.6 -104.8,-24.9 -105.2,-24.6 -105,-25.1 -105.4,-25.4 -104.9,-25.4 -104.8,-25.9 	"/>
	<polygon fill-rule="evenodd" clip-rule="evenodd" fill="#FFFFFF" points="-99.3,-25.9 -99.2,-25.4 -98.6,-25.4 -99.1,-25.1 
		-98.9,-24.6 -99.3,-24.9 -99.7,-24.6 -99.6,-25.1 -100,-25.4 -99.5,-25.4 -99.3,-25.9 	"/>
	<polygon fill-rule="evenodd" clip-rule="evenodd" fill="#FFFFFF" points="-108.9,-24.5 -108.7,-24 -108.2,-24 -108.6,-23.7 
		-108.5,-23.2 -108.9,-23.5 -109.3,-23.2 -109.1,-23.7 -109.5,-24 -109,-24 -108.9,-24.5 	"/>
	<polygon fill-rule="evenodd" clip-rule="evenodd" fill="#FFFFFF" points="-103.4,-24.5 -103.2,-24 -102.7,-24 -103.2,-23.7 
		-103,-23.2 -103.4,-23.5 -103.8,-23.2 -103.7,-23.7 -104.1,-24 -103.6,-24 -103.4,-24.5 	"/>
	<polygon fill-rule="evenodd" clip-rule="evenodd" fill="#FFFFFF" points="-97.9,-24.5 -97.8,-24 -97.3,-24 -97.7,-23.7 
		-97.5,-23.2 -97.9,-23.5 -98.4,-23.2 -98.2,-23.7 -98.6,-24 -98.1,-24 -97.9,-24.5 	"/>
	<polygon fill-rule="evenodd" clip-rule="evenodd" fill="#FFFFFF" points="-106.1,-24.5 -106,-24 -105.5,-24 -105.9,-23.7 
		-105.7,-23.2 -106.1,-23.5 -106.6,-23.2 -106.4,-23.7 -106.8,-24 -106.3,-24 -106.1,-24.5 	"/>
	<polygon fill-rule="evenodd" clip-rule="evenodd" fill="#FFFFFF" points="-100.7,-24.5 -100.5,-24 -100,-24 -100.4,-23.7 
		-100.3,-23.2 -100.7,-23.5 -101.1,-23.2 -100.9,-23.7 -101.4,-24 -100.8,-24 -100.7,-24.5 	"/>
	<polygon fill-rule="evenodd" clip-rule="evenodd" fill="#FFFFFF" points="-95.2,-24.5 -95.1,-24 -94.5,-24 -95,-23.7 -94.8,-23.2 
		-95.2,-23.5 -95.6,-23.2 -95.5,-23.7 -95.9,-24 -95.4,-24 -95.2,-24.5 	"/>
</g>
<g>
	<rect x="-110.1" y="-2.6" fill="#FFFFFF" width="41" height="26"/>
	<rect x="-110.1" y="-2.6" fill="#0B57A4" width="13.7" height="26"/>
	<rect x="-82.8" y="-2.6" fill="#ED4037" width="13.7" height="26"/>
</g>
<g>
	<rect x="-53.6" y="-33.6" fill="#FFC30D" width="41" height="26"/>
	<rect x="-53.6" y="-33.6" fill="#C62027" width="41" height="7"/>
	<rect x="-53.6" y="-14.6" fill="#C62027" width="41" height="7"/>
</g>
<g>
	<rect x="-47.6" y="-5.6" fill="#FCD014" width="41" height="26"/>
	<rect x="-47.6" y="-5.6" fill="#012B7F" width="13.7" height="26"/>
	<rect x="-20.3" y="-5.6" fill="#CD1226" width="13.7" height="26"/>
</g>
<g>
	<rect x="5" y="-34" fill="#FFFFFF" width="41" height="26"/>
	<rect x="5" y="-21" fill="#D9123B" width="41" height="13"/>
</g>
<g>
	<rect y="0" fill="#FFFFFF" width="41" height="9"/>
	<rect y="9" fill="#204099" width="41" height="9"/>
	<rect y="18" fill="#EC1B24" width="41" height="8"/>
</g>
</svg>
