<?xml version="1.0" encoding="utf-8"?>
<!-- Generator: Adobe Illustrator 17.1.0, SVG Export Plug-In . SVG Version: 6.00 Build 0)  -->
<!DOCTYPE svg PUBLIC "-//W3C//DTD SVG 1.1//EN" "http://www.w3.org/Graphics/SVG/1.1/DTD/svg11.dtd">
<svg version="1.1" id="Layer_1" xmlns="http://www.w3.org/2000/svg" xmlns:xlink="http://www.w3.org/1999/xlink" x="0px" y="0px"
	 viewBox="0 0 41 26" enable-background="new 0 0 41 26" xml:space="preserve">
<g>
	<rect x="43" y="109.8" width="40.8" height="9"/>
	<rect x="43" y="118.8" fill="#EA2027" width="40.8" height="9"/>
	<rect x="43" y="127.8" fill="#F8EB23" width="40.8" height="8"/>
</g>
<g>
	<rect x="-195" y="-12.2" fill="#2D307A" width="40.7" height="25.9"/>
	<path fill-rule="evenodd" clip-rule="evenodd" fill="#FBFCFF" d="M-181.7,8C-181.7,8-181.8,8.1-181.7,8c-0.3,0-0.5,0-0.7,0.1
		c-0.2,0-0.4,0-0.6,0.1c-0.2,0-0.3,0-0.5,0c0,0-0.1,0-0.1,0c0,0,0,0,0,0c0,0.1,0,0.2,0.1,0.4c0,0.2,0,0.3,0.1,0.5
		c0,0.2,0.1,0.4,0.1,0.6c0,0.1,0,0.2,0,0.3c0,0,0,0,0,0c0,0-0.1-0.1-0.1-0.1c0,0-0.1-0.1-0.1-0.1c0,0-0.1-0.1-0.1-0.1
		s-0.1-0.1-0.1-0.1c0,0-0.1-0.1-0.1-0.1c0,0-0.1-0.1-0.1-0.1c0,0-0.1-0.1-0.1-0.1c0,0-0.1-0.1-0.1-0.1c0,0-0.1-0.1-0.1-0.1
		c0,0-0.1-0.1-0.1-0.1c0,0-0.1-0.1-0.1-0.1c0,0-0.1-0.1-0.1-0.1c0,0-0.1-0.1-0.1-0.1c0,0-0.1-0.1-0.1-0.1c0,0-0.1-0.1-0.1-0.1
		c0,0-0.1-0.1-0.1-0.1c-0.1,0-0.1,0.1-0.1,0.1c0,0-0.1,0.1-0.1,0.1c0,0-0.1,0.1-0.1,0.1c0,0-0.1,0.1-0.1,0.1c0,0-0.1,0.1-0.1,0.1
		c0,0-0.1,0.1-0.1,0.1c0,0-0.1,0.1-0.1,0.1c0,0-0.1,0.1-0.1,0.1c0,0-0.1,0.1-0.1,0.1c0,0-0.1,0.1-0.1,0.1c0,0,0,0,0-0.1
		c0-0.3,0.1-0.7,0.1-1c0-0.2,0.1-0.5,0.1-0.7c0,0,0,0,0,0c0-0.1,0-0.1-0.1-0.1c-0.1,0-0.2,0-0.2,0c-0.3,0-0.6,0-0.9-0.1
		c-0.2,0-0.5,0-0.7-0.1c0,0-0.1,0-0.1,0c0,0,0,0,0.1,0c0.3-0.2,0.7-0.4,1-0.6c0.2-0.1,0.4-0.2,0.6-0.3c0,0,0,0,0.1,0c0,0,0,0,0-0.1
		c-0.3-0.4-0.6-0.8-0.9-1.3c-0.1-0.1-0.1-0.1-0.2-0.2c0,0,0,0,0,0c0,0,0.1,0,0.1,0c0.5,0.2,1,0.3,1.4,0.5c0.1,0,0.2,0.1,0.3,0.1
		c0,0,0,0,0,0c0-0.1,0.1-0.2,0.1-0.3c0.2-0.5,0.3-0.9,0.5-1.4c0,0,0-0.1,0-0.1c0.2,0.6,0.4,1.2,0.6,1.8c0,0,0.1,0,0.1,0
		c0.6-0.2,1.1-0.4,1.7-0.6c0,0,0.1,0,0.1,0c-0.1,0.1-0.1,0.2-0.2,0.3c-0.1,0.1-0.1,0.2-0.2,0.3c-0.1,0.1-0.1,0.2-0.2,0.3
		c-0.1,0.1-0.1,0.2-0.2,0.3c-0.1,0.1-0.1,0.2-0.2,0.3c-0.1,0.1-0.1,0.2-0.2,0.3c0.1,0.1,0.2,0.1,0.3,0.2c0.1,0.1,0.2,0.1,0.3,0.2
		c0.1,0.1,0.2,0.1,0.3,0.2c0.1,0.1,0.2,0.1,0.3,0.2c0.1,0.1,0.2,0.1,0.3,0.2C-181.9,7.9-181.8,8-181.7,8C-181.7,8-181.7,8-181.7,8z"
		/>
	<path fill-rule="evenodd" clip-rule="evenodd" fill="#F9FAFC" d="M-164.8-8.4c0-0.1,0.1-0.2,0.1-0.3c0-0.1,0.1-0.2,0.1-0.3
		c0-0.1,0.1-0.2,0.1-0.3c0,0,0,0.1,0,0.1c0.1,0.2,0.2,0.5,0.2,0.7c0,0,0,0,0,0c0,0,0,0,0,0c0,0,0,0,0.1,0c0.2-0.1,0.5-0.2,0.7-0.3
		c0,0,0,0,0.1,0c0,0,0,0.1-0.1,0.1c-0.1,0.2-0.3,0.4-0.4,0.6c0,0,0,0,0,0.1c0,0,0,0,0,0c0,0,0,0,0.1,0c0.2,0.1,0.5,0.3,0.7,0.4
		c0,0,0,0,0.1,0c0,0,0,0-0.1,0c-0.1,0-0.3,0-0.4,0c-0.1,0-0.3,0-0.4,0c0,0,0,0,0,0.1c0,0,0,0.1,0,0.1c0,0.2,0.1,0.4,0.1,0.6
		c0,0,0,0.1,0,0.1c0,0,0,0,0,0c0,0,0,0,0,0c0,0,0,0,0,0c0,0,0,0,0,0c-0.2-0.2-0.4-0.4-0.6-0.6c0,0,0,0,0,0c0,0,0,0,0,0
		c0,0,0,0-0.1,0.1c-0.2,0.2-0.4,0.4-0.6,0.6c0,0,0,0,0,0c0,0,0,0,0,0c0-0.1,0-0.3,0.1-0.4c0-0.1,0-0.3,0.1-0.4c0,0,0,0,0,0
		c0,0,0,0,0,0c0,0,0,0,0,0c-0.3,0-0.5,0-0.8-0.1c0,0-0.1,0-0.1,0c0.1-0.1,0.1-0.1,0.2-0.1c0.1,0,0.1-0.1,0.2-0.1
		c0.1,0,0.1-0.1,0.2-0.1c0.1,0,0.1-0.1,0.2-0.1c0,0-0.1-0.1-0.1-0.1c0,0-0.1-0.1-0.1-0.1c0,0-0.1-0.1-0.1-0.1c0,0,0-0.1-0.1-0.1
		c0,0-0.1-0.1-0.1-0.1c0,0-0.1-0.1-0.1-0.1c0,0,0-0.1-0.1-0.1c0,0,0.1,0,0.1,0C-165.4-8.6-165.1-8.5-164.8-8.4
		C-164.9-8.4-164.8-8.4-164.8-8.4z"/>
	<path fill-rule="evenodd" clip-rule="evenodd" fill="#F9FAFC" d="M-166,9.8c0.3-0.2,0.5-0.3,0.8-0.5c0-0.1-0.1-0.1-0.1-0.2
		c0-0.1-0.1-0.1-0.1-0.2c0-0.1-0.1-0.1-0.1-0.2c0-0.1-0.1-0.1-0.1-0.2c0,0,0,0,0.1,0c0.2,0.1,0.5,0.2,0.7,0.3c0.1,0,0.1,0.1,0.1-0.1
		c0.1-0.2,0.2-0.5,0.3-0.7c0,0,0,0,0,0c0,0.1,0.1,0.2,0.1,0.3c0.1,0.2,0.1,0.4,0.2,0.5c0,0,0,0,0,0.1c0,0,0,0,0,0c0,0,0.1,0,0.1,0
		c0.2-0.1,0.5-0.2,0.7-0.3c0,0,0,0,0.1,0c0,0,0,0,0,0.1c-0.1,0.2-0.3,0.4-0.4,0.6c0,0.1-0.1,0.1,0,0.1c0.2,0.1,0.5,0.3,0.7,0.4
		c0,0,0,0,0.1,0c0,0-0.1,0-0.1,0c-0.2,0-0.4,0-0.7,0.1c-0.1,0-0.1,0-0.2,0c0,0,0,0,0,0c0,0.1,0,0.2,0,0.3c0,0.2,0.1,0.4,0.1,0.5
		c0,0,0,0.1,0,0.1c0,0,0,0,0,0c-0.2-0.2-0.4-0.4-0.6-0.6c0,0,0,0-0.1-0.1c-0.1,0.1-0.1,0.1-0.2,0.2c-0.1,0.1-0.1,0.1-0.2,0.2
		c-0.1,0.1-0.1,0.1-0.2,0.2c-0.1,0.1-0.1,0.1-0.2,0.2c0,0,0,0,0,0c0-0.1,0-0.3,0.1-0.4c0-0.1,0-0.3,0.1-0.4c0,0,0,0,0,0c0,0,0,0,0,0
		c-0.1,0-0.1,0-0.2,0C-165.5,9.9-165.7,9.8-166,9.8C-165.9,9.8-166,9.8-166,9.8C-166,9.8-166,9.8-166,9.8z"/>
	<path fill-rule="evenodd" clip-rule="evenodd" fill="#F9F9FB" d="M-159.4-2.1c0,0.3,0.1,0.6,0.1,0.9c0,0,0,0,0,0
		c-0.2-0.2-0.4-0.4-0.6-0.6c0,0,0,0-0.1-0.1c0,0,0,0-0.1,0.1c-0.2,0.2-0.4,0.4-0.5,0.6c0,0,0,0-0.1,0.1c0-0.1,0-0.2,0-0.3
		c0-0.2,0.1-0.4,0.1-0.6c0,0,0,0,0,0c0,0,0,0,0,0c-0.1,0-0.2,0-0.3,0c-0.2,0-0.4,0-0.6-0.1c0,0,0,0,0,0c0.1,0,0.1-0.1,0.2-0.1
		c0.1,0,0.1-0.1,0.2-0.1c0.1,0,0.1-0.1,0.2-0.1c0.1,0,0.1-0.1,0.2-0.1c0,0,0,0,0-0.1c-0.1-0.2-0.3-0.4-0.4-0.6c0,0,0,0,0-0.1
		c0.1,0,0.2,0.1,0.3,0.1c0.1,0,0.2,0.1,0.3,0.1c0.1,0,0.2,0.1,0.3,0.1c0-0.1,0.1-0.2,0.1-0.3c0-0.1,0.1-0.2,0.1-0.3
		c0-0.1,0.1-0.2,0.1-0.3c0,0,0,0,0,0c0.1,0.3,0.2,0.5,0.3,0.8c0,0,0,0,0,0.1c0,0,0,0,0,0c0,0,0,0,0.1,0c0.3-0.1,0.5-0.2,0.8-0.3
		c0,0,0,0,0.1,0c0,0.1-0.1,0.1-0.1,0.2c0,0.1-0.1,0.1-0.1,0.2c0,0.1-0.1,0.1-0.1,0.2c0,0.1-0.1,0.1-0.1,0.2c0,0,0,0,0.1,0
		c0.2,0.1,0.5,0.3,0.7,0.4c0,0,0,0,0,0c0,0,0,0,0,0c0,0,0,0,0,0c0,0,0,0,0,0c-0.1,0-0.3,0-0.4,0C-159.1-2.1-159.2-2.1-159.4-2.1
		C-159.4-2.1-159.4-2.1-159.4-2.1z"/>
	<path fill-rule="evenodd" clip-rule="evenodd" fill="#F9F9FB" d="M-170.8-1.7c0.2,0.1,0.4,0.1,0.6,0.2c0.1,0,0.2,0.1,0.3,0.1
		c0,0,0,0,0,0c0-0.1,0.1-0.2,0.1-0.3c0.1-0.2,0.1-0.3,0.2-0.5c0,0,0,0,0,0c0,0,0,0,0,0c0.1,0.3,0.2,0.5,0.3,0.8c0,0,0,0,0,0.1
		c0.2,0,0.3-0.1,0.5-0.2c0.1-0.1,0.3-0.1,0.4-0.2c0,0,0,0,0,0.1c-0.2,0.2-0.3,0.4-0.5,0.7c0,0,0,0,0,0.1c0.1,0.1,0.2,0.1,0.3,0.2
		c0.1,0.1,0.2,0.1,0.3,0.2c0.1,0.1,0.2,0.1,0.3,0.2c0,0,0,0,0,0c-0.2,0-0.4,0-0.7,0.1c-0.1,0-0.2,0-0.2,0c0,0,0,0,0,0
		c0,0.1,0,0.2,0,0.3c0,0.2,0.1,0.4,0.1,0.6c0,0,0,0-0.1,0c-0.2-0.2-0.4-0.4-0.6-0.6c0,0,0,0-0.1-0.1c-0.1,0.1-0.1,0.1-0.2,0.2
		c-0.1,0.1-0.1,0.2-0.2,0.2c-0.1,0.1-0.1,0.1-0.2,0.2c0,0,0,0,0,0c0-0.3,0.1-0.5,0.1-0.8c0-0.1,0-0.1-0.1-0.1c-0.2,0-0.4,0-0.6-0.1
		c-0.1,0-0.1,0-0.2,0c0,0,0,0,0,0c0,0,0,0,0,0c0,0,0,0,0.1,0c0.2-0.1,0.5-0.3,0.7-0.4c0,0,0,0,0.1,0c0,0,0,0,0-0.1
		C-170.4-1.2-170.6-1.4-170.8-1.7C-170.8-1.6-170.8-1.7-170.8-1.7C-170.8-1.7-170.8-1.7-170.8-1.7z"/>
	<path fill-rule="evenodd" clip-rule="evenodd" fill="#F6F8FB" d="M-161.9,2.6C-162,2.6-162,2.6-161.9,2.6c-0.2-0.1-0.3-0.2-0.5-0.3
		c0,0,0,0,0,0c0,0,0,0,0,0c0,0,0,0,0,0c-0.1,0.1-0.3,0.2-0.4,0.2c0,0,0,0-0.1,0c0,0,0,0,0,0c0-0.1,0.1-0.3,0.1-0.4c0,0,0,0,0-0.1
		c0,0,0,0,0,0c0,0,0,0,0,0c-0.1-0.1-0.2-0.2-0.3-0.3c0,0,0,0,0,0c0.1,0,0.1,0,0.2,0c0.1,0,0.3,0,0.4,0c0.1,0,0.1,0,0.1-0.1
		c0.1-0.1,0.1-0.3,0.2-0.4c0,0,0-0.1,0-0.1c0,0,0,0,0,0.1c0.1,0.1,0.1,0.3,0.2,0.4c0,0.1,0,0.1,0.1,0.1c0.1,0,0.2,0,0.4,0
		c0.1,0,0.1,0,0.2,0c0,0,0,0,0,0c-0.1,0.1-0.2,0.2-0.4,0.3c0,0,0,0,0,0c0,0,0,0,0,0c0,0,0,0,0,0.1C-162,2.3-162,2.4-161.9,2.6
		C-161.9,2.6-161.9,2.6-161.9,2.6z"/>
	<path fill-rule="evenodd" clip-rule="evenodd" fill="#9AB0D4" d="M-170.8-1.7C-170.8-1.7-170.8-1.7-170.8-1.7
		C-170.8-1.7-170.8-1.7-170.8-1.7C-170.8-1.7-170.8-1.7-170.8-1.7z"/>
	<path fill-rule="evenodd" clip-rule="evenodd" fill="#FFFFFF" d="M-188.3-7.8C-188.2-7.8-188.3-7.9-188.3-7.8
		c-0.3-0.2-0.5-0.4-0.8-0.5c-2-1.3-4-2.6-5.9-3.8c0.8,0,1.5,0,2.3,0c2.1,1.3,4.1,2.7,6.2,4c0-1.3,0-2.7,0-4c0.2,0,0.4,0,0.7,0
		c0,1.7,0,3.5,0,5.2c-3,0-6.1,0-9.1,0c0-0.3,0-0.6,0-0.9c1.5,0,3,0,4.5,0c0,0-0.1-0.1-0.1-0.1c-1.5-0.9-2.9-1.9-4.4-2.8
		c0-0.2,0-0.3,0-0.5c1.8,1.1,3.5,2.3,5.3,3.4C-189.2-7.8-188.7-7.8-188.3-7.8z"/>
	<path fill-rule="evenodd" clip-rule="evenodd" fill="#CCB5C1" d="M-185.9-12.2C-185.8-12.2-185.8-12.2-185.9-12.2
		c0,1.7,0,3.5,0,5.2c-3,0-6.1,0-9.1,0c0,0,0,0,0,0c3,0,6.1,0,9.1,0C-185.9-8.7-185.9-10.5-185.9-12.2z"/>
	<path fill-rule="evenodd" clip-rule="evenodd" fill="#C9202D" d="M-185.8-12.2c0.7,0,1.3,0,2,0c0,1.7,0,3.5,0,5.2c3,0,6.1,0,9.2,0
		c0,0.9,0,1.7,0,2.6c-3.1,0-6.1,0-9.2,0c0,1.8,0,3.6,0,5.3c-0.7,0-1.3,0-2,0c0-1.8,0-3.5,0-5.3c-3,0-6.1,0-9.2,0c0-0.9,0-1.7,0-2.6
		c3,0,6.1,0,9.1,0C-185.8-8.7-185.8-10.5-185.8-12.2z"/>
	<path fill-rule="evenodd" clip-rule="evenodd" fill="#C9202D" d="M-195-12.2c0.1,0.1,0.3,0.2,0.4,0.3c1,0.6,2,1.3,3,1.9
		c1.1,0.7,2.2,1.4,3.3,2.1c0,0,0.1,0,0.1,0.1c0,0,0,0,0,0c-0.3,0-0.7,0-1.1,0c-0.1,0-0.3,0-0.4,0c0,0-0.1-0.1-0.2-0.1
		c-1.7-1.1-3.4-2.2-5.1-3.3C-195-11.5-195-11.9-195-12.2z"/>
	<path fill-rule="evenodd" clip-rule="evenodd" fill="#D65D55" d="M-181.5-7.8c-0.5,0-0.9,0-1.4,0C-182.4-7.8-181.9-7.8-181.5-7.8z"
		/>
	<path fill-rule="evenodd" clip-rule="evenodd" fill="#2B3277" d="M-174.7-7C-174.7-7-174.7-7-174.7-7c0,0.9,0,1.8,0,2.6
		c0,0,0,0,0,0c0,0,0,0,0,0C-174.7-5.2-174.7-6.1-174.7-7C-174.7-7-174.7-7-174.7-7z"/>
	<path fill-rule="evenodd" clip-rule="evenodd" fill="#D65D55" d="M-195-4.4C-195-4.4-195-4.4-195-4.4c3,0,6.1,0,9.2,0
		c0,1.8,0,3.5,0,5.3c0,0,0,0,0,0c0-1.8,0-3.5,0-5.3C-188.9-4.4-191.9-4.3-195-4.4z"/>
	<path fill-rule="evenodd" clip-rule="evenodd" fill="#C9202D" d="M-195,0.9c1.1-0.7,2.3-1.4,3.4-2.2c0.3-0.2,0.6-0.4,0.9-0.5
		c0.8-0.5,1.5-1,2.3-1.5c0.1,0,0.2-0.1,0.2-0.1c0.1,0,0.2,0,0.4,0c0.4,0,0.8,0,1.1,0c0,0,0,0,0,0c-0.5,0.4-1.1,0.7-1.7,1.1
		c-1.7,1.1-3.5,2.2-5.2,3.3C-194.1,1-194.5,1-195,0.9C-195,0.9-195,0.9-195,0.9z"/>
	<path fill-rule="evenodd" clip-rule="evenodd" fill="#C9202D" d="M-174.7,0.9c-2.3-1.4-4.5-2.9-6.8-4.3c0.3,0,0.7,0,1.1,0
		c0.1,0,0.3,0,0.4,0c0,0,0.1,0.1,0.2,0.1c1.7,1.1,3.4,2.2,5.1,3.3C-174.7,0.2-174.7,0.6-174.7,0.9z"/>
	<path fill-rule="evenodd" clip-rule="evenodd" fill="#2B3277" d="M-174.7-0.1C-174.7-0.1-174.7-0.1-174.7-0.1c0,0.3,0,0.7,0,1
		c0,0,0,0,0,0c0,0,0,0,0,0C-174.7,0.6-174.7,0.2-174.7-0.1C-174.7-0.1-174.7-0.1-174.7-0.1z"/>
	<path fill-rule="evenodd" clip-rule="evenodd" fill="#2B3277" d="M-195,1C-195,1-195,1-195,1c0.5,0,0.9,0,1.4,0c0,0,0,0,0,0
		c0,0,0,0,0,0C-194,1-194.5,1-195,1z"/>
	<path fill-rule="evenodd" clip-rule="evenodd" fill="#2B3277" d="M-185.9,1C-185.8,1-185.8,1-185.9,1C-185.8,1-185.8,1-185.9,1
		c0.7,0,1.4,0,2,0c0,0,0,0,0,0c0,0,0,0,0,0C-184.5,1-185.2,1-185.9,1z"/>
	<path fill-rule="evenodd" clip-rule="evenodd" fill="#D65D55" d="M-195-12.2C-195-12.2-195-12.2-195-12.2c2,1.3,4,2.5,5.9,3.8
		c0.3,0.2,0.6,0.3,0.8,0.5c0,0,0,0,0,0c0,0-0.1-0.1-0.1-0.1c-1.1-0.7-2.2-1.4-3.3-2.1c-1-0.6-2-1.3-3-1.9
		C-194.7-12-194.8-12.1-195-12.2z"/>
	<path fill-rule="evenodd" clip-rule="evenodd" fill="#CCB5C1" d="M-192.7-12.2C-192.7-12.2-192.7-12.2-192.7-12.2
		C-192.7-12.2-192.7-12.2-192.7-12.2c0.1,0,0.1,0.1,0.1,0.1c0.1,0.1,0.2,0.2,0.3,0.2c0,0,0,0,0.1,0c0,0,0,0,0,0c0,0,0,0,0.1,0
		c0.1,0.1,0.2,0.1,0.2,0.2c0,0,0,0,0.1,0c0,0,0,0,0,0c0,0,0,0,0.1,0c0.1,0.1,0.2,0.2,0.3,0.2c0,0,0,0,0.1,0c0.1,0.1,0.2,0.2,0.3,0.2
		c0,0,0,0,0.1,0c0.1,0.1,0.2,0.2,0.3,0.2c0,0,0,0,0.1,0c0.1,0.1,0.2,0.2,0.3,0.2c0,0,0,0,0.1,0c0.1,0.1,0.2,0.2,0.3,0.2
		c0,0,0,0,0.1,0c0,0,0,0,0,0c0,0,0,0,0.1,0c0.1,0.1,0.2,0.1,0.2,0.2c0,0,0,0,0.1,0c0,0,0,0,0,0c0,0,0,0,0.1,0
		c0.1,0.1,0.2,0.2,0.3,0.2c0,0,0,0,0.1,0c0.1,0.1,0.2,0.2,0.3,0.2c0,0,0,0,0.1,0c0.1,0.1,0.2,0.2,0.3,0.2c0,0,0,0,0.1,0
		c0.1,0.1,0.2,0.2,0.3,0.2c0,0,0,0,0.1,0c0.1,0.1,0.2,0.2,0.3,0.2c0,0,0,0,0.1,0c0,0,0,0,0,0c0,0,0,0,0.1,0c0.1,0.1,0.2,0.1,0.2,0.2
		c0,0,0,0,0.1,0c0,0,0,0,0,0c0,0,0,0,0.1,0c0,0,0.1,0,0.1,0.1c0-1.3,0-2.7,0-4c0,0,0,0,0,0c0,1.3,0,2.7,0,4
		C-188.6-9.5-190.7-10.9-192.7-12.2z"/>
	<path fill-rule="evenodd" clip-rule="evenodd" fill="#CCB5C1" d="M-195-10.7c1.5,0.9,2.9,1.9,4.4,2.8c0,0,0.1,0.1,0.1,0.1
		c-1.5,0-3,0-4.5,0c0,0,0,0,0,0c1.5,0,3,0,4.5,0c-0.4-0.3-0.7-0.5-1.1-0.7C-192.7-9.3-193.9-10-195-10.7
		C-195-10.7-195-10.7-195-10.7z"/>
	<path fill-rule="evenodd" clip-rule="evenodd" fill="#CCB5C1" d="M-195-11.2C-195-11.2-195-11.2-195-11.2c1.8,1.1,3.5,2.3,5.3,3.4
		C-191.5-9-193.2-10.1-195-11.2z"/>
	<path fill-rule="evenodd" clip-rule="evenodd" fill="#CCB5C1" d="M-195-12.2c1.9,1.3,4,2.5,5.9,3.8c0.2,0.2,0.5,0.3,0.7,0.5
		c0,0,0.1,0.1,0,0.1c0,0,0,0,0,0c0,0,0,0,0,0c0,0,0,0,0,0c-0.3-0.2-0.6-0.4-0.8-0.5C-191-9.6-193-10.9-195-12.2
		C-195-12.2-195-12.2-195-12.2z"/>
	<path fill-rule="evenodd" clip-rule="evenodd" fill="#293474" d="M-186.6-8.3C-186.6-8.3-186.7-8.3-186.6-8.3
		C-186.7-8.3-186.6-8.3-186.6-8.3z"/>
	<path fill-rule="evenodd" clip-rule="evenodd" fill="#293474" d="M-186.7-8.3C-186.7-8.4-186.8-8.4-186.7-8.3
		C-186.8-8.4-186.7-8.4-186.7-8.3z"/>
	<path fill-rule="evenodd" clip-rule="evenodd" fill="#293474" d="M-187-8.5C-187.1-8.6-187.1-8.6-187-8.5
		C-187.1-8.6-187-8.6-187-8.5z"/>
	<path fill-rule="evenodd" clip-rule="evenodd" fill="#293474" d="M-187.1-8.6C-187.1-8.6-187.2-8.6-187.1-8.6
		C-187.2-8.6-187.1-8.6-187.1-8.6z"/>
	<path fill-rule="evenodd" clip-rule="evenodd" fill="#293474" d="M-187.5-8.9C-187.6-8.9-187.6-8.9-187.5-8.9
		C-187.6-8.9-187.5-8.9-187.5-8.9z"/>
	<path fill-rule="evenodd" clip-rule="evenodd" fill="#293474" d="M-187.9-9.1C-188-9.1-188-9.2-187.9-9.1
		C-188-9.2-188-9.1-187.9-9.1z"/>
	<path fill-rule="evenodd" clip-rule="evenodd" fill="#293474" d="M-188.3-9.4C-188.4-9.4-188.4-9.4-188.3-9.4
		C-188.4-9.4-188.4-9.4-188.3-9.4z"/>
	<path fill-rule="evenodd" clip-rule="evenodd" fill="#293474" d="M-188.8-9.7C-188.8-9.7-188.8-9.7-188.8-9.7
		C-188.8-9.7-188.8-9.7-188.8-9.7z"/>
	<path fill-rule="evenodd" clip-rule="evenodd" fill="#293474" d="M-189.2-9.9C-189.2-9.9-189.2-9.9-189.2-9.9
		C-189.2-9.9-189.2-9.9-189.2-9.9z"/>
	<path fill-rule="evenodd" clip-rule="evenodd" fill="#293474" d="M-189.3-10C-189.3-10-189.3-10-189.3-10
		C-189.3-10-189.3-10-189.3-10z"/>
	<path fill-rule="evenodd" clip-rule="evenodd" fill="#293474" d="M-189.6-10.2C-189.6-10.2-189.6-10.2-189.6-10.2
		C-189.6-10.2-189.6-10.2-189.6-10.2z"/>
	<path fill-rule="evenodd" clip-rule="evenodd" fill="#293474" d="M-189.7-10.2C-189.7-10.3-189.7-10.3-189.7-10.2
		C-189.7-10.3-189.7-10.3-189.7-10.2z"/>
	<path fill-rule="evenodd" clip-rule="evenodd" fill="#293474" d="M-190.1-10.5C-190.1-10.5-190.1-10.5-190.1-10.5
		C-190.1-10.5-190.1-10.5-190.1-10.5z"/>
	<path fill-rule="evenodd" clip-rule="evenodd" fill="#293474" d="M-190.5-10.8C-190.5-10.8-190.5-10.8-190.5-10.8
		C-190.5-10.8-190.5-10.8-190.5-10.8z"/>
	<path fill-rule="evenodd" clip-rule="evenodd" fill="#293474" d="M-190.9-11C-190.9-11-190.9-11-190.9-11
		C-190.9-11.1-190.9-11-190.9-11z"/>
	<path fill-rule="evenodd" clip-rule="evenodd" fill="#293474" d="M-191.3-11.3C-191.3-11.3-191.3-11.3-191.3-11.3
		C-191.3-11.3-191.3-11.3-191.3-11.3z"/>
	<path fill-rule="evenodd" clip-rule="evenodd" fill="#293474" d="M-191.7-11.5C-191.7-11.6-191.7-11.6-191.7-11.5
		C-191.7-11.6-191.7-11.6-191.7-11.5z"/>
	<path fill-rule="evenodd" clip-rule="evenodd" fill="#293474" d="M-191.8-11.6C-191.8-11.6-191.8-11.6-191.8-11.6
		C-191.8-11.6-191.8-11.6-191.8-11.6z"/>
	<path fill-rule="evenodd" clip-rule="evenodd" fill="#293474" d="M-192.1-11.8C-192.1-11.8-192.2-11.8-192.1-11.8
		C-192.2-11.8-192.1-11.8-192.1-11.8z"/>
	<path fill-rule="evenodd" clip-rule="evenodd" fill="#293474" d="M-192.2-11.9C-192.2-11.9-192.2-11.9-192.2-11.9
		C-192.2-11.9-192.2-11.9-192.2-11.9z"/>
	<path fill-rule="evenodd" clip-rule="evenodd" fill="#293474" d="M-192.6-12.1C-192.6-12.1-192.7-12.2-192.6-12.1
		C-192.6-12.2-192.6-12.2-192.6-12.1z"/>
	<path fill-rule="evenodd" clip-rule="evenodd" fill="#D65D55" d="M-185.8-12.2C-185.8-12.2-185.8-12.2-185.8-12.2
		c0,1.7,0,3.5,0,5.2c-3,0-6.1,0-9.1,0c0,0,0,0,0,0c3,0,6.1,0,9.1,0C-185.8-8.7-185.8-10.5-185.8-12.2z"/>
	<path fill-rule="evenodd" clip-rule="evenodd" fill="#D65D55" d="M-183.8-12.2C-183.8-12.2-183.8-12.2-183.8-12.2
		c0,1.7,0,3.4,0,5.1c0,0.1,0,0.2,0,0.2c0,0,0.2,0,0.3,0c2.9,0,5.9,0,8.9,0c0,0,0,0,0,0c-3.1,0-6.1,0-9.2,0
		C-183.8-8.7-183.8-10.5-183.8-12.2z"/>
	<path fill-rule="evenodd" clip-rule="evenodd" fill="#D65D55" d="M-183.8,1c0-1.8,0-3.6,0-5.3c3,0,6.1,0,9.2,0c0,0,0,0,0,0
		c-3,0-6.1,0-9.2,0C-183.8-2.6-183.8-0.8-183.8,1C-183.8,1-183.8,1-183.8,1z"/>
	<path fill-rule="evenodd" clip-rule="evenodd" fill="#CCB5C1" d="M-183.1-12.2C-183.1-12.2-183.1-12.2-183.1-12.2c0,1.3,0,2.7,0,4
		c2.1-1.3,4.1-2.6,6.2-4c0,0,0,0,0,0c-1.9,1.2-3.9,2.5-5.8,3.7c-0.1,0-0.1,0.1-0.2,0.1c-0.1,0-0.1,0.1-0.2,0.1
		C-183.1-9.5-183.1-10.9-183.1-12.2z"/>
	<path fill-rule="evenodd" clip-rule="evenodd" fill="#FFFFFF" d="M-176.9-12.2c0.2,0,0.5,0,0.7,0c-2.2,1.4-4.5,2.9-6.7,4.3
		c0,0,0,0,0,0c0,0,0,0,0,0c0,0,0,0,0,0c0,0,0,0,0.1,0c0.5,0,0.9,0,1.4,0c0,0,0,0,0,0c0,0,0,0,0,0c2.3-1.4,4.5-2.9,6.8-4.4
		c0,0.5,0,1,0,1.4c-1.1,0.7-2.3,1.4-3.4,2.2c-0.2,0.1-0.4,0.2-0.6,0.4c-0.2,0.1-0.4,0.2-0.6,0.4c1.5,0,3,0,4.5,0c0,0.3,0,0.6,0,0.9
		c-3,0-6.1,0-9.1,0c0-1.7,0-3.5,0-5.2c0.2,0,0.4,0,0.7,0c0,1.3,0,2.7,0,4c0.1,0,0.1-0.1,0.2-0.1c0.1,0,0.1-0.1,0.2-0.1
		C-180.8-9.7-178.9-11-176.9-12.2z"/>
	<path fill-rule="evenodd" clip-rule="evenodd" fill="#CCB5C1" d="M-182.9-7.8C-182.9-7.8-182.9-7.8-182.9-7.8
		C-183-7.9-182.9-7.9-182.9-7.8C-182.9-7.9-182.9-7.9-182.9-7.8C-182.9-7.8-182.9-7.8-182.9-7.8z"/>
	<path fill-rule="evenodd" clip-rule="evenodd" fill="#CCB5C1" d="M-181.4-7.8c2.3-1.5,4.5-2.9,6.8-4.4c0,0,0,0,0,0c0,0.4,0,1,0,1.4
		c0,0,0,0,0,0.1c0,0-0.1,0.1-0.1,0.1c-1.4,0.9-2.8,1.8-4.2,2.7c0,0,0,0-0.1,0c0,0-0.1,0,0,0c1.5,0,3,0,4.5,0c0,0,0,0,0,0
		c0,0.3,0,0.6,0,0.9c0,0,0,0,0,0c-2.9,0-5.9,0-8.9,0c-0.1,0-0.3,0-0.3,0c0,0,0-0.1,0-0.2c0-1.7,0-3.4,0-5.1c0,0,0,0,0,0
		c0,1.7,0,3.5,0,5.2c3,0,6.1,0,9.1,0c0-0.3,0-0.6,0-0.9c-1.5,0-3,0-4.5,0c0.2-0.1,0.4-0.2,0.6-0.4c0.2-0.1,0.4-0.2,0.6-0.4
		c1.1-0.7,2.3-1.4,3.4-2.2c0-0.5,0-1,0-1.4C-176.9-10.8-179.2-9.3-181.4-7.8z"/>
	<path fill-rule="evenodd" clip-rule="evenodd" fill="#D65D55" d="M-181.5-7.8c2.3-1.4,4.5-2.9,6.8-4.4c0,0,0,0,0,0
		C-176.9-10.7-179.2-9.3-181.5-7.8C-181.4-7.8-181.5-7.8-181.5-7.8z"/>
	<path fill-rule="evenodd" clip-rule="evenodd" fill="#D65D55" d="M-182.9-7.8C-182.9-7.8-182.9-7.8-182.9-7.8
		C-182.9-7.9-182.9-7.9-182.9-7.8c2.2-1.5,4.5-2.9,6.7-4.4c0,0,0,0,0,0c-0.1,0.1-0.3,0.2-0.4,0.3C-178.7-10.6-180.8-9.2-182.9-7.8
		C-182.9-7.8-182.9-7.8-182.9-7.8C-182.9-7.8-182.9-7.8-182.9-7.8z"/>
	<path fill-rule="evenodd" clip-rule="evenodd" fill="#CCB5C1" d="M-185.9,1c-0.2,0-0.5,0-0.7,0c0-1.4,0-2.7,0-4.1c0,0,0,0,0,0
		c-1.1,0.7-2.3,1.5-3.4,2.2c-0.9,0.6-1.8,1.2-2.7,1.8c-0.1,0-0.1,0.1-0.2,0.1c-0.2,0-0.5,0-0.7,0c0,0,0,0,0,0c0,0,0,0,0,0
		c0.1,0,0.2,0,0.4,0c0.1,0,0.3,0,0.4,0c0,0,0.1-0.1,0.2-0.1c0.5-0.3,0.9-0.6,1.4-0.9c1.3-0.8,2.6-1.7,4-2.6c0.3-0.2,0.5-0.3,0.8-0.5
		c0,1.4,0,2.7,0,4.1C-186.3,1-186.1,1-185.9,1c0-1.8,0-3.5,0-5.3c-3,0-6.1,0-9.1,0c0,0,0,0,0,0c3,0,6.1,0,9.1,0
		C-185.8-2.6-185.8-0.8-185.9,1C-185.8,1-185.8,1-185.9,1z"/>
	<path fill-rule="evenodd" clip-rule="evenodd" fill="#CCB5C1" d="M-181.4-3.5C-181.4-3.5-181.4-3.5-181.4-3.5
		C-181.4-3.5-181.4-3.5-181.4-3.5c0.4,0,0.7,0,1.1,0c0.1,0,0.3,0,0.4,0c0,0,0.1,0.1,0.2,0.1c1.7,1.1,3.4,2.2,5.1,3.3
		c0-0.1,0-0.1,0-0.2c0-0.1,0-0.2,0-0.2c0-0.1-0.2-0.2-0.3-0.2c-1.2-0.8-2.4-1.6-3.7-2.4c-0.1-0.1-0.3-0.2-0.4-0.3
		c0,0-0.1-0.1-0.1-0.1c1.5,0,3,0,4.5,0c0-0.3,0-0.6,0-0.9c-3,0-6.1,0-9.1,0c0,1.8,0,3.5,0,5.3c0.2,0,0.4,0,0.7,0c0-1.3,0-2.7,0-4.1
		c0.8,0.5,1.6,1,2.4,1.5c1.2,0.8,2.5,1.6,3.8,2.4c0.1,0,0.2,0.1,0.2,0.1c0.1,0,0.2,0,0.3,0c0.6,0,1.3,0,1.9,0c0-0.1-0.1-0.1-0.1-0.1
		c-0.3-0.2-0.5-0.3-0.8-0.5c-0.1-0.1-0.2-0.1-0.3-0.2c0.4,0.3,0.8,0.5,1.3,0.8c0,0,0,0,0,0c0,0,0,0,0,0.1c0,0,0,0,0,0
		c-0.5,0-1.1,0-1.6,0c-0.2,0-0.3,0-0.5,0c-0.1,0-0.1-0.1-0.2-0.1c-0.5-0.3-0.9-0.6-1.4-0.9c-1.6-1-3.1-2-4.7-3c0,0,0,0-0.1,0
		c0,0,0,0,0,0c0,0,0,0.2,0,0.3c0,1.3,0,2.5,0,3.8c-0.2,0-0.4,0-0.7,0c0,0,0,0,0,0c0-1.8,0-3.6,0-5.3c3,0,6.1,0,9.2,0c0,0,0,0,0,0
		c0,0.3,0,0.6,0,0.9c0,0,0,0,0,0c-1.5,0-3,0-4.5,0c0,0,0.1,0.1,0.1,0.1c1.4,0.9,2.9,1.9,4.3,2.8c0,0.1,0,0.3,0,0.5c0,0,0,0,0,0
		c-1.8-1.1-3.5-2.3-5.3-3.4C-180.4-3.5-180.9-3.5-181.4-3.5C-181.4-3.5-181.4-3.5-181.4-3.5z"/>
	<path fill-rule="evenodd" clip-rule="evenodd" fill="#D65D55" d="M-189.7-7.8c-1.8-1.1-3.5-2.3-5.3-3.4c0,0,0,0,0,0
		c1.7,1.1,3.4,2.2,5.1,3.3C-189.8-7.9-189.8-7.8-189.7-7.8c0.1,0,0.3,0,0.4,0c0.4,0,0.7,0,1.1,0c0,0,0,0,0,0
		C-188.7-7.8-189.2-7.8-189.7-7.8z"/>
	<path fill-rule="evenodd" clip-rule="evenodd" fill="#FFFFFF" d="M-193.6,1c0.9-0.6,1.8-1.2,2.7-1.7c1.2-0.8,2.4-1.6,3.7-2.4
		c0.2-0.1,0.4-0.2,0.5-0.3c-0.4,0-0.8,0-1.1,0c-0.1,0-0.3,0-0.4,0c-0.1,0-0.1,0.1-0.2,0.1c-2.2,1.4-4.4,2.8-6.6,4.2c0-0.5,0-1,0-1.5
		c1.5-1,3-1.9,4.5-2.9c-1.5,0-3,0-4.5,0c0-0.3,0-0.6,0-0.9c3,0,6.1,0,9.1,0c0,1.8,0,3.5,0,5.3c-0.2,0-0.5,0-0.7,0c0-1.4,0-2.7,0-4.1
		c-0.3,0.1-0.5,0.3-0.8,0.5c-1.3,0.8-2.6,1.7-4,2.6c-0.5,0.3-0.9,0.6-1.4,0.9c-0.1,0-0.2,0.1-0.2,0.1c-0.1,0-0.2,0-0.4,0
		C-193.4,1-193.5,1-193.6,1z"/>
	<path fill-rule="evenodd" clip-rule="evenodd" fill="#CCB5C1" d="M-190.9-0.8c1.4-0.9,2.8-1.8,4.2-2.7c-0.5,0-1,0-1.5,0
		c-2.3,1.5-4.5,2.9-6.8,4.4c0,0,0,0,0,0c2.2-1.4,4.4-2.8,6.6-4.2c0.1,0,0.2-0.1,0.2-0.1c0.1,0,0.3,0,0.4,0c0.4,0,0.8,0,1.1,0
		c-0.2,0.1-0.3,0.2-0.5,0.3C-188.4-2.3-189.7-1.6-190.9-0.8z"/>
	<path fill-rule="evenodd" clip-rule="evenodd" fill="#CCB5C1" d="M-195-0.6c1.5-1,3-1.9,4.5-2.9c-1.5,0-3,0-4.5,0c0,0,0,0,0,0
		c1.5,0,3,0,4.5,0C-192-2.5-193.5-1.5-195-0.6C-195-0.6-195-0.6-195-0.6z"/>
	<path fill-rule="evenodd" clip-rule="evenodd" fill="#FFFFFF" d="M-181.4-3.5C-181.4-3.5-181.4-3.5-181.4-3.5
		c1.8,1.2,3.7,2.4,5.5,3.5c0.1,0.1,0.2,0.1,0.3,0.2c0.3,0.2,0.5,0.3,0.8,0.5c0,0,0.1,0.1,0.1,0.1c-0.6,0-1.2,0-1.9,0
		c-0.1,0-0.2,0-0.3,0c0,0-0.1-0.1-0.2-0.1c-1.3-0.8-2.5-1.6-3.8-2.4c-0.8-0.5-1.6-1-2.4-1.5c0,1.3,0,2.7,0,4.1c-0.2,0-0.4,0-0.7,0
		c0-1.8,0-3.5,0-5.3c3,0,6.1,0,9.1,0c0,0.3,0,0.6,0,0.9c-1.5,0-3,0-4.5,0c0,0,0.1,0.1,0.1,0.1c0.1,0.1,0.3,0.2,0.4,0.3
		c1.2,0.8,2.4,1.6,3.7,2.4c0.1,0,0.3,0.1,0.3,0.2c0,0.1,0,0.2,0,0.2c0,0.1,0,0.2,0,0.2c-1.7-1.1-3.4-2.2-5.1-3.3
		c-0.1,0-0.1-0.1-0.2-0.1c-0.1,0-0.3,0-0.4,0C-180.7-3.5-181-3.5-181.4-3.5C-181.4-3.5-181.4-3.5-181.4-3.5
		C-181.4-3.5-181.4-3.5-181.4-3.5z"/>
	<path fill-rule="evenodd" clip-rule="evenodd" fill="#D65D55" d="M-181.4-3.5C-181.4-3.5-181.4-3.5-181.4-3.5c0.5,0,1,0,1.5,0
		c1.8,1.1,3.5,2.3,5.3,3.4c0,0,0,0,0,0c-1.7-1.1-3.4-2.2-5.1-3.3c-0.1,0-0.1-0.1-0.2-0.1c-0.1,0-0.2,0-0.4,0
		C-180.7-3.5-181.1-3.5-181.4-3.5c2.3,1.4,4.5,2.9,6.8,4.3c0,0,0,0,0,0c-0.4-0.3-0.8-0.5-1.3-0.8C-177.7-1.1-179.6-2.3-181.4-3.5
		C-181.4-3.5-181.4-3.5-181.4-3.5z"/>
	<path fill-rule="evenodd" clip-rule="evenodd" fill="#D65D55" d="M-195,0.9c2.3-1.5,4.5-2.9,6.8-4.4c0.5,0,1,0,1.5,0
		c-1.4,0.9-2.8,1.8-4.2,2.7c-0.9,0.6-1.8,1.2-2.7,1.7c0,0,0,0,0,0c0,0,0,0,0,0c1.7-1.1,3.4-2.2,5.2-3.3c0.6-0.4,1.1-0.7,1.7-1.1
		c0,0,0,0,0,0c-0.3,0-0.7,0-1.1,0c-0.1,0-0.3,0-0.4,0c0,0-0.1,0.1-0.2,0.1c-0.8,0.5-1.5,1-2.3,1.5c-0.3,0.2-0.6,0.4-0.9,0.5
		C-192.7-0.6-193.9,0.1-195,0.9C-195,0.9-195,0.9-195,0.9z"/>
	<path fill-rule="evenodd" clip-rule="evenodd" fill="#C9202D" d="M-182.9-7.8C-182.9-7.8-182.9-7.8-182.9-7.8
		C-182.9-7.8-182.9-7.8-182.9-7.8c2-1.4,4.2-2.7,6.3-4.1c0.1-0.1,0.3-0.2,0.4-0.3c0.5,0,1,0,1.5,0c-2.3,1.5-4.5,2.9-6.8,4.4
		c0,0,0,0,0,0C-181.9-7.8-182.4-7.8-182.9-7.8z"/>
</g>
<g>
	<polygon fill-rule="evenodd" clip-rule="evenodd" fill="#212963" points="0,-19.6 16.4,-19.6 16.4,-33.6 0,-33.6 0,-19.6 	"/>
	<polygon fill-rule="evenodd" clip-rule="evenodd" fill="#FFFFFF" points="41,-31.6 16.4,-31.6 16.4,-29.6 41,-29.6 41,-31.6 	"/>
	<polygon fill-rule="evenodd" clip-rule="evenodd" fill="#FFFFFF" points="41,-27.6 16.4,-27.6 16.4,-25.6 41,-25.6 41,-27.6 	"/>
	<polygon fill-rule="evenodd" clip-rule="evenodd" fill="#FFFFFF" points="41,-23.6 16.4,-23.6 16.4,-21.6 41,-21.6 41,-23.6 	"/>
	<polygon fill-rule="evenodd" clip-rule="evenodd" fill="#FFFFFF" points="41,-19.6 0,-19.6 0,-17.6 41,-17.6 41,-19.6 	"/>
	<polygon fill-rule="evenodd" clip-rule="evenodd" fill="#FFFFFF" points="41,-15.6 0,-15.6 0,-13.6 41,-13.6 41,-15.6 	"/>
	<polygon fill-rule="evenodd" clip-rule="evenodd" fill="#FFFFFF" points="41,-11.6 0,-11.6 0,-9.6 41,-9.6 41,-11.6 	"/>
	<path fill-rule="evenodd" clip-rule="evenodd" fill="#D91F26" d="M41-9.6H0v2h41V-9.6L41-9.6z M41-13.6H0v2h41V-13.6L41-13.6z
		 M41-17.6H0v2h41V-17.6L41-17.6z M41-21.6H16.4v2H41V-21.6L41-21.6z M41-25.6H16.4v2H41V-25.6L41-25.6z M41-29.6H16.4v2H41V-29.6
		L41-29.6z M41-33.6H16.4v2H41V-33.6L41-33.6z"/>
	<polygon fill-rule="evenodd" clip-rule="evenodd" fill="#FFFFFF" points="1.2,-33.1 1.4,-32.6 1.9,-32.6 1.5,-32.3 1.6,-31.8 
		1.2,-32.1 0.8,-31.8 1,-32.3 0.6,-32.6 1.1,-32.6 1.2,-33.1 	"/>
	<polygon fill-rule="evenodd" clip-rule="evenodd" fill="#FFFFFF" points="6.7,-33.1 6.8,-32.6 7.4,-32.6 6.9,-32.3 7.1,-31.8 
		6.7,-32.1 6.3,-31.8 6.4,-32.3 6,-32.6 6.5,-32.6 6.7,-33.1 	"/>
	<polygon fill-rule="evenodd" clip-rule="evenodd" fill="#FFFFFF" points="12.1,-33.1 12.3,-32.6 12.8,-32.6 12.4,-32.3 12.6,-31.8 
		12.1,-32.1 11.7,-31.8 11.9,-32.3 11.5,-32.6 12,-32.6 12.1,-33.1 	"/>
	<polygon fill-rule="evenodd" clip-rule="evenodd" fill="#FFFFFF" points="4,-33.1 4.1,-32.6 4.6,-32.6 4.2,-32.3 4.4,-31.8 
		4,-32.1 3.5,-31.8 3.7,-32.3 3.3,-32.6 3.8,-32.6 4,-33.1 	"/>
	<polygon fill-rule="evenodd" clip-rule="evenodd" fill="#FFFFFF" points="9.4,-33.1 9.6,-32.6 10.1,-32.6 9.7,-32.3 9.8,-31.8 
		9.4,-32.1 9,-31.8 9.2,-32.3 8.7,-32.6 9.3,-32.6 9.4,-33.1 	"/>
	<polygon fill-rule="evenodd" clip-rule="evenodd" fill="#FFFFFF" points="14.9,-33.1 15,-32.6 15.6,-32.6 15.1,-32.3 15.3,-31.8 
		14.9,-32.1 14.5,-31.8 14.6,-32.3 14.2,-32.6 14.7,-32.6 14.9,-33.1 	"/>
	<polygon fill-rule="evenodd" clip-rule="evenodd" fill="#FFFFFF" points="2.6,-31.7 2.8,-31.2 3.3,-31.2 2.9,-30.9 3,-30.4 
		2.6,-30.7 2.2,-30.4 2.3,-30.9 1.9,-31.2 2.4,-31.2 2.6,-31.7 	"/>
	<polygon fill-rule="evenodd" clip-rule="evenodd" fill="#FFFFFF" points="8.1,-31.7 8.2,-31.2 8.7,-31.2 8.3,-30.9 8.5,-30.4 
		8.1,-30.7 7.6,-30.4 7.8,-30.9 7.4,-31.2 7.9,-31.2 8.1,-31.7 	"/>
	<polygon fill-rule="evenodd" clip-rule="evenodd" fill="#FFFFFF" points="13.5,-31.7 13.7,-31.2 14.2,-31.2 13.8,-30.9 13.9,-30.4 
		13.5,-30.7 13.1,-30.4 13.3,-30.9 12.8,-31.2 13.4,-31.2 13.5,-31.7 	"/>
	<polygon fill-rule="evenodd" clip-rule="evenodd" fill="#FFFFFF" points="5.3,-31.7 5.5,-31.2 6,-31.2 5.6,-30.9 5.7,-30.4 
		5.3,-30.7 4.9,-30.4 5.1,-30.9 4.7,-31.2 5.2,-31.2 5.3,-31.7 	"/>
	<polygon fill-rule="evenodd" clip-rule="evenodd" fill="#FFFFFF" points="10.8,-31.7 10.9,-31.2 11.5,-31.2 11,-30.9 11.2,-30.4 
		10.8,-30.7 10.4,-30.4 10.5,-30.9 10.1,-31.2 10.6,-31.2 10.8,-31.7 	"/>
	<polygon fill-rule="evenodd" clip-rule="evenodd" fill="#FFFFFF" points="1.2,-30.3 1.4,-29.8 1.9,-29.8 1.5,-29.5 1.6,-29 
		1.2,-29.3 0.8,-29 1,-29.5 0.6,-29.8 1.1,-29.8 1.2,-30.3 	"/>
	<polygon fill-rule="evenodd" clip-rule="evenodd" fill="#FFFFFF" points="6.7,-30.3 6.8,-29.8 7.4,-29.8 6.9,-29.5 7.1,-29 
		6.7,-29.3 6.3,-29 6.4,-29.5 6,-29.8 6.5,-29.8 6.7,-30.3 	"/>
	<polygon fill-rule="evenodd" clip-rule="evenodd" fill="#FFFFFF" points="12.1,-30.3 12.3,-29.8 12.8,-29.8 12.4,-29.5 12.6,-29 
		12.1,-29.3 11.7,-29 11.9,-29.5 11.5,-29.8 12,-29.8 12.1,-30.3 	"/>
	<polygon fill-rule="evenodd" clip-rule="evenodd" fill="#FFFFFF" points="4,-30.3 4.1,-29.8 4.6,-29.8 4.2,-29.5 4.4,-29 4,-29.3 
		3.5,-29 3.7,-29.5 3.3,-29.8 3.8,-29.8 4,-30.3 	"/>
	<polygon fill-rule="evenodd" clip-rule="evenodd" fill="#FFFFFF" points="9.4,-30.3 9.6,-29.8 10.1,-29.8 9.7,-29.5 9.8,-29 
		9.4,-29.3 9,-29 9.2,-29.5 8.7,-29.8 9.3,-29.8 9.4,-30.3 	"/>
	<polygon fill-rule="evenodd" clip-rule="evenodd" fill="#FFFFFF" points="14.9,-30.3 15,-29.8 15.6,-29.8 15.1,-29.5 15.3,-29 
		14.9,-29.3 14.5,-29 14.6,-29.5 14.2,-29.8 14.7,-29.8 14.9,-30.3 	"/>
	<polygon fill-rule="evenodd" clip-rule="evenodd" fill="#FFFFFF" points="2.6,-28.9 2.8,-28.4 3.3,-28.4 2.9,-28.1 3,-27.6 
		2.6,-27.9 2.2,-27.6 2.3,-28.1 1.9,-28.4 2.4,-28.4 2.6,-28.9 	"/>
	<polygon fill-rule="evenodd" clip-rule="evenodd" fill="#FFFFFF" points="8.1,-28.9 8.2,-28.4 8.7,-28.4 8.3,-28.1 8.5,-27.6 
		8.1,-27.9 7.6,-27.6 7.8,-28.1 7.4,-28.4 7.9,-28.4 8.1,-28.9 	"/>
	<polygon fill-rule="evenodd" clip-rule="evenodd" fill="#FFFFFF" points="13.5,-28.9 13.7,-28.4 14.2,-28.4 13.8,-28.1 13.9,-27.6 
		13.5,-27.9 13.1,-27.6 13.3,-28.1 12.8,-28.4 13.4,-28.4 13.5,-28.9 	"/>
	<polygon fill-rule="evenodd" clip-rule="evenodd" fill="#FFFFFF" points="5.3,-28.9 5.5,-28.4 6,-28.4 5.6,-28.1 5.7,-27.6 
		5.3,-27.9 4.9,-27.6 5.1,-28.1 4.7,-28.4 5.2,-28.4 5.3,-28.9 	"/>
	<polygon fill-rule="evenodd" clip-rule="evenodd" fill="#FFFFFF" points="10.8,-28.9 10.9,-28.4 11.5,-28.4 11,-28.1 11.2,-27.6 
		10.8,-27.9 10.4,-27.6 10.5,-28.1 10.1,-28.4 10.6,-28.4 10.8,-28.9 	"/>
	<polygon fill-rule="evenodd" clip-rule="evenodd" fill="#FFFFFF" points="1.2,-27.5 1.4,-27 1.9,-27 1.5,-26.7 1.6,-26.2 
		1.2,-26.5 0.8,-26.2 1,-26.7 0.6,-27 1.1,-27 1.2,-27.5 	"/>
	<polygon fill-rule="evenodd" clip-rule="evenodd" fill="#FFFFFF" points="6.7,-27.5 6.8,-27 7.4,-27 6.9,-26.7 7.1,-26.2 
		6.7,-26.5 6.3,-26.2 6.4,-26.7 6,-27 6.5,-27 6.7,-27.5 	"/>
	<polygon fill-rule="evenodd" clip-rule="evenodd" fill="#FFFFFF" points="12.1,-27.5 12.3,-27 12.8,-27 12.4,-26.7 12.6,-26.2 
		12.1,-26.5 11.7,-26.2 11.9,-26.7 11.5,-27 12,-27 12.1,-27.5 	"/>
	<polygon fill-rule="evenodd" clip-rule="evenodd" fill="#FFFFFF" points="4,-27.5 4.1,-27 4.6,-27 4.2,-26.7 4.4,-26.2 4,-26.5 
		3.5,-26.2 3.7,-26.7 3.3,-27 3.8,-27 4,-27.5 	"/>
	<polygon fill-rule="evenodd" clip-rule="evenodd" fill="#FFFFFF" points="9.4,-27.5 9.6,-27 10.1,-27 9.7,-26.7 9.8,-26.2 
		9.4,-26.5 9,-26.2 9.2,-26.7 8.7,-27 9.3,-27 9.4,-27.5 	"/>
	<polygon fill-rule="evenodd" clip-rule="evenodd" fill="#FFFFFF" points="14.9,-27.5 15,-27 15.6,-27 15.1,-26.7 15.3,-26.2 
		14.9,-26.5 14.5,-26.2 14.6,-26.7 14.2,-27 14.7,-27 14.9,-27.5 	"/>
	<polygon fill-rule="evenodd" clip-rule="evenodd" fill="#FFFFFF" points="2.6,-26.1 2.8,-25.6 3.3,-25.6 2.9,-25.3 3,-24.8 
		2.6,-25.1 2.2,-24.8 2.3,-25.3 1.9,-25.6 2.4,-25.6 2.6,-26.1 	"/>
	<polygon fill-rule="evenodd" clip-rule="evenodd" fill="#FFFFFF" points="8.1,-26.1 8.2,-25.6 8.7,-25.6 8.3,-25.3 8.5,-24.8 
		8.1,-25.1 7.6,-24.8 7.8,-25.3 7.4,-25.6 7.9,-25.6 8.1,-26.1 	"/>
	<polygon fill-rule="evenodd" clip-rule="evenodd" fill="#FFFFFF" points="13.5,-26.1 13.7,-25.6 14.2,-25.6 13.8,-25.3 13.9,-24.8 
		13.5,-25.1 13.1,-24.8 13.3,-25.3 12.8,-25.6 13.4,-25.6 13.5,-26.1 	"/>
	<polygon fill-rule="evenodd" clip-rule="evenodd" fill="#FFFFFF" points="5.3,-26.1 5.5,-25.6 6,-25.6 5.6,-25.3 5.7,-24.8 
		5.3,-25.1 4.9,-24.8 5.1,-25.3 4.7,-25.6 5.2,-25.6 5.3,-26.1 	"/>
	<polygon fill-rule="evenodd" clip-rule="evenodd" fill="#FFFFFF" points="10.8,-26.1 10.9,-25.6 11.5,-25.6 11,-25.3 11.2,-24.8 
		10.8,-25.1 10.4,-24.8 10.5,-25.3 10.1,-25.6 10.6,-25.6 10.8,-26.1 	"/>
	<polygon fill-rule="evenodd" clip-rule="evenodd" fill="#FFFFFF" points="1.2,-24.7 1.4,-24.2 1.9,-24.2 1.5,-23.9 1.6,-23.4 
		1.2,-23.7 0.8,-23.4 1,-23.9 0.6,-24.2 1.1,-24.2 1.2,-24.7 	"/>
	<polygon fill-rule="evenodd" clip-rule="evenodd" fill="#FFFFFF" points="6.7,-24.7 6.8,-24.2 7.4,-24.2 6.9,-23.9 7.1,-23.4 
		6.7,-23.7 6.3,-23.4 6.4,-23.9 6,-24.2 6.5,-24.2 6.7,-24.7 	"/>
	<polygon fill-rule="evenodd" clip-rule="evenodd" fill="#FFFFFF" points="12.1,-24.7 12.3,-24.2 12.8,-24.2 12.4,-23.9 12.6,-23.4 
		12.1,-23.7 11.7,-23.4 11.9,-23.9 11.5,-24.2 12,-24.2 12.1,-24.7 	"/>
	<polygon fill-rule="evenodd" clip-rule="evenodd" fill="#FFFFFF" points="4,-24.7 4.1,-24.2 4.6,-24.2 4.2,-23.9 4.4,-23.4 
		4,-23.7 3.5,-23.4 3.7,-23.9 3.3,-24.2 3.8,-24.2 4,-24.7 	"/>
	<polygon fill-rule="evenodd" clip-rule="evenodd" fill="#FFFFFF" points="9.4,-24.7 9.6,-24.2 10.1,-24.2 9.7,-23.9 9.8,-23.4 
		9.4,-23.7 9,-23.4 9.2,-23.9 8.7,-24.2 9.3,-24.2 9.4,-24.7 	"/>
	<polygon fill-rule="evenodd" clip-rule="evenodd" fill="#FFFFFF" points="14.9,-24.7 15,-24.2 15.6,-24.2 15.1,-23.9 15.3,-23.4 
		14.9,-23.7 14.5,-23.4 14.6,-23.9 14.2,-24.2 14.7,-24.2 14.9,-24.7 	"/>
	<polygon fill-rule="evenodd" clip-rule="evenodd" fill="#FFFFFF" points="2.6,-23.3 2.8,-22.8 3.3,-22.8 2.9,-22.5 3,-22 
		2.6,-22.3 2.2,-22 2.3,-22.5 1.9,-22.8 2.4,-22.8 2.6,-23.3 	"/>
	<polygon fill-rule="evenodd" clip-rule="evenodd" fill="#FFFFFF" points="8.1,-23.3 8.2,-22.8 8.7,-22.8 8.3,-22.5 8.5,-22 
		8.1,-22.3 7.6,-22 7.8,-22.5 7.4,-22.8 7.9,-22.8 8.1,-23.3 	"/>
	<polygon fill-rule="evenodd" clip-rule="evenodd" fill="#FFFFFF" points="13.5,-23.3 13.7,-22.8 14.2,-22.8 13.8,-22.5 13.9,-22 
		13.5,-22.3 13.1,-22 13.3,-22.5 12.8,-22.8 13.4,-22.8 13.5,-23.3 	"/>
	<polygon fill-rule="evenodd" clip-rule="evenodd" fill="#FFFFFF" points="5.3,-23.3 5.5,-22.8 6,-22.8 5.6,-22.5 5.7,-22 
		5.3,-22.3 4.9,-22 5.1,-22.5 4.7,-22.8 5.2,-22.8 5.3,-23.3 	"/>
	<polygon fill-rule="evenodd" clip-rule="evenodd" fill="#FFFFFF" points="10.8,-23.3 10.9,-22.8 11.5,-22.8 11,-22.5 11.2,-22 
		10.8,-22.3 10.4,-22 10.5,-22.5 10.1,-22.8 10.6,-22.8 10.8,-23.3 	"/>
	<polygon fill-rule="evenodd" clip-rule="evenodd" fill="#FFFFFF" points="1.2,-21.9 1.4,-21.4 1.9,-21.4 1.5,-21.1 1.6,-20.6 
		1.2,-20.9 0.8,-20.6 1,-21.1 0.6,-21.4 1.1,-21.4 1.2,-21.9 	"/>
	<polygon fill-rule="evenodd" clip-rule="evenodd" fill="#FFFFFF" points="6.7,-21.9 6.8,-21.4 7.4,-21.4 6.9,-21.1 7.1,-20.6 
		6.7,-20.9 6.3,-20.6 6.4,-21.1 6,-21.4 6.5,-21.4 6.7,-21.9 	"/>
	<polygon fill-rule="evenodd" clip-rule="evenodd" fill="#FFFFFF" points="12.1,-21.9 12.3,-21.4 12.8,-21.4 12.4,-21.1 12.6,-20.6 
		12.1,-20.9 11.7,-20.6 11.9,-21.1 11.5,-21.4 12,-21.4 12.1,-21.9 	"/>
	<polygon fill-rule="evenodd" clip-rule="evenodd" fill="#FFFFFF" points="4,-21.9 4.1,-21.4 4.6,-21.4 4.2,-21.1 4.4,-20.6 
		4,-20.9 3.5,-20.6 3.7,-21.1 3.3,-21.4 3.8,-21.4 4,-21.9 	"/>
	<polygon fill-rule="evenodd" clip-rule="evenodd" fill="#FFFFFF" points="9.4,-21.9 9.6,-21.4 10.1,-21.4 9.7,-21.1 9.8,-20.6 
		9.4,-20.9 9,-20.6 9.2,-21.1 8.7,-21.4 9.3,-21.4 9.4,-21.9 	"/>
	<polygon fill-rule="evenodd" clip-rule="evenodd" fill="#FFFFFF" points="14.9,-21.9 15,-21.4 15.6,-21.4 15.1,-21.1 15.3,-20.6 
		14.9,-20.9 14.5,-20.6 14.6,-21.1 14.2,-21.4 14.7,-21.4 14.9,-21.9 	"/>
</g>
<g>
	<rect x="0" y="0" fill="#FFFFFF" width="41" height="26"/>
	<rect x="0" y="0" fill="#0B57A4" width="13.7" height="26"/>
	<rect x="27.3" y="0" fill="#ED4037" width="13.7" height="26"/>
</g>
</svg>
