<?xml version="1.0" encoding="utf-8"?>
<!-- Generator: Adobe Illustrator 18.0.0, SVG Export Plug-In . SVG Version: 6.00 Build 0)  -->
<!DOCTYPE svg PUBLIC "-//W3C//DTD SVG 1.1//EN" "http://www.w3.org/Graphics/SVG/1.1/DTD/svg11.dtd">
<svg version="1.1" id="Layer_1" xmlns="http://www.w3.org/2000/svg" xmlns:xlink="http://www.w3.org/1999/xlink" x="0px" y="0px"
	 viewBox="0 0 1900 840" enable-background="new 0 0 1900 840" xml:space="preserve">
<g id="Page-1">
	<g id="Core" transform="translate(-295.000000, -464.000000)">
		<g id="thumb-up" transform="translate(295.000000, 464.000000)">
			<path id="Shape" fill="#FFFFFF" d="M1008.8,151.2L983.6,273l-25.2,105h105h260.4v84c0,0,0,0,0,4.2L1202,756H824V336l0,0
				L1008.8,151.2 M572,420v336V420 M1042.4,0L765.2,277.2C748.4,289.8,740,310.8,740,336v420c0,46.2,37.8,84,84,84h378
				c33.6,0,63-21,75.6-50.4l126-298.2c4.2-8.4,4.2-21,4.2-29.4v-84h4.2c0-46.2-37.8-84-84-84h-264.6l42-193.2V88.2
				c0-16.8-8.4-33.6-16.8-46.2L1042.4,0L1042.4,0z M656,336H488v504h168V336L656,336z M1412,378L1412,378L1412,378L1412,378z"/>
		</g>
	</g>
</g>
</svg>
