<svg id="twitter" xmlns="http://www.w3.org/2000/svg" width="54.19" height="54" viewBox="0 0 54.19 54">
  <metadata><?xpacket begin="﻿" id="W5M0MpCehiHzreSzNTczkc9d"?>
<x:xmpmeta xmlns:x="adobe:ns:meta/" x:xmptk="Adobe XMP Core 5.6-c138 79.159824, 2016/09/14-01:09:01        ">
   <rdf:RDF xmlns:rdf="http://www.w3.org/1999/02/22-rdf-syntax-ns#">
      <rdf:Description rdf:about=""/>
   </rdf:RDF>
</x:xmpmeta>
                                                                                                    
                                                                                                    
                                                                                                    
                                                                                                    
                                                                                                    
                                                                                                    
                                                                                                    
                                                                                                    
                                                                                                    
                                                                                                    
                                                                                                    
                                                                                                    
                                                                                                    
                                                                                                    
                                                                                                    
                                                                                                    
                                                                                                    
                                                                                                    
                                                                                                    
                                                                                                    
                           
<?xpacket end="w"?></metadata>
<defs>
    <style>
      .cls-1 {
        fill: #45b0e3;
      }

      .cls-1, .cls-2 {
        fill-rule: evenodd;
      }

      .cls-2 {
        fill: #fff;
      }
    </style>
  </defs>
  <path id="Base" class="cls-1" d="M1055.8,3090h54.18v54H1055.8v-54Z" transform="translate(-1055.81 -3090)"/>
  <path id="twitter-2" data-name="twitter" class="cls-2" d="M1066.62,3121.95s6.22,5.4,11.17.05a2.557,2.557,0,0,1-1.36-.41,2.378,2.378,0,0,1-.67-1.15s1.54-.86.96-1.51c0,0-3.41-.07-3.6-2.11l2-1.29a1.9,1.9,0,0,1-1.56-.01s-2.02-1.44-1.63-2.92l1.68-.17s-2.92-2.07-2.11-3.67c0,0,.28-1.37,9.97,5.04,0,0,1.7-6.05,4.86-7.39a0.947,0.947,0,0,1,.52.52,2,2,0,0,1,1.04-1.05s0.71,0.63.25,0.99c0,0,1.19-.82,1.78-0.41,0,0-.05.73-1.77,1.64,0,0,4.47.24,6.03,6.19a4.658,4.658,0,0,0,3.77-.47s0.15,0.88-2.68,2.12c0,0,.26.42,2.63,0.1,0,0-.01,1.76-3.77,1.74,0,0-3.16,9.15-10.86,10.41C1073.91,3129.72,1067.34,3125.06,1066.62,3121.95Z" transform="translate(-1055.81 -3090)"/>
</svg>
