<svg id="Google" xmlns="http://www.w3.org/2000/svg" width="54" height="53" viewBox="0 0 54 53">
  <metadata><?xpacket begin="﻿" id="W5M0MpCehiHzreSzNTczkc9d"?>
<x:xmpmeta xmlns:x="adobe:ns:meta/" x:xmptk="Adobe XMP Core 5.6-c138 79.159824, 2016/09/14-01:09:01        ">
   <rdf:RDF xmlns:rdf="http://www.w3.org/1999/02/22-rdf-syntax-ns#">
      <rdf:Description rdf:about=""/>
   </rdf:RDF>
</x:xmpmeta>
                                                                                                    
                                                                                                    
                                                                                                    
                                                                                                    
                                                                                                    
                                                                                                    
                                                                                                    
                                                                                                    
                                                                                                    
                                                                                                    
                                                                                                    
                                                                                                    
                                                                                                    
                                                                                                    
                                                                                                    
                                                                                                    
                                                                                                    
                                                                                                    
                                                                                                    
                                                                                                    
                           
<?xpacket end="w"?></metadata>
<defs>
    <style>
      .cls-1 {
        fill: #1872bf;
      }

      .cls-2 {
        fill: #fff;
        fill-rule: evenodd;
      }
    </style>
  </defs>
  <rect id="Base" class="cls-1" width="54" height="53"/>
  <path id="Google-2" data-name="Google" class="cls-2" d="M1217.71,3106.96a4.355,4.355,0,0,1,.62.49,5.307,5.307,0,0,1,.64.83,5.034,5.034,0,0,1,.54,1.09,4.925,4.925,0,0,1,.19,1.46,4.27,4.27,0,0,1-.69,2.46,8.209,8.209,0,0,1-.69.83c-0.27.25-.56,0.5-0.86,0.77a2.876,2.876,0,0,0-.48.6,1.268,1.268,0,0,0-.26.81,1.064,1.064,0,0,0,.26.74c0.15,0.18.3,0.35,0.44,0.49l0.99,0.79a9.654,9.654,0,0,1,1.62,1.64,4.06,4.06,0,0,1,.69,2.37,4.766,4.766,0,0,1-1.88,3.69,8.584,8.584,0,0,1-5.6,1.72,7.207,7.207,0,0,1-4.58-1.28,3.457,3.457,0,0,1-1.53-2.81,3.984,3.984,0,0,1,.5-1.77,4.21,4.21,0,0,1,1.74-1.71,9.1,9.1,0,0,1,2.98-1.06,20.862,20.862,0,0,1,2.57-.25,6.233,6.233,0,0,1-.56-0.88,1.876,1.876,0,0,1-.29-1.08,1.482,1.482,0,0,1,.11-0.63c0.06-.18.12-0.34,0.18-0.49a8.044,8.044,0,0,1-.94.06,4.507,4.507,0,0,1-3.55-1.44,4.236,4.236,0,0,1-1.28-3.06,5.366,5.366,0,0,1,1.81-3.93,6.762,6.762,0,0,1,2.58-1.42,14.176,14.176,0,0,1,2.49-.39h5.84l-1.8,1.36h-1.8Zm-2.94,8.1a2.732,2.732,0,0,0,1.92-.82,2.951,2.951,0,0,0,.47-1.12,6.929,6.929,0,0,0-.82-4.38,3.68,3.68,0,0,0-1.08-1.34,2.821,2.821,0,0,0-1.59-.52,2.57,2.57,0,0,0-1.97.94,3.406,3.406,0,0,0-.64,2.12,6.688,6.688,0,0,0,.93,3.24,4.356,4.356,0,0,0,1.16,1.33,2.6,2.6,0,0,0,1.62.55h0Zm4.07,8.39a2.79,2.79,0,0,0-.73-1.9,17.2,17.2,0,0,0-2.4-1.88,6.048,6.048,0,0,0-.65-0.03,7.925,7.925,0,0,0-1.14.05,12.968,12.968,0,0,0-1.86.41c-0.15.05-.36,0.14-0.63,0.25a3.826,3.826,0,0,0-.82.52,3.082,3.082,0,0,0-.68.86,2.606,2.606,0,0,0-.32,1.32,2.923,2.923,0,0,0,1.39,2.48,6.086,6.086,0,0,0,3.63,1.01,5.155,5.155,0,0,0,3.15-.89,2.714,2.714,0,0,0,1.06-2.2h0Z" transform="translate(-1187 -3090)"/>
</svg>
